<svg width="31" height="21" viewBox="0 0 31 21" fill="none" xmlns="http://www.w3.org/2000/svg">
<path d="M30.3521 3.27626C30.0032 1.98174 28.94 0.958905 27.6109 0.623288C25.1854 5.71551e-07 15.5 0 15.5 0C15.5 0 5.79796 5.71551e-07 3.38907 0.623288C2.06002 0.974886 0.996785 1.98174 0.647911 3.27626C5.9413e-07 5.62557 0 10.5 0 10.5C0 10.5 5.9413e-07 15.3904 0.647911 17.7237C0.996785 19.0183 2.06002 20.0411 3.38907 20.3767C5.81458 21 15.5 21 15.5 21C15.5 21 25.202 21 27.6109 20.3767C28.94 20.0251 30.0032 19.0183 30.3521 17.7237C31 15.3744 31 10.5 31 10.5C31 10.5 31 5.60959 30.3521 3.27626ZM12.3103 14.9429V6.07306L20.4175 10.516L12.3103 14.9429Z" fill="#000"/>
</svg>
