<svg width="49" height="49" viewBox="0 0 49 49" fill="none" xmlns="http://www.w3.org/2000/svg">
<g clip-path="url(#clip0)">
<path d="M45.5 6H42.5V9H45.5V6Z" fill="black"/>
<path d="M48.5 9H45.5V48.5H48.5V9Z" fill="black"/>
<path d="M3 0H0V48.5H3V0Z" fill="black"/>
<path d="M45.5 12H33.5V15H45.5V12Z" fill="black"/>
<path d="M39.5039 3.00403V6.00403H42.5039V3.00403H39.5039Z" fill="black"/>
<path d="M3.00195 0.00201416V3.00201L39.502 3.00201V0.00201416L3.00195 0.00201416Z" fill="black"/>
<path d="M2.99805 45.5061V48.5061H48.498V45.5061H2.99805Z" fill="black"/>
<path d="M33.5039 3.00403V15.004H36.5039V3.00403H33.5039Z" fill="black"/>
<path d="M15.5293 21.1547V24.1547H18.5293V21.1547H15.5293Z" fill="black"/>
<path d="M15.5293 18.1547V21.1547H18.5293V18.1547H15.5293Z" fill="black"/>
<path d="M30.5293 21.1547V24.1547H33.5293V21.1547H30.5293Z" fill="black"/>
<path d="M30.5293 18.1547V21.1547H33.5293V18.1547H30.5293Z" fill="black"/>
<path d="M24.5234 30.155H27.5234V27.155H24.5234V30.155Z" fill="black"/>
<path d="M21.5234 30.155H24.5234V27.155H21.5234V30.155Z" fill="black"/>
<path d="M27.5115 33.221H33.5215V30.221H27.5115V33.221Z" fill="black"/>
<path d="M15.5234 33.221H21.5234V30.221H15.5234V33.221Z" fill="black"/>
<path d="M18.5234 27.155H21.5234V24.155H18.5234V27.155Z" fill="black"/>
<path d="M18.5234 18.155H21.5234V15.155H18.5234V18.155Z" fill="black"/>
<path d="M27.5098 27.155H30.5098V24.155H27.5098V27.155Z" fill="black"/>
<path d="M33.5234 36.3431H36.5234V33.3431H33.5234V36.3431Z" fill="black"/>
<path d="M12.5352 36.3431H15.5352V33.3431H12.5352V36.3431Z" fill="black"/>
<path d="M27.5098 18.155H30.5098V15.155H27.5098V18.155Z" fill="black"/>
<path d="M24.5234 15.155H27.5234V12.155H24.5234V15.155Z" fill="black"/>
<path d="M21.5234 15.155H24.5234V12.155H21.5234V15.155Z" fill="black"/>
</g>
<defs>
<clipPath id="clip0">
<rect width="48.5" height="48.5" fill="black"/>
</clipPath>
</defs>
</svg>
