<svg width="137" height="36" viewBox="0 0 137 36" fill="none" xmlns="http://www.w3.org/2000/svg">
<path d="M12.9317 35.0978L5.06472 0.901855H0L7.86959 35.0978H12.9317Z" fill="white"/>
<path d="M20.8677 0.901855H15.803L11.8682 17.9998L15.9811 22.1378L20.8677 0.901855Z" fill="white"/>
<path d="M58.1654 30.8849V35.0952H40.7354V0.901855H58.1654V5.11212H45.5156V15.9416H56.323V20.1545H45.5156V30.8849H58.1654Z" fill="white"/>
<path d="M92.7279 9.22617C92.7279 6.51747 90.7366 4.21294 87.8971 4.21294C85.0577 4.21294 83.0664 6.52015 83.0664 9.22617V26.7738C83.0664 29.4825 85.0577 31.7871 87.8971 31.7871C90.7366 31.7871 92.7279 29.4799 92.7279 26.7738V20.2055H87.8971V15.9952H97.5081V26.6748C97.5081 31.9396 93.6744 36 87.8971 36C82.1199 36 78.2861 31.9396 78.2861 26.6748V9.3252C78.2835 4.06037 82.1199 0 87.8971 0C93.6744 0 97.5081 4.06037 97.5081 9.3252V11.1801H92.7279V9.22617Z" fill="white"/>
<path d="M129.032 0.901855L137 35.0952H132.119L130.874 29.7313H121.859L120.615 35.0952H115.733L123.802 0.901855H129.032ZM129.928 25.521L126.49 9.27688H126.291L122.805 25.521H129.928Z" fill="white"/>
</svg>
