<svg width="135" height="10" viewBox="0 0 135 10" fill="none" xmlns="http://www.w3.org/2000/svg">
<g clip-path="url(#clip0_2177_14191)">
<path d="M23.7865 0L18.4531 10H20.1859L21.3561 7.74554H28.2648L29.435 10H31.1677L25.8344 0H23.7865ZM22.1212 6.33929L24.8217 1.29464L24.8667 1.38393L27.4996 6.33929H22.1212Z" fill="white"/>
<path d="M40.4844 0V10H42.0596V1.65179L42.1497 1.74107L49.8909 10H51.9388V0H50.341V8.37054L50.251 8.28125L42.4872 0H40.4844Z" fill="white"/>
<path d="M66.0717 3.10268H62.8987V4.50893H66.0717V10H67.6695V4.50893H70.8425V3.10268H67.6695V1.40625H72.5303V0H61.2109V1.40625H66.0717V3.10268Z" fill="white"/>
<path d="M83.3995 5.71429H89.363V4.30804H83.3995V1.40625H92.3785V0H81.8242V10H92.3785V8.59375H83.3995V5.71429Z" fill="white"/>
<path d="M129.689 0H127.619L122.285 10H124.018L125.188 7.74554H132.097L132.119 7.76786L133.267 10H135L129.689 0ZM125.976 6.33929L128.676 1.29464L128.721 1.38393L131.354 6.33929H125.976Z" fill="white"/>
<path d="M8.25888 0H0V10H1.59777V6.13839H8.25888C9.96916 6.13839 11.3644 4.75446 11.3644 3.05804C11.3419 1.38393 9.96916 0 8.25888 0ZM8.25888 4.73214H1.59777V1.40625H8.25888C9.18153 1.40625 9.92415 2.14286 9.92415 3.05804C9.92415 3.97321 9.18153 4.73214 8.25888 4.73214Z" fill="white"/>
<path d="M110.719 6.09375C112.204 5.82589 113.284 4.55357 113.284 3.05804C113.284 1.36161 111.889 0 110.179 0H101.92V10H103.518V6.13839H108.739L108.761 6.16071L111.507 10H113.352L110.674 6.09375H110.719ZM103.54 4.73214V1.40625H110.201C111.124 1.40625 111.867 2.14286 111.867 3.05804C111.867 3.97321 111.124 4.73214 110.201 4.73214H103.54Z" fill="white"/>
</g>
<defs>
<clipPath id="clip0_2177_14191">
<rect width="135" height="10" fill="white"/>
</clipPath>
</defs>
</svg>
