<svg width="91" height="91" viewBox="0 0 91 91" fill="none" xmlns="http://www.w3.org/2000/svg">
<rect x="0.65" y="0.65" width="89.7" height="89.7" rx="11.35" stroke="white" stroke-width="1.3"/>
<g clip-path="url(#clip0_2701_1203)">
<path d="M56 50V71H59V77H62V71H65V77H68V71H71V50H56ZM59 59V56H62V59H59ZM68 59H65V56H68V59Z" fill="white"/>
<path d="M53 65H23V68H53V65Z" fill="white"/>
<path d="M23 23H20V65H23V23Z" fill="white"/>
<path d="M68 20H23V23H68V20Z" fill="white"/>
<path d="M71 23H68V47H71V23Z" fill="white"/>
<path fill-rule="evenodd" clip-rule="evenodd" d="M46.0254 31.1061C42.9327 31.1039 39.9411 32.2248 37.585 34.2679C35.2289 36.3111 33.6627 39.1431 33.1678 42.2565C32.6728 45.3699 33.2814 48.5614 34.8838 51.2591C36.4862 53.9568 38.9783 55.9845 41.9133 56.9789C42.5641 57.0984 42.798 56.6868 42.798 56.3284C42.798 55.97 42.798 55.1868 42.798 54.0717C39.1794 54.8815 38.424 52.2929 38.424 52.2929C38.1798 51.4941 37.6693 50.8082 36.9799 50.3547C35.7954 49.5317 37.0575 49.545 37.0575 49.545C37.4681 49.5979 37.862 49.7448 38.2091 49.9747C38.5562 50.2046 38.8476 50.5114 39.0621 50.8724C39.2373 51.201 39.4749 51.4906 39.7612 51.7244C40.0475 51.9582 40.3772 52.1314 40.7298 52.234C41.0825 52.3366 41.4513 52.3665 41.8154 52.3219C42.1795 52.2773 42.5313 52.1591 42.8501 51.9743C42.9124 51.306 43.2024 50.6812 43.67 50.2087C40.7803 49.8635 37.7477 48.7352 37.7477 43.5713C37.7188 42.2591 38.1847 40.9857 39.0494 40.0136C38.6441 38.8691 38.6859 37.6095 39.1663 36.4957C39.1663 36.4957 40.2597 36.1506 42.7459 37.8232C44.8755 37.224 47.1245 37.224 49.2541 37.8232C51.7403 36.1108 52.8337 36.4957 52.8337 36.4957C53.308 37.6102 53.354 38.8658 52.9633 40.0136C53.828 40.9857 54.2939 42.2591 54.265 43.5713C54.265 48.6821 51.22 49.7972 48.3173 50.129C48.6276 50.4507 48.8663 50.8361 49.019 51.2596C49.1716 51.6831 49.2342 52.1349 49.202 52.5849C49.202 54.3637 49.202 55.7974 49.202 56.2222C49.202 56.647 49.4359 56.9922 50.0867 56.8727C53.0217 55.8783 55.5138 53.8506 57.1162 51.1529C58.7186 48.4551 59.3272 45.2637 58.8322 42.1503C58.3373 39.0368 56.7711 36.2049 54.415 34.1617C52.0589 32.1185 49.0673 30.9977 45.9746 31L46.0254 31.1061Z" fill="white"/>
</g>
<defs>
<clipPath id="clip0_2701_1203">
<rect width="51" height="57" fill="white" transform="translate(20 20)"/>
</clipPath>
</defs>
</svg>
