<svg width="99" height="122" viewBox="0 0 99 122" fill="none" xmlns="http://www.w3.org/2000/svg">
<path d="M91.7666 0H6.7666V122H91.7666V0Z" fill="white"/>
<path d="M33.672 40.5012H29.1836V45.0012H33.672V40.5012Z" fill="black"/>
<path d="M38.1602 45.0012H33.6719V49.5012H38.1602V45.0012Z" fill="black"/>
<path d="M42.6485 40.5012H38.1602V45.0012H42.6485V40.5012Z" fill="black"/>
<path d="M33.672 49.5012H29.1836V54.0012H33.672V49.5012Z" fill="black"/>
<path d="M92.0205 71.6052V65.2422L98.7665 72.0012V122H94.2782V73.8642L92.0205 71.6052Z" fill="black"/>
<path d="M42.6485 49.5012H38.1602V54.0012H42.6485V49.5012Z" fill="black"/>
<path d="M65.0904 63.0012H33.6719V67.5012H65.0904V63.0012Z" fill="black"/>
<path d="M60.6016 40.5012H56.1133V45.0012H60.6016V40.5012Z" fill="black"/>
<path d="M65.0909 45.0012H60.6025V49.5012H65.0909V45.0012Z" fill="black"/>
<path d="M69.5792 40.5012H65.0908V45.0012H69.5792V40.5012Z" fill="black"/>
<path d="M60.6016 49.5012H56.1133V54.0012H60.6016V49.5012Z" fill="black"/>
<path d="M69.5792 49.5012H65.0908V54.0012H69.5792V49.5012Z" fill="black"/>
<path d="M69.5792 58.5012H65.0908V63.0012H69.5792V58.5012Z" fill="black"/>
<path d="M91.7666 95H6.7666V122H91.7666V95Z" fill="#5A20FF"/>
<path d="M78.555 103.501H92.0201V94.5012H6.74121V103.501H69.5783H78.555Z" fill="#400ED0"/>
<path d="M65.0909 113H60.6025V122H65.0909V113Z" fill="#D9DBDD"/>
<path d="M74.0675 117.5H78.5558V122H74.0675H69.5791V117.5V113H74.0675V117.5Z" fill="#D9DBDD"/>
<path d="M83.044 113H78.5557V117.5H83.044V113Z" fill="#D9DBDD"/>
<path d="M6.74152 71.6052V65.2422L0 72.0012V122H4.48836V73.8642L6.74152 71.6052Z" fill="black"/>
</svg>
