<svg width="560" height="615" viewBox="0 0 560 615" fill="none" xmlns="http://www.w3.org/2000/svg">
<rect x="160" y="575" width="40" height="40" transform="rotate(-90 160 575)" fill="#D9DBDD"/>
<rect x="160" y="535" width="40" height="40" transform="rotate(-90 160 535)" fill="#D9DBDD"/>
<rect x="160" y="495" width="40" height="40" transform="rotate(-90 160 495)" fill="#D9DBDD"/>
<rect x="160" y="455" width="40" height="40" transform="rotate(-90 160 455)" fill="#D9DBDD"/>
<rect x="120" y="415" width="40" height="40" transform="rotate(-90 120 415)" fill="#D9DBDD"/>
<rect x="120" y="455" width="40" height="40" transform="rotate(-90 120 455)" fill="#D9DBDD"/>
<rect x="120" y="535" width="40" height="40" transform="rotate(-90 120 535)" fill="#D9DBDD"/>
<rect x="80" y="575" width="40" height="40" transform="rotate(-90 80 575)" fill="#D9DBDD"/>
<rect x="80" y="495" width="40" height="40" transform="rotate(-90 80 495)" fill="#D9DBDD"/>
<rect x="80" y="375" width="40" height="40" transform="rotate(-90 80 375)" fill="#D9DBDD"/>
<rect x="40" y="375" width="40" height="40" transform="rotate(-90 40 375)" fill="#D9DBDD"/>
<rect y="375" width="40" height="40" transform="rotate(-90 0 375)" fill="#D9DBDD"/>
<rect y="455" width="40" height="40" transform="rotate(-90 0 455)" fill="#D9DBDD"/>
<rect y="495" width="40" height="40" transform="rotate(-90 0 495)" fill="#D9DBDD"/>
<rect y="535" width="40" height="40" transform="rotate(-90 0 535)" fill="#D9DBDD"/>
<rect x="40" y="415" width="40" height="40" transform="rotate(-90 40 415)" fill="#D9DBDD"/>
<rect x="40" y="455" width="40" height="40" transform="rotate(-90 40 455)" fill="#D9DBDD"/>
<rect x="40" y="535" width="40" height="40" transform="rotate(-90 40 535)" fill="#D9DBDD"/>
<rect x="40" y="615" width="40" height="40" transform="rotate(-90 40 615)" fill="#D9DBDD"/>
<rect x="80" y="415" width="40" height="40" transform="rotate(-90 80 415)" fill="#D9DBDD"/>
<rect x="200" y="575" width="40" height="40" transform="rotate(-90 200 575)" fill="#D9DBDD"/>
<rect x="240" y="615" width="40" height="40" transform="rotate(-90 240 615)" fill="#D9DBDD"/>
<rect x="160" y="615" width="40" height="40" transform="rotate(-90 160 615)" fill="#D9DBDD"/>
<rect x="80" y="615" width="40" height="40" transform="rotate(-90 80 615)" fill="#D9DBDD"/>
<rect x="360" y="615" width="40" height="40" transform="rotate(-90 360 615)" fill="#D9DBDD"/>
<rect x="280" y="615" width="40" height="40" transform="rotate(-90 280 615)" fill="#D9DBDD"/>
<rect x="200" y="535" width="40" height="40" transform="rotate(-90 200 535)" fill="#D9DBDD"/>
<rect x="200" y="495" width="40" height="40" transform="rotate(-90 200 495)" fill="#D9DBDD"/>
<rect x="200" y="415" width="40" height="40" transform="rotate(-90 200 415)" fill="#D9DBDD"/>
<rect x="400" y="575" width="40" height="40" transform="rotate(-90 400 575)" fill="#D9DBDD"/>
<rect x="400" y="535" width="40" height="40" transform="rotate(-90 400 535)" fill="#D9DBDD"/>
<rect x="400" y="495" width="40" height="40" transform="rotate(-90 400 495)" fill="#D9DBDD"/>
<rect x="400" y="455" width="40" height="40" transform="rotate(-90 400 455)" fill="#D9DBDD"/>
<rect x="440" y="575" width="40" height="40" transform="rotate(-90 440 575)" fill="#D9DBDD"/>
<rect x="440" y="495" width="40" height="40" transform="rotate(-90 440 495)" fill="#D9DBDD"/>
<rect x="440" y="455" width="40" height="40" transform="rotate(-90 440 455)" fill="#D9DBDD"/>
<rect x="480" y="415" width="40" height="40" transform="rotate(-90 480 415)" fill="#D9DBDD"/>
<rect x="480" y="375" width="40" height="40" transform="rotate(-90 480 375)" fill="#D9DBDD"/>
<rect x="480" y="495" width="40" height="40" transform="rotate(-90 480 495)" fill="#D9DBDD"/>
<rect x="480" y="535" width="40" height="40" transform="rotate(-90 480 535)" fill="#D9DBDD"/>
<rect x="520" y="535" width="40" height="40" transform="rotate(-90 520 535)" fill="#D9DBDD"/>
<rect x="520" y="575" width="40" height="40" transform="rotate(-90 520 575)" fill="#D9DBDD"/>
<rect x="520" y="455" width="40" height="40" transform="rotate(-90 520 455)" fill="#D9DBDD"/>
<rect x="520" y="375" width="40" height="40" transform="rotate(-90 520 375)" fill="#D9DBDD"/>
<rect x="520" y="415" width="40" height="40" transform="rotate(-90 520 415)" fill="#D9DBDD"/>
<rect x="480" y="615" width="40" height="40" transform="rotate(-90 480 615)" fill="#D9DBDD"/>
<rect x="240" y="575" width="40" height="40" transform="rotate(-90 240 575)" fill="#D9DBDD"/>
<rect x="240" y="455" width="40" height="40" transform="rotate(-90 240 455)" fill="#D9DBDD"/>
<rect x="280" y="535" width="40" height="40" transform="rotate(-90 280 535)" fill="#D9DBDD"/>
<rect x="280" y="495" width="40" height="40" transform="rotate(-90 280 495)" fill="#D9DBDD"/>
<rect x="320" y="495" width="40" height="40" transform="rotate(-90 320 495)" fill="#D9DBDD"/>
<rect x="280" y="455" width="40" height="40" transform="rotate(-90 280 455)" fill="#D9DBDD"/>
<rect x="280" y="415" width="40" height="40" transform="rotate(-90 280 415)" fill="#D9DBDD"/>
<rect x="320" y="575" width="40" height="40" transform="rotate(-90 320 575)" fill="#D9DBDD"/>
<rect x="320" y="535" width="40" height="40" transform="rotate(-90 320 535)" fill="#D9DBDD"/>
<rect x="320" y="415" width="40" height="40" transform="rotate(-90 320 415)" fill="#D9DBDD"/>
<rect x="360" y="575" width="40" height="40" transform="rotate(-90 360 575)" fill="#D9DBDD"/>
<rect x="360" y="455" width="40" height="40" transform="rotate(-90 360 455)" fill="#D9DBDD"/>
<rect x="440" y="375" width="40" height="40" transform="rotate(-90 440 375)" fill="#D9DBDD"/>
<rect x="240" y="375" width="40" height="40" transform="rotate(-90 240 375)" fill="#D9DBDD"/>
<rect x="280" y="375" width="40" height="40" transform="rotate(-90 280 375)" fill="#D9DBDD"/>
<rect x="200" y="375" width="40" height="40" transform="rotate(-90 200 375)" fill="#D9DBDD"/>
<rect x="160" y="375" width="40" height="40" transform="rotate(-90 160 375)" fill="#D9DBDD"/>
<rect x="320" y="375" width="40" height="40" transform="rotate(-90 320 375)" fill="#D9DBDD"/>
<rect x="360" y="415" width="40" height="40" transform="rotate(-90 360 415)" fill="#D9DBDD"/>
<rect x="400" y="375" width="40" height="40" transform="rotate(-90 400 375)" fill="#D9DBDD"/>
<g clip-path="url(#clip0_1183_45751)">
<path d="M267.436 239.286H259.473V335H267.436V239.286Z" fill="black"/>
<path d="M355.032 0L203.73 0V239.286H355.032V0Z" fill="white"/>
<path d="M251.509 71.7856H243.546V79.7618H251.509V71.7856Z" fill="black"/>
<path d="M259.473 79.7617H251.51V87.7379H259.473V79.7617Z" fill="black"/>
<path d="M267.436 71.7856H259.473V79.7618H267.436V71.7856Z" fill="black"/>
<path d="M251.509 87.7383H243.546V95.7145H251.509V87.7383Z" fill="black"/>
<path d="M355.031 126.917V115.639L367 127.619H366.992H367V239.286H359.037V130.921L355.031 126.917Z" fill="black"/>
<path d="M267.436 87.7383H259.473V95.7145H267.436V87.7383Z" fill="black"/>
<path d="M307.252 111.667H251.51V119.643H307.252V111.667Z" fill="black"/>
<path d="M299.288 71.7856H291.325V79.7618H299.288V71.7856Z" fill="black"/>
<path d="M307.252 79.7617H299.289V87.7379H307.252V79.7617Z" fill="black"/>
<path d="M315.215 71.7856H307.252V79.7618H315.215V71.7856Z" fill="black"/>
<path d="M299.288 87.7383H291.325V95.7145H299.288V87.7383Z" fill="black"/>
<path d="M315.215 87.7383H307.252V95.7145H315.215V87.7383Z" fill="black"/>
<path d="M315.215 103.69H307.252V111.667H315.215V103.69Z" fill="black"/>
<path d="M299.288 239.286H291.325V247.262H299.288V239.286Z" fill="black"/>
<path d="M299.288 239.286H291.325V335H299.288V239.286Z" fill="black"/>
<path d="M267.436 239.286H259.473V335H267.436V239.286Z" fill="black"/>
<path d="M299.288 239.286H291.325V247.262H299.288V239.286Z" fill="black"/>
<path d="M299.288 239.286H291.325V335H299.288V239.286Z" fill="black"/>
<path d="M299.288 239.286H291.325V247.262H299.288V239.286Z" fill="black"/>
<path d="M355.032 167.5H203.73V239.286H355.032V167.5Z" fill="#5A20FF"/>
<path d="M275.399 239.286H203.73V255.238H275.399V239.286Z" fill="#5A20FF"/>
<path d="M355.031 239.286H283.362V255.238H355.031V239.286Z" fill="#5A20FF"/>
<path d="M331.142 183.452H355.032V167.5H203.73V183.452H315.216H331.142Z" fill="#400ED0"/>
<path d="M307.252 199.405H299.289V215.357H307.252V199.405Z" fill="#D9DBDD"/>
<path d="M331.142 207.381H323.179V199.405H315.216V207.381V215.357V223.333H323.179V215.357H331.142V223.333H339.105V215.357H331.142V207.381Z" fill="#D9DBDD"/>
<path d="M339.105 231.31H315.216V239.286H339.105V231.31Z" fill="#D9DBDD"/>
<path d="M339.105 199.405H331.142V207.381H339.105V199.405Z" fill="#D9DBDD"/>
<path d="M315.215 223.333H307.252V231.31H315.215V223.333Z" fill="#D9DBDD"/>
<path d="M307.252 231.31H299.289V239.286H307.252V231.31Z" fill="#D9DBDD"/>
<path d="M243.547 137.236L146.998 193.069L182.833 255.238L279.382 199.404L243.547 137.236Z" fill="#D9DBDD"/>
<path d="M214.647 190.79L207.751 194.779L211.733 201.686L218.629 197.698L214.647 190.79Z" fill="black"/>
<path d="M203.73 126.917V115.639L191.77 127.619V239.286H199.733V130.921L203.73 126.917Z" fill="black"/>
</g>
<defs>
<clipPath id="clip0_1183_45751">
<rect width="220" height="335" fill="white" transform="translate(147)"/>
</clipPath>
</defs>
</svg>
