<svg width="23" height="39" viewBox="0 0 23 39" fill="none" xmlns="http://www.w3.org/2000/svg">
<path d="M6.17146 24.6245H4.12207V26.6742H6.17146V24.6245Z" fill="white"/>
<path d="M16.4252 22.5745H14.376V24.6242H16.4252V22.5745Z" fill="white"/>
<path d="M18.4708 24.6245H16.4214V26.6742H18.4708V24.6245Z" fill="white"/>
<path d="M18.4745 18.4751H14.376V20.5248H18.4745V18.4751Z" fill="white"/>
<path d="M20.5234 20.5251H18.4741V22.5749H20.5234V20.5251Z" fill="white"/>
<path d="M4.12646 20.5251H2.07715V22.5749H4.12646V20.5251Z" fill="white"/>
<path d="M2.04928 16.4258H0V18.4755H2.04928V16.4258Z" fill="white"/>
<path d="M20.5238 14.3755H14.376V16.4252H20.5238V14.3755Z" fill="white"/>
<path d="M22.5712 16.4258H20.522V18.4755H22.5712V16.4258Z" fill="white"/>
<path d="M10.272 6.14966H8.22266V8.19933H10.272V6.14966Z" fill="white"/>
<path d="M16.4221 34.9006V32.8232H14.3728V30.7734H12.3235V28.7237H14.3728V26.674H12.3235V24.6243V22.5746V12.2983H22.5701V6.14915H20.5207V4.09943H18.4715V2.04972H16.4221V0H12.3235V2.04972H14.3728V4.09943H16.4221V6.14915H14.3728V4.09943H12.3235V6.14915V8.19886V10.2486H10.2742H6.17562V6.14915V4.09943H12.3235V2.04972H10.2742V0H6.17562V2.04972H4.1263V4.09943H2.077V6.14915H0V10.2486V12.2983H10.2742V14.3757H2.077V16.4254H10.2742V18.4751H4.1263V20.5249H10.2742V22.5746H6.17562V24.6243H10.2742V26.674H8.22492V28.7237H10.2742V30.7734H8.22492V32.8232H6.17562V34.9006H4.1263V39H8.22492V36.9503H10.2742V34.9006H12.3235V36.9503H14.3728V39H18.4715V34.9006H16.4221Z" fill="white"/>
</svg>
