<svg width="56" height="33" viewBox="0 0 56 33" fill="none" xmlns="http://www.w3.org/2000/svg">
<path d="M20.6319 5.89478H17.6846V8.84214H20.6319V5.89478Z" fill="white"/>
<path d="M23.5792 20.6318H20.6318V23.5792H23.5792V20.6318Z" fill="white"/>
<path d="M20.6319 23.5791H17.6846V26.5265H20.6319V23.5791Z" fill="white"/>
<path d="M29.4737 20.6318H26.5264L26.5264 26.5266H29.4737L29.4737 20.6318Z" fill="white"/>
<path d="M26.5265 26.5264H23.5791V29.4737H26.5265V26.5264Z" fill="white"/>
<path d="M26.5265 2.94751L23.5791 2.94751V5.89488H26.5265V2.94751Z" fill="white"/>
<path d="M32.421 0L29.4736 0V2.94737L32.421 2.94737V0Z" fill="white"/>
<path d="M35.3683 20.6318H32.4209L32.4209 29.4739H35.3683L35.3683 20.6318Z" fill="white"/>
<path d="M32.421 29.4736H29.4736V32.421H32.421V29.4736Z" fill="white"/>
<path d="M47.1583 11.7896H44.2109V14.7369H47.1583V11.7896Z" fill="white"/>
<path d="M5.89474 23.5789H8.8421L8.8421 20.6316H11.7895L11.7895 17.6842H14.7368L14.7368 20.6316H17.6842V17.6842L20.6316 17.6842H23.5789H38.3158L38.3158 32.4211H47.1579V29.4737H50.1053V26.5263H53.0526V23.5789L56 23.5789L56 17.6842L53.0526 17.6842V20.6316H50.1053L50.1053 23.5789H47.1579L47.1579 20.6316H50.1053V17.6842H47.1579H44.2105H41.2632V14.7368V8.8421L47.1579 8.8421H50.1053V17.6842H53.0526V14.7368H56V8.8421H53.0526L53.0526 5.89474L50.1053 5.89474V2.94737L47.1579 2.94737V0L41.2632 0L38.3158 0L38.3158 14.7368H35.3684L35.3684 2.94737L32.4211 2.94737L32.4211 14.7368H29.4737L29.4737 5.89474H26.5263L26.5263 14.7368H23.5789L23.5789 8.8421H20.6316L20.6316 14.7368H17.6842V11.7895H14.7368L14.7368 14.7368H11.7895L11.7895 11.7895L8.8421 11.7895V8.8421H5.89474L5.89474 5.89474L0 5.89474L0 11.7895H2.94737L2.94737 14.7368H5.89474L5.89474 17.6842H2.94737L2.94737 20.6316H0L0 26.5263H5.89474L5.89474 23.5789Z" fill="white"/>
</svg>
