<svg width="190" height="102" viewBox="0 0 190 102" fill="none" xmlns="http://www.w3.org/2000/svg">
<path d="M2.40372 72.112V41.0799L5.64875 37.8349L25.5275 61.6317L27.3544 60.0933L5.81701 34.2773L0 40.0703V72.112H2.40372Z" fill="black"/>
<path d="M52.8823 72.112V40.0703L47.0653 34.2773L25.528 60.0933L27.3548 61.6317L47.2336 37.8349L50.4786 41.0799V72.112H52.8823Z" fill="black"/>
<path d="M49.2765 0H3.60577V72.1117H49.2765V0Z" fill="white"/>
<path d="M22.8357 72.1118H20.432V100.957H22.8357V72.1118Z" fill="black"/>
<path d="M32.4504 72.1118H30.0467V100.957H32.4504V72.1118Z" fill="black"/>
<path d="M37.2572 33.6519H15.6237V36.0556H37.2572V33.6519Z" fill="black"/>
<path d="M30.0464 19.23H27.6427H25.2389H22.8352V21.6337V24.0374H25.2389V21.6337H27.6427V24.0374H30.0464V21.6337V19.23Z" fill="black"/>
<path d="M32.4504 24.0374H30.0467V26.4411H32.4504V24.0374Z" fill="black"/>
<path d="M34.8537 26.4409H32.45V28.8446H34.8537V26.4409Z" fill="black"/>
<path d="M44.469 28.8447H34.8541V31.2485H44.469V28.8447Z" fill="black"/>
<path d="M46.8725 26.4409H44.4688V28.8446H46.8725V26.4409Z" fill="black"/>
<path d="M49.2765 16.8262H46.8728H30.0467V19.2299H46.8728V26.4411H49.2765V21.6336H51.6802V19.2299V16.8262H49.2765Z" fill="black"/>
<path d="M22.8357 24.0374H20.432V26.4411H22.8357V24.0374Z" fill="black"/>
<path d="M20.4316 26.4409H18.0278V28.8446H20.4316V26.4409Z" fill="black"/>
<path d="M18.028 28.8447H8.41309V31.2485H18.028V28.8447Z" fill="black"/>
<path d="M8.41276 26.4409H6.00903V28.8446H8.41276V26.4409Z" fill="black"/>
<path d="M22.8351 19.2299V16.8262H6.00905H3.60532H1.2016V19.2299H3.60532V26.4411H6.00905V19.2299H22.8351Z" fill="black"/>
<path d="M126 72.112V40.0703L131.817 34.2773L153.354 60.0933L151.528 61.6317L131.649 37.8349L128.404 41.0799V72.112H126Z" fill="black"/>
<path d="M175.467 0H129.742V72.5104H175.467V0Z" fill="white"/>
<path d="M144.181 21.7532H141.774V24.1702H144.181V21.7532Z" fill="black"/>
<path d="M146.588 24.1702H144.181V26.5872H146.588V24.1702Z" fill="black"/>
<path d="M148.995 26.5869H146.588V29.0039H148.995V26.5869Z" fill="black"/>
<path d="M144.181 26.5869H141.774V29.0039H144.181V26.5869Z" fill="black"/>
<path d="M148.995 21.7532H146.588V24.1702H148.995V21.7532Z" fill="black"/>
<path d="M158.62 21.7532H156.214V24.1702H158.62V21.7532Z" fill="black"/>
<path d="M161.027 24.1702H158.621V26.5872H161.027V24.1702Z" fill="black"/>
<path d="M163.433 26.5869H161.027V29.0039H163.433V26.5869Z" fill="black"/>
<path d="M158.62 26.5869H156.214V29.0039H158.62V26.5869Z" fill="black"/>
<path d="M163.433 21.7532H161.027V24.1702H163.433V21.7532Z" fill="black"/>
<path d="M163.434 33.8384H141.774V36.2554H163.434V33.8384Z" fill="black"/>
<path d="M172.411 12.9309L185.792 26.3937L172.411 39.8323L174.096 41.5483L189.185 26.3937L174.096 11.239L172.411 12.9309Z" fill="black"/>
<path d="M135.397 29.8984H129.742V54.7453H135.397V29.8984Z" fill="white"/>
<path d="M175.467 29.8984H169.812V54.7453H175.467V29.8984Z" fill="white"/>
<path d="M146.588 72.5103V101.514H148.995V72.5103" fill="black"/>
<path d="M156.214 72.5103V101.514H158.62V72.5103" fill="black"/>
<rect x="26" y="48" width="127" height="34" fill="black"/>
<g clip-path="url(#clip0_5836_71)">
<path d="M44.3711 73.7941L51.1825 53.0193H54.603L46.167 76.9844H42.4708L34 53.0193H37.4793L44.3711 73.7941Z" fill="white"/>
<path d="M68.994 66.0188V74.2681H82.3761V76.9839H65.7823V53.0188H82.0817V55.7346H68.994V63.311H80.6525V66.0188H68.994Z" fill="white"/>
<path d="M95.2496 55.9196H98.1294V74.1153H95.2496V55.9196ZM109.654 53V55.9196H98.1294V53H109.654ZM98.1294 77V74.1153H109.654V77H98.1294ZM112.534 74.1153H109.654V68.3458H103.892V65.4558H112.534V74.1153ZM112.534 55.9196V58.8043H109.654V55.9196H112.534Z" fill="white"/>
<path d="M144.71 76.9839H141.356L139.592 72.1582H127.562L125.801 76.9839H122.522L131.807 53.0188H135.433L144.71 76.9839ZM133.528 55.9035L128.579 69.4478H138.581L133.597 55.9035H133.528Z" fill="white"/>
</g>
<defs>
<clipPath id="clip0_5836_71">
<rect width="110.71" height="24" fill="white" transform="translate(34 53)"/>
</clipPath>
</defs>
</svg>
