<svg width="170" height="148" viewBox="0 0 170 148" fill="none" xmlns="http://www.w3.org/2000/svg">
<path d="M86.3002 15.9978L91.0025 34.4678L72.5082 39.1702L73.1142 41.5214L93.9354 36.2373L88.6513 15.3918L86.3002 15.9978Z" fill="black"/>
<path d="M29.9205 35.5098L25 40.406V72.7164H27.4239V41.4241L31.6415 37.2065L29.9205 35.5098Z" fill="black"/>
<path d="M74.69 0H28.6362V72.7166H74.69V0Z" fill="white"/>
<path d="M43.1794 21.8152H40.7555V24.2391H43.1794V21.8152Z" fill="black"/>
<path d="M45.6029 24.2388H43.179V26.6627H45.6029V24.2388Z" fill="black"/>
<path d="M48.0273 26.6626H45.6035V29.0865H48.0273V26.6626Z" fill="black"/>
<path d="M43.1794 26.6626H40.7555V29.0865H43.1794V26.6626Z" fill="black"/>
<path d="M48.0273 21.8152H45.6035V24.2391H48.0273V21.8152Z" fill="black"/>
<path d="M57.7224 21.8152H55.2985V24.2391H57.7224V21.8152Z" fill="black"/>
<path d="M60.1468 24.2388H57.7229V26.6627H60.1468V24.2388Z" fill="black"/>
<path d="M62.5703 26.6626H60.1464V29.0865H62.5703V26.6626Z" fill="black"/>
<path d="M57.7224 26.6626H55.2985V29.0865H57.7224V26.6626Z" fill="black"/>
<path d="M62.5703 21.8152H60.1464V24.2391H62.5703V21.8152Z" fill="black"/>
<path d="M62.5705 33.9346H40.7555V36.3585H62.5705V33.9346Z" fill="black"/>
<path d="M48.0273 72.7168H45.6035V101.803H48.0273V72.7168Z" fill="black"/>
<path d="M57.7224 72.7168H55.2985V101.803H57.7224V72.7168Z" fill="black"/>
<rect x="1" y="92" width="168" height="55" fill="white"/>
<path d="M12.1597 100.08H9.8436V102.396H12.1597V100.08Z" fill="#010203"/>
<path d="M9.84361 97.7634H7.52753V100.08H9.84361V97.7634Z" fill="#010203"/>
<path d="M14.4755 102.396H12.1594V104.712H14.4755V102.396Z" fill="#010203"/>
<path d="M16.7918 104.712H14.4757V107.028H16.7918V104.712Z" fill="#010203"/>
<path d="M19.108 107.028H16.7919V109.344H19.108V107.028Z" fill="#010203"/>
<path d="M16.7918 100.08H14.4757V102.396H16.7918V100.08Z" fill="#010203"/>
<path d="M12.1597 104.712H9.8436V107.028H12.1597V104.712Z" fill="#010203"/>
<path d="M19.108 97.7634H16.7919V100.08H19.108V97.7634Z" fill="#010203"/>
<path d="M9.84342 107.028H7.52734V109.344H9.84342V107.028Z" fill="#010203"/>
<path d="M168.842 116.292L0.926758 116.292" stroke="black" stroke-width="1.85286" stroke-miterlimit="10"/>
<path d="M168.842 92L0.926758 92" stroke="black" stroke-width="1.85286" stroke-miterlimit="10"/>
<path d="M0.999998 91.0422L1 147.042" stroke="black" stroke-width="1.85286" stroke-miterlimit="10"/>
<path d="M169 91.0422L169 147.042" stroke="black" stroke-width="1.85286" stroke-miterlimit="10"/>
<path d="M151 147H153V146H151V147Z" fill="black"/>
<path d="M145.99 138.98H148.29V132.08H145.99V138.98Z" fill="black"/>
<path d="M143.68 132.08H145.99V125.17H143.68V132.08Z" fill="black"/>
<path d="M139.08 118.26H141.38V111.38H139.08V118.26Z" fill="black"/>
<path d="M136.77 111.38H139.07V104.47H136.77V111.38Z" fill="black"/>
<path d="M132.16 97.54H134.47V90.6299H132.16V97.54Z" fill="black"/>
<path d="M129.86 90.6299H132.16V83.7197H129.86V90.6299Z" fill="black"/>
<path d="M125.25 76.8101H127.56V69.8999H125.25V76.8101Z" fill="black"/>
<path d="M122.95 69.8999H125.25V63H122.95V69.8999Z" fill="black"/>
<path d="M121 147H123V146H121V147Z" fill="black"/>
<path d="M120.64 138.98H118.34V145.89H120.64V143.59H148.29V145.89H150.59V138.98H148.29V141.29H120.64V138.98Z" fill="black"/>
<path d="M116.04 138.98H118.34V132.08H116.04V138.98Z" fill="black"/>
<path d="M113.729 132.08H116.04V125.17H113.729V132.08Z" fill="black"/>
<path d="M113.73 118.26H111.43V125.17H113.73V122.87H141.38V125.17H143.68V118.26H141.38V120.56H113.73V118.26Z" fill="black"/>
<path d="M109.12 118.26H111.43V111.38H109.12V118.26Z" fill="black"/>
<path d="M106.82 111.38H109.12V104.47H106.82V111.38Z" fill="black"/>
<path d="M106.82 97.54H104.52V104.44H106.82V102.14H134.5V104.44H136.8V97.54H134.5V99.8398H106.85L106.82 97.54Z" fill="black"/>
<path d="M102.21 97.54H104.52V90.6299H102.21V97.54Z" fill="black"/>
<path d="M99.9102 90.6299H102.21V83.7197H99.9102V90.6299Z" fill="black"/>
<path d="M99.9102 76.8101H97.6104V83.7197H99.9102V81.3799H127.56V83.6797H129.86V76.77H127.56V79.0801H99.9102V76.8101Z" fill="black"/>
<path d="M95.2998 76.8101H97.5999V69.8999H95.2998V76.8101Z" fill="black"/>
<path d="M93 69.8999H95.3V63H93V69.8999Z" fill="black"/>
</svg>
