<svg width="673" height="348" viewBox="0 0 673 348" fill="none" xmlns="http://www.w3.org/2000/svg">
<g clip-path="url(#clip0_5878_2)">
<path d="M0.5 189.26H148.36" stroke="white" stroke-miterlimit="10"/>
<path d="M144.8 213.64V347.59" stroke="white" stroke-miterlimit="10"/>
<path d="M211.56 213.64V347.59" stroke="white" stroke-miterlimit="10"/>
<path d="M462.25 213.64V347.59" stroke="white" stroke-miterlimit="10"/>
<path d="M529.02 213.64V347.59" stroke="white" stroke-miterlimit="10"/>
<path d="M462.25 336.67H211.56" stroke="white" stroke-miterlimit="10"/>
<path d="M144.8 336.67H0.5V0.5H633.07M633.07 336.67H529.02" stroke="white" stroke-miterlimit="10"/>
<path d="M349.79 0.5H270.91V118.83H349.79V0.5Z" stroke="white" stroke-miterlimit="10"/>
<path d="M48.61 53.49H0.5V133.69H48.61V53.49Z" stroke="white" stroke-miterlimit="10"/>
<path d="M310.35 0.5V118.83" stroke="white" stroke-miterlimit="10"/>
<path d="M68.3601 9.70996V87.27" stroke="white" stroke-miterlimit="10"/>
<path d="M68.3601 99.9099V177.47" stroke="white" stroke-miterlimit="10"/>
<path d="M88.3601 9.70996V87.27" stroke="white" stroke-miterlimit="10"/>
<path d="M88.3601 99.9099V177.47" stroke="white" stroke-miterlimit="10"/>
<path d="M108.36 9.70996V87.27" stroke="white" stroke-miterlimit="10"/>
<path d="M108.36 99.9099V177.47" stroke="white" stroke-miterlimit="10"/>
<path d="M128.36 9.70996V87.27" stroke="white" stroke-miterlimit="10"/>
<path d="M128.36 99.9099V177.47" stroke="white" stroke-miterlimit="10"/>
<path d="M148.36 9.70996V87.27" stroke="white" stroke-miterlimit="10"/>
<path d="M148.36 99.9099V177.47" stroke="white" stroke-miterlimit="10"/>
<path d="M168.36 9.70996V87.27" stroke="white" stroke-miterlimit="10"/>
<path d="M168.36 99.9099V177.47" stroke="white" stroke-miterlimit="10"/>
<path d="M188.36 9.70996V87.27" stroke="white" stroke-miterlimit="10"/>
<path d="M188.36 99.9099V177.47" stroke="white" stroke-miterlimit="10"/>
<path d="M74 291L74 337" stroke="white" stroke-miterlimit="10"/>
<path d="M74 220L74 266" stroke="white" stroke-miterlimit="10"/>
<path d="M619 0L619 140" stroke="white" stroke-miterlimit="10"/>
<path d="M619 197L619 337" stroke="white" stroke-miterlimit="10"/>
<path d="M0.5 220.39H144.8" stroke="white" stroke-miterlimit="10"/>
<path d="M270.91 39.9399H349.8" stroke="white" stroke-miterlimit="10"/>
<path d="M270.91 79.3799H349.8" stroke="white" stroke-miterlimit="10"/>
<path d="M468.68 0.5H389.8V118.83H468.68V0.5Z" stroke="white" stroke-miterlimit="10"/>
<path d="M429.24 0.5V118.83" stroke="white" stroke-miterlimit="10"/>
<path d="M389.8 39.9399H468.68" stroke="white" stroke-miterlimit="10"/>
<path d="M389.8 79.3799H468.68" stroke="white" stroke-miterlimit="10"/>
<path d="M340.62 336.13V217.8H380.06V336.13H301.18V257.25H380.06" stroke="white" stroke-miterlimit="10"/>
<path d="M301.18 296.69H380.06" stroke="white" stroke-miterlimit="10"/>
<path d="M211.57 336.13H251.01L251.01 217.8H211.57V336.13Z" stroke="white" stroke-miterlimit="10"/>
<path d="M251.01 296.69H211.56" stroke="white" stroke-miterlimit="10"/>
<path d="M251.01 257.25H211.56" stroke="white" stroke-miterlimit="10"/>
<path d="M422.81 336.13H462.25V217.8H422.81V336.13Z" stroke="white" stroke-miterlimit="10"/>
<path d="M462.25 296.69H422.81" stroke="white" stroke-miterlimit="10"/>
<path d="M462.25 257.25H422.81" stroke="white" stroke-miterlimit="10"/>
<path d="M587.56 0.5H508.68V118.83H587.56V0.5Z" stroke="white" stroke-miterlimit="10"/>
<path d="M548.12 0.5V118.83" stroke="white" stroke-miterlimit="10"/>
<path d="M508.68 39.9399H587.56" stroke="white" stroke-miterlimit="10"/>
<path d="M508.68 79.3799H587.56" stroke="white" stroke-miterlimit="10"/>
<g clip-path="url(#clip1_5878_2)">
<path d="M362 245.714H358.667V249H362V245.714Z" fill="white"/>
<path d="M365.334 242.429H362V245.715H365.334V242.429Z" fill="white"/>
<path d="M372.001 239.143H368.667V242.429H372.001V239.143Z" fill="white"/>
<path d="M368.667 226H365.333V239.143H368.667V226Z" fill="white"/>
<path d="M358.667 242.429H355.334V245.715H358.667V242.429Z" fill="white"/>
<path d="M355.334 226H352V242.429H355.334V226Z" fill="white"/>
</g>
<circle cx="360" cy="237" r="33.5" stroke="#DFFF0B"/>
</g>
<path d="M292.8 177.384C291.12 177.384 289.688 177.056 288.504 176.4C287.32 175.728 286.536 174.712 286.152 173.352L288.216 172.608C288.456 173.6 288.992 174.32 289.824 174.768C290.672 175.216 291.688 175.44 292.872 175.44C294.152 175.44 295.216 175.2 296.064 174.72C296.912 174.224 297.336 173.48 297.336 172.488C297.336 171.8 297.12 171.24 296.688 170.808C296.256 170.376 295.696 170.04 295.008 169.8C294.336 169.56 293.488 169.336 292.464 169.128C291.264 168.888 290.256 168.616 289.44 168.312C288.64 168.008 287.96 167.544 287.4 166.92C286.856 166.296 286.584 165.472 286.584 164.448C286.584 163.424 286.864 162.552 287.424 161.832C288 161.112 288.768 160.576 289.728 160.224C290.688 159.856 291.752 159.672 292.92 159.672C294.424 159.672 295.696 160 296.736 160.656C297.776 161.296 298.496 162.304 298.896 163.68L296.856 164.448C296.616 163.392 296.144 162.656 295.44 162.24C294.752 161.808 293.88 161.592 292.824 161.592C291.672 161.592 290.704 161.816 289.92 162.264C289.152 162.696 288.768 163.368 288.768 164.28C288.768 164.888 288.96 165.376 289.344 165.744C289.744 166.112 290.248 166.4 290.856 166.608C291.464 166.8 292.24 166.976 293.184 167.136C294.416 167.36 295.472 167.64 296.352 167.976C297.248 168.312 297.992 168.84 298.584 169.56C299.192 170.264 299.496 171.2 299.496 172.368C299.496 173.984 298.872 175.224 297.624 176.088C296.376 176.952 294.768 177.384 292.8 177.384ZM313.741 167.328V160.056H316.021V177H313.741V169.248H304.861V177H302.581V160.056H304.861V167.328H313.741ZM322.329 177H320.097V160.056H322.329V177ZM328.445 174.96H326.405V160.056H328.445V174.96ZM336.605 174.96V177H328.445V174.96H336.605ZM350.979 177H339.723V160.056H342.003V175.08H350.979V177ZM372.14 161.736L362.012 175.08H372.428V177H359.156V175.32L369.284 161.976H359.876V160.056H372.14V161.736ZM384.48 162.096H378.36V160.032H384.48V162.096ZM376.32 162.096H378.36V164.136H376.32V162.096ZM386.52 162.096V164.136H384.48V162.096H386.52ZM376.32 172.92H374.28V164.136H376.32V172.92ZM386.52 164.136H388.56V172.92H386.52V164.136ZM376.32 174.96V172.92H378.36V174.96H376.32ZM386.52 174.96H384.48V172.92H386.52V174.96ZM378.36 174.96H384.48V177H378.36V174.96ZM403.765 173.88V160.056H405.925V177H403.429L394.405 163.2V177H392.245V160.056H394.765L403.765 173.88ZM412.179 169.248V175.08H421.659V177H409.899V160.056H421.443V161.976H412.179V167.328H420.435V169.248H412.179ZM424.814 174.312H427.502V176.232C427.502 177.288 427.366 178.128 427.094 178.752C426.838 179.392 426.342 179.968 425.606 180.48L424.838 179.352C425.35 179.032 425.71 178.688 425.918 178.32C426.126 177.968 426.23 177.528 426.23 177H424.814V174.312ZM448.733 160.032V162.096H440.573V168.84H438.533V160.032H448.733ZM440.573 170.88V168.84H446.693V170.88H440.573ZM438.533 170.88H440.573V177H438.533V170.88ZM462.873 177H451.617V160.056H453.897V175.08H462.873V177ZM472.063 177.384C470.511 177.384 469.119 176.992 467.887 176.208C466.655 175.408 465.695 174.336 465.007 172.992C464.319 171.632 463.975 170.136 463.975 168.504C463.975 166.824 464.319 165.312 465.007 163.968C465.695 162.624 466.647 161.576 467.863 160.824C469.095 160.056 470.495 159.672 472.063 159.672C473.631 159.672 475.031 160.056 476.263 160.824C477.495 161.576 478.447 162.624 479.119 163.968C479.807 165.296 480.151 166.808 480.151 168.504C480.151 170.136 479.807 171.632 479.119 172.992C478.431 174.336 477.471 175.408 476.239 176.208C475.023 176.992 473.631 177.384 472.063 177.384ZM472.063 175.464C473.199 175.464 474.207 175.152 475.087 174.528C475.967 173.904 476.647 173.064 477.127 172.008C477.623 170.952 477.871 169.784 477.871 168.504C477.871 167.176 477.631 165.992 477.151 164.952C476.671 163.896 475.991 163.072 475.111 162.48C474.231 161.888 473.215 161.592 472.063 161.592C470.927 161.592 469.919 161.888 469.039 162.48C468.159 163.072 467.471 163.896 466.975 164.952C466.495 165.992 466.255 167.176 466.255 168.504C466.255 169.768 466.495 170.936 466.975 172.008C467.471 173.064 468.159 173.904 469.039 174.528C469.919 175.152 470.927 175.464 472.063 175.464ZM490.303 177.384C488.751 177.384 487.359 176.992 486.127 176.208C484.895 175.408 483.935 174.336 483.247 172.992C482.559 171.632 482.215 170.136 482.215 168.504C482.215 166.824 482.559 165.312 483.247 163.968C483.935 162.624 484.887 161.576 486.103 160.824C487.335 160.056 488.735 159.672 490.303 159.672C491.871 159.672 493.271 160.056 494.503 160.824C495.735 161.576 496.687 162.624 497.359 163.968C498.047 165.296 498.391 166.808 498.391 168.504C498.391 170.136 498.047 171.632 497.359 172.992C496.671 174.336 495.711 175.408 494.479 176.208C493.263 176.992 491.871 177.384 490.303 177.384ZM490.303 175.464C491.439 175.464 492.447 175.152 493.327 174.528C494.207 173.904 494.887 173.064 495.367 172.008C495.863 170.952 496.111 169.784 496.111 168.504C496.111 167.176 495.871 165.992 495.391 164.952C494.911 163.896 494.231 163.072 493.351 162.48C492.471 161.888 491.455 161.592 490.303 161.592C489.167 161.592 488.159 161.888 487.279 162.48C486.399 163.072 485.711 163.896 485.215 164.952C484.735 165.992 484.495 167.176 484.495 168.504C484.495 169.768 484.735 170.936 485.215 172.008C485.711 173.064 486.399 173.904 487.279 174.528C488.159 175.152 489.167 175.464 490.303 175.464ZM511.615 168.84V170.88H513.655V177H511.615V172.92H509.575V170.88H503.455V177H501.415V160.032H511.615V162.096H503.455V168.84H511.615ZM511.615 162.096H513.655V168.84H511.615V162.096ZM529.095 177.264C527.671 177.264 526.463 176.944 525.471 176.304C524.495 175.664 523.807 174.68 523.407 173.352L525.471 172.608C525.935 174.512 527.143 175.464 529.095 175.464C530.199 175.464 531.079 175.176 531.735 174.6C532.391 174.008 532.719 173.256 532.719 172.344C532.719 171.08 532.351 170.184 531.615 169.656C530.895 169.112 530.047 168.84 529.071 168.84H527.079V167.16H528.807C529.511 167.16 530.095 167.008 530.559 166.704C531.039 166.4 531.391 166.016 531.615 165.552C531.855 165.088 531.975 164.608 531.975 164.112C531.975 163.392 531.719 162.8 531.207 162.336C530.695 161.856 530.023 161.616 529.191 161.616C527.287 161.616 526.135 162.608 525.735 164.592L523.695 163.824C524.079 162.448 524.751 161.44 525.711 160.8C526.687 160.144 527.879 159.816 529.287 159.816C530.247 159.816 531.087 160 531.807 160.368C532.543 160.736 533.111 161.248 533.511 161.904C533.911 162.544 534.111 163.288 534.111 164.136C534.111 164.84 533.903 165.56 533.487 166.296C533.071 167.016 532.511 167.536 531.807 167.856C532.879 168.24 533.655 168.792 534.135 169.512C534.631 170.216 534.879 171.128 534.879 172.248C534.879 173.24 534.639 174.12 534.159 174.888C533.695 175.64 533.023 176.224 532.143 176.64C531.279 177.056 530.263 177.264 529.095 177.264Z" fill="white"/>
<path d="M22 106.981L22 108.331L11.41 108.331L11.41 106.456L20.2 103.036L20.2 103.006L11.41 99.5857L11.41 97.7107L22 97.7107L22 99.0607L13.36 99.0607L13.36 99.0907L22 102.451L22 103.591L13.36 106.951L13.36 106.981L22 106.981ZM22 93.7332L22 95.1282L11.41 95.1282L11.41 93.7332L22 93.7332ZM20.05 83.9857L11.41 83.9857L11.41 82.6357L22 82.6357L22 84.1957L13.375 89.8357L22 89.8357L22 91.1857L11.41 91.1857L11.41 89.6107L20.05 83.9857ZM22 78.6969L22 80.0919L11.41 80.0919L11.41 78.6969L22 78.6969ZM36.24 112.326C36.24 113.376 36.035 114.271 35.625 115.011C35.205 115.751 34.57 116.241 33.72 116.481L33.255 115.191C33.875 115.041 34.325 114.706 34.605 114.186C34.885 113.656 35.025 113.021 35.025 112.281C35.025 111.481 34.875 110.816 34.575 110.286C34.265 109.756 33.8 109.491 33.18 109.491C32.75 109.491 32.4 109.626 32.13 109.896C31.86 110.166 31.65 110.516 31.5 110.946C31.35 111.366 31.21 111.896 31.08 112.536C30.93 113.286 30.76 113.916 30.57 114.426C30.38 114.926 30.09 115.351 29.7 115.701C29.31 116.041 28.795 116.211 28.155 116.211C27.515 116.211 26.97 116.036 26.52 115.686C26.07 115.326 25.735 114.846 25.515 114.246C25.285 113.646 25.17 112.981 25.17 112.251C25.17 111.311 25.375 110.516 25.785 109.866C26.185 109.216 26.815 108.766 27.675 108.516L28.155 109.791C27.495 109.941 27.035 110.236 26.775 110.676C26.505 111.106 26.37 111.651 26.37 112.311C26.37 113.031 26.51 113.636 26.79 114.126C27.06 114.606 27.48 114.846 28.05 114.846C28.43 114.846 28.735 114.726 28.965 114.486C29.195 114.236 29.375 113.921 29.505 113.541C29.625 113.161 29.735 112.676 29.835 112.086C29.975 111.316 30.15 110.656 30.36 110.106C30.57 109.546 30.9 109.081 31.35 108.711C31.79 108.331 32.375 108.141 33.105 108.141C34.115 108.141 34.89 108.531 35.43 109.311C35.97 110.091 36.24 111.096 36.24 112.326ZM25.41 107.528L25.41 99.0833L26.61 99.0833L26.61 102.593L36 102.593L36 104.018L26.61 104.018L26.61 107.528L25.41 107.528ZM36 90.1873L36 91.6723L33.87 92.4523L33.87 97.7773L36 98.5573L36 100.012L25.41 95.9023L25.41 94.2973L36 90.1873ZM26.685 95.1373L32.67 97.3273L32.67 92.9023L26.685 95.1073L26.685 95.1373ZM30.225 84.4615L30.225 80.0215L34.545 80.0215C35.065 80.5515 35.48 81.1865 35.79 81.9265C36.09 82.6665 36.24 83.4715 36.24 84.3415C36.24 85.3615 36 86.2815 35.52 87.1015C35.04 87.9115 34.38 88.5465 33.54 89.0065C32.69 89.4665 31.74 89.6965 30.69 89.6965C29.67 89.6965 28.74 89.4815 27.9 89.0515C27.06 88.6115 26.395 87.9915 25.905 87.1915C25.415 86.3815 25.17 85.4465 25.17 84.3865C25.17 83.4265 25.36 82.5865 25.74 81.8665C26.12 81.1465 26.765 80.5665 27.675 80.1265L28.155 81.4015C27.535 81.6715 27.085 82.0515 26.805 82.5415C26.515 83.0315 26.37 83.6315 26.37 84.3415C26.37 85.1615 26.56 85.8715 26.94 86.4715C27.31 87.0615 27.825 87.5115 28.485 87.8215C29.135 88.1215 29.87 88.2715 30.69 88.2715C31.54 88.2715 32.295 88.1115 32.955 87.7915C33.605 87.4615 34.115 86.9915 34.485 86.3815C34.855 85.7715 35.04 85.0515 35.04 84.2215C35.04 83.6615 34.95 83.1315 34.77 82.6315C34.58 82.1315 34.33 81.6915 34.02 81.3115L31.425 81.3115L31.425 84.4615L30.225 84.4615ZM31.155 76.3155L34.8 76.3155L34.8 70.3905L36 70.3905L36 77.7405L25.41 77.7405L25.41 70.5254L26.61 70.5254L26.61 76.3155L29.955 76.3155L29.955 71.1554L31.155 71.1554L31.155 76.3155Z" fill="white"/>
<path d="M590.468 156.41C591.558 156.41 592.483 156.635 593.243 157.085C594.013 157.535 594.593 158.16 594.983 158.96C595.383 159.76 595.583 160.68 595.583 161.72C595.583 162.76 595.388 163.68 594.998 164.48C594.618 165.27 594.043 165.89 593.273 166.34C592.503 166.78 591.568 167 590.468 167H586.838V156.41H590.468ZM590.588 165.8C591.778 165.8 592.668 165.425 593.258 164.675C593.858 163.925 594.158 162.94 594.158 161.72C594.158 160.49 593.858 159.5 593.258 158.75C592.658 157.99 591.768 157.61 590.588 157.61H588.263V165.8H590.588ZM603.256 163.595C603.256 164.745 602.976 165.63 602.416 166.25C601.856 166.87 601.076 167.18 600.076 167.18C598.296 167.18 597.161 166.32 596.671 164.6L597.976 164.21C598.126 164.79 598.376 165.23 598.726 165.53C599.076 165.83 599.511 165.98 600.031 165.98C600.581 165.98 601.016 165.775 601.336 165.365C601.666 164.945 601.831 164.35 601.831 163.58V157.595H597.781V156.41H603.256V163.595ZM614.271 167.24C613.321 167.24 612.471 167 611.721 166.52C610.981 166.04 610.401 165.38 609.981 164.54C609.561 163.69 609.351 162.74 609.351 161.69C609.351 160.67 609.556 159.74 609.966 158.9C610.386 158.06 610.976 157.395 611.736 156.905C612.506 156.415 613.396 156.17 614.406 156.17C615.256 156.17 616.056 156.365 616.806 156.755C617.556 157.145 618.151 157.785 618.591 158.675L617.316 159.155C617.056 158.545 616.661 158.095 616.131 157.805C615.611 157.515 615.036 157.37 614.406 157.37C613.656 157.37 613.006 157.56 612.456 157.94C611.906 158.31 611.486 158.82 611.196 159.47C610.916 160.12 610.776 160.86 610.776 161.69C610.776 162.54 610.916 163.295 611.196 163.955C611.476 164.615 611.881 165.13 612.411 165.5C612.941 165.87 613.561 166.055 614.271 166.055C614.891 166.055 615.461 165.91 615.981 165.62C616.511 165.32 616.911 164.865 617.181 164.255L618.471 164.72C618.031 165.61 617.431 166.255 616.671 166.655C615.911 167.045 615.111 167.24 614.271 167.24ZM627.416 160.955V156.41H628.841V167H627.416V162.155H621.866V167H620.441V156.41H621.866V160.955H627.416ZM632.783 167H631.388V156.41H632.783V167ZM642.366 167H635.331V156.41H636.756V165.8H642.366V167ZM651.026 167H643.991V156.41H645.416V165.8H651.026V167ZM604.25 179.815H605.15V181H603.365L600.605 176.77H598.055V181H596.63V170.41H601.34C602 170.41 602.595 170.55 603.125 170.83C603.655 171.11 604.07 171.495 604.37 171.985C604.67 172.465 604.82 173.005 604.82 173.605C604.82 174.375 604.585 175.035 604.115 175.585C603.645 176.125 602.995 176.485 602.165 176.665L604.25 179.815ZM598.055 175.57H601.25C601.91 175.57 602.43 175.395 602.81 175.045C603.2 174.695 603.395 174.22 603.395 173.62C603.395 173.04 603.2 172.56 602.81 172.18C602.42 171.8 601.915 171.61 601.295 171.61H598.055V175.57ZM611.342 181.24C610.372 181.24 609.502 180.995 608.732 180.505C607.962 180.005 607.362 179.335 606.932 178.495C606.502 177.645 606.287 176.71 606.287 175.69C606.287 174.64 606.502 173.695 606.932 172.855C607.362 172.015 607.957 171.36 608.717 170.89C609.487 170.41 610.362 170.17 611.342 170.17C612.322 170.17 613.197 170.41 613.967 170.89C614.737 171.36 615.332 172.015 615.752 172.855C616.182 173.685 616.397 174.63 616.397 175.69C616.397 176.71 616.182 177.645 615.752 178.495C615.322 179.335 614.722 180.005 613.952 180.505C613.192 180.995 612.322 181.24 611.342 181.24ZM611.342 180.04C612.052 180.04 612.682 179.845 613.232 179.455C613.782 179.065 614.207 178.54 614.507 177.88C614.817 177.22 614.972 176.49 614.972 175.69C614.972 174.86 614.822 174.12 614.522 173.47C614.222 172.81 613.797 172.295 613.247 171.925C612.697 171.555 612.062 171.37 611.342 171.37C610.632 171.37 610.002 171.555 609.452 171.925C608.902 172.295 608.472 172.81 608.162 173.47C607.862 174.12 607.712 174.86 607.712 175.69C607.712 176.48 607.862 177.21 608.162 177.88C608.472 178.54 608.902 179.065 609.452 179.455C610.002 179.845 610.632 180.04 611.342 180.04ZM622.742 181.24C621.772 181.24 620.902 180.995 620.132 180.505C619.362 180.005 618.762 179.335 618.332 178.495C617.902 177.645 617.687 176.71 617.687 175.69C617.687 174.64 617.902 173.695 618.332 172.855C618.762 172.015 619.357 171.36 620.117 170.89C620.887 170.41 621.762 170.17 622.742 170.17C623.722 170.17 624.597 170.41 625.367 170.89C626.137 171.36 626.732 172.015 627.152 172.855C627.582 173.685 627.797 174.63 627.797 175.69C627.797 176.71 627.582 177.645 627.152 178.495C626.722 179.335 626.122 180.005 625.352 180.505C624.592 180.995 623.722 181.24 622.742 181.24ZM622.742 180.04C623.452 180.04 624.082 179.845 624.632 179.455C625.182 179.065 625.607 178.54 625.907 177.88C626.217 177.22 626.372 176.49 626.372 175.69C626.372 174.86 626.222 174.12 625.922 173.47C625.622 172.81 625.197 172.295 624.647 171.925C624.097 171.555 623.462 171.37 622.742 171.37C622.032 171.37 621.402 171.555 620.852 171.925C620.302 172.295 619.872 172.81 619.562 173.47C619.262 174.12 619.112 174.86 619.112 175.69C619.112 176.48 619.262 177.21 619.562 177.88C619.872 178.54 620.302 179.065 620.852 179.455C621.402 179.845 622.032 180.04 622.742 180.04ZM631.067 181H629.717V170.41H631.592L635.012 179.2H635.042L638.462 170.41H640.337V181H638.987V172.36H638.957L635.597 181H634.457L631.097 172.36H631.067V181Z" fill="white"/>
<path d="M175.815 305.949L175.815 305.049L177 305.049L177 306.834L172.77 309.594L172.77 312.144L177 312.144L177 313.569L166.41 313.569L166.41 308.859C166.41 308.199 166.55 307.604 166.83 307.074C167.11 306.544 167.495 306.129 167.985 305.829C168.465 305.529 169.005 305.379 169.605 305.379C170.375 305.379 171.035 305.614 171.585 306.084C172.125 306.554 172.485 307.204 172.665 308.034L175.815 305.949ZM171.57 312.144L171.57 308.949C171.57 308.289 171.395 307.769 171.045 307.389C170.695 306.999 170.22 306.804 169.62 306.804C169.04 306.804 168.56 306.999 168.18 307.389C167.8 307.779 167.61 308.284 167.61 308.904L167.61 312.144L171.57 312.144ZM177 294.496L177 295.981L174.87 296.761L174.87 302.086L177 302.866L177 304.321L166.41 300.211L166.41 298.606L177 294.496ZM167.685 299.446L173.67 301.636L173.67 297.211L167.685 299.416L167.685 299.446ZM177 291.85L177 293.2L166.41 293.2L166.41 291.325L175.2 287.905L175.2 287.875L166.41 284.455L166.41 282.58L177 282.58L177 283.93L168.36 283.93L168.36 283.96L177 287.32L177 288.46L168.36 291.82L168.36 291.85L177 291.85ZM166.41 275.617C166.41 274.817 166.565 274.162 166.875 273.652C167.185 273.132 167.585 272.757 168.075 272.527C168.555 272.287 169.075 272.167 169.635 272.167C170.535 272.167 171.295 272.447 171.915 273.007C172.535 273.567 172.845 274.452 172.845 275.662L172.845 278.632L177 278.632L177 280.057L166.41 280.057L166.41 275.617ZM171.645 276.052C171.645 275.122 171.46 274.482 171.09 274.132C170.71 273.772 170.22 273.592 169.62 273.592C169.02 273.592 168.535 273.782 168.165 274.162C167.795 274.532 167.61 275.147 167.61 276.007L167.61 278.632L171.645 278.632L171.645 276.052ZM177.24 262.288C177.24 263.088 177.095 263.803 176.805 264.433C176.505 265.063 176.06 265.558 175.47 265.918C174.88 266.278 174.165 266.458 173.325 266.458L166.41 266.458L166.41 265.033L173.265 265.033C174.195 265.033 174.89 264.788 175.35 264.298C175.81 263.808 176.04 263.138 176.04 262.288C176.04 261.448 175.81 260.788 175.35 260.308C174.89 259.818 174.195 259.573 173.265 259.573L166.41 259.573L166.41 258.148L173.325 258.148C174.165 258.148 174.88 258.328 175.47 258.688C176.06 259.048 176.505 259.543 176.805 260.173C177.095 260.793 177.24 261.498 177.24 262.288ZM166.41 251.275C166.41 250.475 166.565 249.82 166.875 249.31C167.185 248.79 167.585 248.415 168.075 248.185C168.555 247.945 169.075 247.825 169.635 247.825C170.535 247.825 171.295 248.105 171.915 248.665C172.535 249.225 172.845 250.11 172.845 251.32L172.845 254.29L177 254.29L177 255.715L166.41 255.715L166.41 251.275ZM171.645 251.71C171.645 250.78 171.46 250.14 171.09 249.79C170.71 249.43 170.22 249.25 169.62 249.25C169.02 249.25 168.535 249.44 168.165 249.82C167.795 250.19 167.61 250.805 167.61 251.665L167.61 254.29L171.645 254.29L171.645 251.71ZM180.41 304.241L181.61 304.241L181.61 309.851L185 309.851L185 304.961L186.2 304.961L186.2 309.851L191 309.851L191 311.276L180.41 311.276L180.41 304.241ZM191 295.434L191 302.469L180.41 302.469L180.41 301.044L189.8 301.044L189.8 295.434L191 295.434ZM191.24 289.69C191.24 290.66 190.995 291.53 190.505 292.3C190.005 293.07 189.335 293.67 188.495 294.1C187.645 294.53 186.71 294.745 185.69 294.745C184.64 294.745 183.695 294.53 182.855 294.1C182.015 293.67 181.36 293.075 180.89 292.315C180.41 291.545 180.17 290.67 180.17 289.69C180.17 288.71 180.41 287.835 180.89 287.065C181.36 286.295 182.015 285.7 182.855 285.28C183.685 284.85 184.63 284.635 185.69 284.635C186.71 284.635 187.645 284.85 188.495 285.28C189.335 285.71 190.005 286.31 190.505 287.08C190.995 287.84 191.24 288.71 191.24 289.69ZM190.04 289.69C190.04 288.98 189.845 288.35 189.455 287.8C189.065 287.25 188.54 286.825 187.88 286.525C187.22 286.215 186.49 286.06 185.69 286.06C184.86 286.06 184.12 286.21 183.47 286.51C182.81 286.81 182.295 287.235 181.925 287.785C181.555 288.335 181.37 288.97 181.37 289.69C181.37 290.4 181.555 291.03 181.925 291.58C182.295 292.13 182.81 292.56 183.47 292.87C184.12 293.17 184.86 293.32 185.69 293.32C186.48 293.32 187.21 293.17 187.88 292.87C188.54 292.56 189.065 292.13 189.455 291.58C189.845 291.03 190.04 290.4 190.04 289.69ZM191.24 278.29C191.24 279.26 190.995 280.13 190.505 280.9C190.005 281.67 189.335 282.27 188.495 282.7C187.645 283.13 186.71 283.345 185.69 283.345C184.64 283.345 183.695 283.13 182.855 282.7C182.015 282.27 181.36 281.675 180.89 280.915C180.41 280.145 180.17 279.27 180.17 278.29C180.17 277.31 180.41 276.435 180.89 275.665C181.36 274.895 182.015 274.3 182.855 273.88C183.685 273.45 184.63 273.235 185.69 273.235C186.71 273.235 187.645 273.45 188.495 273.88C189.335 274.31 190.005 274.91 190.505 275.68C190.995 276.44 191.24 277.31 191.24 278.29ZM190.04 278.29C190.04 277.58 189.845 276.95 189.455 276.4C189.065 275.85 188.54 275.425 187.88 275.125C187.22 274.815 186.49 274.66 185.69 274.66C184.86 274.66 184.12 274.81 183.47 275.11C182.81 275.41 182.295 275.835 181.925 276.385C181.555 276.935 181.37 277.57 181.37 278.29C181.37 279 181.555 279.63 181.925 280.18C182.295 280.73 182.81 281.16 183.47 281.47C184.12 281.77 184.86 281.92 185.69 281.92C186.48 281.92 187.21 281.77 187.88 281.47C188.54 281.16 189.065 280.73 189.455 280.18C189.845 279.63 190.04 279 190.04 278.29ZM189.815 263.725L189.815 262.825L191 262.825L191 264.61L186.77 267.37L186.77 269.92L191 269.92L191 271.345L180.41 271.345L180.41 266.635C180.41 265.975 180.55 265.38 180.83 264.85C181.11 264.32 181.495 263.905 181.985 263.605C182.465 263.305 183.005 263.155 183.605 263.155C184.375 263.155 185.035 263.39 185.585 263.86C186.125 264.33 186.485 264.98 186.665 265.81L189.815 263.725ZM185.57 269.92L185.57 266.725C185.57 266.065 185.395 265.545 185.045 265.165C184.695 264.775 184.22 264.58 183.62 264.58C183.04 264.58 182.56 264.775 182.18 265.165C181.8 265.555 181.61 266.06 181.61 266.68L181.61 269.92L185.57 269.92ZM191.165 253.855C191.165 254.745 190.965 255.5 190.565 256.12C190.165 256.73 189.55 257.16 188.72 257.41L188.255 256.12C189.445 255.83 190.04 255.075 190.04 253.855C190.04 253.165 189.86 252.615 189.5 252.205C189.13 251.795 188.66 251.59 188.09 251.59C187.3 251.59 186.74 251.82 186.41 252.28C186.07 252.73 185.9 253.26 185.9 253.87L185.9 255.115L184.85 255.115L184.85 254.035C184.85 253.595 184.755 253.23 184.565 252.94C184.375 252.64 184.135 252.42 183.845 252.28C183.555 252.13 183.255 252.055 182.945 252.055C182.495 252.055 182.125 252.215 181.835 252.535C181.535 252.855 181.385 253.275 181.385 253.795C181.385 254.985 182.005 255.705 183.245 255.955L182.765 257.23C181.905 256.99 181.275 256.57 180.875 255.97C180.465 255.36 180.26 254.615 180.26 253.735C180.26 253.135 180.375 252.61 180.605 252.16C180.835 251.7 181.155 251.345 181.565 251.095C181.965 250.845 182.43 250.72 182.96 250.72C183.4 250.72 183.85 250.85 184.31 251.11C184.76 251.37 185.085 251.72 185.285 252.16C185.525 251.49 185.87 251.005 186.32 250.705C186.76 250.395 187.33 250.24 188.03 250.24C188.65 250.24 189.2 250.39 189.68 250.69C190.15 250.98 190.515 251.4 190.775 251.95C191.035 252.49 191.165 253.125 191.165 253.855Z" fill="white"/>
<path d="M492.815 305.949L492.815 305.049L494 305.049L494 306.834L489.77 309.594L489.77 312.144L494 312.144L494 313.569L483.41 313.569L483.41 308.859C483.41 308.199 483.55 307.604 483.83 307.074C484.11 306.544 484.495 306.129 484.985 305.829C485.465 305.529 486.005 305.379 486.605 305.379C487.375 305.379 488.035 305.614 488.585 306.084C489.125 306.554 489.485 307.204 489.665 308.034L492.815 305.949ZM488.57 312.144L488.57 308.949C488.57 308.289 488.395 307.769 488.045 307.389C487.695 306.999 487.22 306.804 486.62 306.804C486.04 306.804 485.56 306.999 485.18 307.389C484.8 307.779 484.61 308.284 484.61 308.904L484.61 312.144L488.57 312.144ZM494 294.496L494 295.981L491.87 296.761L491.87 302.086L494 302.866L494 304.321L483.41 300.211L483.41 298.606L494 294.496ZM484.685 299.446L490.67 301.636L490.67 297.211L484.685 299.416L484.685 299.446ZM494 291.85L494 293.2L483.41 293.2L483.41 291.325L492.2 287.905L492.2 287.875L483.41 284.455L483.41 282.58L494 282.58L494 283.93L485.36 283.93L485.36 283.96L494 287.32L494 288.46L485.36 291.82L485.36 291.85L494 291.85ZM483.41 275.617C483.41 274.817 483.565 274.162 483.875 273.652C484.185 273.132 484.585 272.757 485.075 272.527C485.555 272.287 486.075 272.167 486.635 272.167C487.535 272.167 488.295 272.447 488.915 273.007C489.535 273.567 489.845 274.452 489.845 275.662L489.845 278.632L494 278.632L494 280.057L483.41 280.057L483.41 275.617ZM488.645 276.052C488.645 275.122 488.46 274.482 488.09 274.132C487.71 273.772 487.22 273.592 486.62 273.592C486.02 273.592 485.535 273.782 485.165 274.162C484.795 274.532 484.61 275.147 484.61 276.007L484.61 278.632L488.645 278.632L488.645 276.052ZM494.24 262.288C494.24 263.088 494.095 263.803 493.805 264.433C493.505 265.063 493.06 265.558 492.47 265.918C491.88 266.278 491.165 266.458 490.325 266.458L483.41 266.458L483.41 265.033L490.265 265.033C491.195 265.033 491.89 264.788 492.35 264.298C492.81 263.808 493.04 263.138 493.04 262.288C493.04 261.448 492.81 260.788 492.35 260.308C491.89 259.818 491.195 259.573 490.265 259.573L483.41 259.573L483.41 258.148L490.325 258.148C491.165 258.148 491.88 258.328 492.47 258.688C493.06 259.048 493.505 259.543 493.805 260.173C494.095 260.793 494.24 261.498 494.24 262.288ZM483.41 251.275C483.41 250.475 483.565 249.82 483.875 249.31C484.185 248.79 484.585 248.415 485.075 248.185C485.555 247.945 486.075 247.825 486.635 247.825C487.535 247.825 488.295 248.105 488.915 248.665C489.535 249.225 489.845 250.11 489.845 251.32L489.845 254.29L494 254.29L494 255.715L483.41 255.715L483.41 251.275ZM488.645 251.71C488.645 250.78 488.46 250.14 488.09 249.79C487.71 249.43 487.22 249.25 486.62 249.25C486.02 249.25 485.535 249.44 485.165 249.82C484.795 250.19 484.61 250.805 484.61 251.665L484.61 254.29L488.645 254.29L488.645 251.71ZM497.41 304.256L498.61 304.256L498.61 309.866L502 309.866L502 304.976L503.2 304.976L503.2 309.866L508 309.866L508 311.291L497.41 311.291L497.41 304.256ZM508 295.449L508 302.484L497.41 302.484L497.41 301.059L506.8 301.059L506.8 295.449L508 295.449ZM508.24 289.705C508.24 290.675 507.995 291.545 507.505 292.315C507.005 293.085 506.335 293.685 505.495 294.115C504.645 294.545 503.71 294.76 502.69 294.76C501.64 294.76 500.695 294.545 499.855 294.115C499.015 293.685 498.36 293.09 497.89 292.33C497.41 291.56 497.17 290.685 497.17 289.705C497.17 288.725 497.41 287.85 497.89 287.08C498.36 286.31 499.015 285.715 499.855 285.295C500.685 284.865 501.63 284.65 502.69 284.65C503.71 284.65 504.645 284.865 505.495 285.295C506.335 285.725 507.005 286.325 507.505 287.095C507.995 287.855 508.24 288.725 508.24 289.705ZM507.04 289.705C507.04 288.995 506.845 288.365 506.455 287.815C506.065 287.265 505.54 286.84 504.88 286.54C504.22 286.23 503.49 286.075 502.69 286.075C501.86 286.075 501.12 286.225 500.47 286.525C499.81 286.825 499.295 287.25 498.925 287.8C498.555 288.35 498.37 288.985 498.37 289.705C498.37 290.415 498.555 291.045 498.925 291.595C499.295 292.145 499.81 292.575 500.47 292.885C501.12 293.185 501.86 293.335 502.69 293.335C503.48 293.335 504.21 293.185 504.88 292.885C505.54 292.575 506.065 292.145 506.455 291.595C506.845 291.045 507.04 290.415 507.04 289.705ZM508.24 278.305C508.24 279.275 507.995 280.145 507.505 280.915C507.005 281.685 506.335 282.285 505.495 282.715C504.645 283.145 503.71 283.36 502.69 283.36C501.64 283.36 500.695 283.145 499.855 282.715C499.015 282.285 498.36 281.69 497.89 280.93C497.41 280.16 497.17 279.285 497.17 278.305C497.17 277.325 497.41 276.45 497.89 275.68C498.36 274.91 499.015 274.315 499.855 273.895C500.685 273.465 501.63 273.25 502.69 273.25C503.71 273.25 504.645 273.465 505.495 273.895C506.335 274.325 507.005 274.925 507.505 275.695C507.995 276.455 508.24 277.325 508.24 278.305ZM507.04 278.305C507.04 277.595 506.845 276.965 506.455 276.415C506.065 275.865 505.54 275.44 504.88 275.14C504.22 274.83 503.49 274.675 502.69 274.675C501.86 274.675 501.12 274.825 500.47 275.125C499.81 275.425 499.295 275.85 498.925 276.4C498.555 276.95 498.37 277.585 498.37 278.305C498.37 279.015 498.555 279.645 498.925 280.195C499.295 280.745 499.81 281.175 500.47 281.485C501.12 281.785 501.86 281.935 502.69 281.935C503.48 281.935 504.21 281.785 504.88 281.485C505.54 281.175 506.065 280.745 506.455 280.195C506.845 279.645 507.04 279.015 507.04 278.305ZM506.815 263.74L506.815 262.84L508 262.84L508 264.625L503.77 267.385L503.77 269.935L508 269.935L508 271.36L497.41 271.36L497.41 266.65C497.41 265.99 497.55 265.395 497.83 264.865C498.11 264.335 498.495 263.92 498.985 263.62C499.465 263.32 500.005 263.17 500.605 263.17C501.375 263.17 502.035 263.405 502.585 263.875C503.125 264.345 503.485 264.995 503.665 265.825L506.815 263.74ZM502.57 269.935L502.57 266.74C502.57 266.08 502.395 265.56 502.045 265.18C501.695 264.79 501.22 264.595 500.62 264.595C500.04 264.595 499.56 264.79 499.18 265.18C498.8 265.57 498.61 266.075 498.61 266.695L498.61 269.935L502.57 269.935ZM504.385 251.574L504.385 250.149L505.51 250.149L505.51 251.574L508 251.574L508 252.774L505.51 252.774L505.51 257.454L504.28 257.454L497.275 252.594L497.275 251.574L504.385 251.574ZM499.09 252.774L504.385 256.374L504.385 252.774L499.09 252.774Z" fill="white"/>
<path d="M35.4522 281.815H36.3522V283H34.5672L31.8072 278.77H29.2572V283H27.8322V272.41H32.5422C33.2022 272.41 33.7972 272.55 34.3272 272.83C34.8572 273.11 35.2722 273.495 35.5722 273.985C35.8722 274.465 36.0222 275.005 36.0222 275.605C36.0222 276.375 35.7872 277.035 35.3172 277.585C34.8472 278.125 34.1972 278.485 33.3672 278.665L35.4522 281.815ZM29.2572 277.57H32.4522C33.1122 277.57 33.6322 277.395 34.0122 277.045C34.4022 276.695 34.5972 276.22 34.5972 275.62C34.5972 275.04 34.4022 274.56 34.0122 274.18C33.6222 273.8 33.1172 273.61 32.4972 273.61H29.2572V277.57ZM39.5879 278.155V281.8H45.5129V283H38.1629V272.41H45.3779V273.61H39.5879V276.955H44.7479V278.155H39.5879ZM51.0117 283.24C49.9617 283.24 49.0667 283.035 48.3267 282.625C47.5867 282.205 47.0967 281.57 46.8567 280.72L48.1467 280.255C48.2967 280.875 48.6317 281.325 49.1517 281.605C49.6817 281.885 50.3167 282.025 51.0567 282.025C51.8567 282.025 52.5217 281.875 53.0517 281.575C53.5817 281.265 53.8467 280.8 53.8467 280.18C53.8467 279.75 53.7117 279.4 53.4417 279.13C53.1717 278.86 52.8217 278.65 52.3917 278.5C51.9717 278.35 51.4417 278.21 50.8017 278.08C50.0517 277.93 49.4217 277.76 48.9117 277.57C48.4117 277.38 47.9867 277.09 47.6367 276.7C47.2967 276.31 47.1267 275.795 47.1267 275.155C47.1267 274.515 47.3017 273.97 47.6517 273.52C48.0117 273.07 48.4917 272.735 49.0917 272.515C49.6917 272.285 50.3567 272.17 51.0867 272.17C52.0267 272.17 52.8217 272.375 53.4717 272.785C54.1217 273.185 54.5717 273.815 54.8217 274.675L53.5467 275.155C53.3967 274.495 53.1017 274.035 52.6617 273.775C52.2317 273.505 51.6867 273.37 51.0267 273.37C50.3067 273.37 49.7017 273.51 49.2117 273.79C48.7317 274.06 48.4917 274.48 48.4917 275.05C48.4917 275.43 48.6117 275.735 48.8517 275.965C49.1017 276.195 49.4167 276.375 49.7967 276.505C50.1767 276.625 50.6617 276.735 51.2517 276.835C52.0217 276.975 52.6817 277.15 53.2317 277.36C53.7917 277.57 54.2567 277.9 54.6267 278.35C55.0067 278.79 55.1967 279.375 55.1967 280.105C55.1967 281.115 54.8067 281.89 54.0267 282.43C53.2467 282.97 52.2417 283.24 51.0117 283.24ZM55.8096 272.41H64.2546V273.61H60.7446V283H59.3196V273.61H55.8096V272.41ZM73.2446 281.815H74.1446V283H72.3596L69.5996 278.77H67.0496V283H65.6246V272.41H70.3346C70.9946 272.41 71.5896 272.55 72.1196 272.83C72.6496 273.11 73.0646 273.495 73.3646 273.985C73.6646 274.465 73.8146 275.005 73.8146 275.605C73.8146 276.375 73.5796 277.035 73.1096 277.585C72.6396 278.125 71.9896 278.485 71.1596 278.665L73.2446 281.815ZM67.0496 277.57H70.2446C70.9046 277.57 71.4246 277.395 71.8046 277.045C72.1946 276.695 72.3896 276.22 72.3896 275.62C72.3896 275.04 72.1946 274.56 71.8046 274.18C71.4146 273.8 70.9096 273.61 70.2896 273.61H67.0496V277.57ZM80.337 283.24C79.367 283.24 78.497 282.995 77.727 282.505C76.957 282.005 76.357 281.335 75.927 280.495C75.497 279.645 75.282 278.71 75.282 277.69C75.282 276.64 75.497 275.695 75.927 274.855C76.357 274.015 76.952 273.36 77.712 272.89C78.482 272.41 79.357 272.17 80.337 272.17C81.317 272.17 82.192 272.41 82.962 272.89C83.732 273.36 84.327 274.015 84.747 274.855C85.177 275.685 85.392 276.63 85.392 277.69C85.392 278.71 85.177 279.645 84.747 280.495C84.317 281.335 83.717 282.005 82.947 282.505C82.187 282.995 81.317 283.24 80.337 283.24ZM80.337 282.04C81.047 282.04 81.677 281.845 82.227 281.455C82.777 281.065 83.202 280.54 83.502 279.88C83.812 279.22 83.967 278.49 83.967 277.69C83.967 276.86 83.817 276.12 83.517 275.47C83.217 274.81 82.792 274.295 82.242 273.925C81.692 273.555 81.057 273.37 80.337 273.37C79.627 273.37 78.997 273.555 78.447 273.925C77.897 274.295 77.467 274.81 77.157 275.47C76.857 276.12 76.707 276.86 76.707 277.69C76.707 278.48 76.857 279.21 77.157 279.88C77.467 280.54 77.897 281.065 78.447 281.455C78.997 281.845 79.627 282.04 80.337 282.04ZM91.737 283.24C90.767 283.24 89.897 282.995 89.127 282.505C88.357 282.005 87.757 281.335 87.327 280.495C86.897 279.645 86.682 278.71 86.682 277.69C86.682 276.64 86.897 275.695 87.327 274.855C87.757 274.015 88.352 273.36 89.112 272.89C89.882 272.41 90.757 272.17 91.737 272.17C92.717 272.17 93.592 272.41 94.362 272.89C95.132 273.36 95.727 274.015 96.147 274.855C96.577 275.685 96.792 276.63 96.792 277.69C96.792 278.71 96.577 279.645 96.147 280.495C95.717 281.335 95.117 282.005 94.347 282.505C93.587 282.995 92.717 283.24 91.737 283.24ZM91.737 282.04C92.447 282.04 93.077 281.845 93.627 281.455C94.177 281.065 94.602 280.54 94.902 279.88C95.212 279.22 95.367 278.49 95.367 277.69C95.367 276.86 95.217 276.12 94.917 275.47C94.617 274.81 94.192 274.295 93.642 273.925C93.092 273.555 92.457 273.37 91.737 273.37C91.027 273.37 90.397 273.555 89.847 273.925C89.297 274.295 88.867 274.81 88.557 275.47C88.257 276.12 88.107 276.86 88.107 277.69C88.107 278.48 88.257 279.21 88.557 279.88C88.867 280.54 89.297 281.065 89.847 281.455C90.397 281.845 91.027 282.04 91.737 282.04ZM100.062 283H98.712V272.41H100.587L104.007 281.2H104.037L107.457 272.41H109.332V283H107.982V274.36H107.952L104.592 283H103.452L100.092 274.36H100.062V283ZM115.544 283.24C114.494 283.24 113.599 283.035 112.859 282.625C112.119 282.205 111.629 281.57 111.389 280.72L112.679 280.255C112.829 280.875 113.164 281.325 113.684 281.605C114.214 281.885 114.849 282.025 115.589 282.025C116.389 282.025 117.054 281.875 117.584 281.575C118.114 281.265 118.379 280.8 118.379 280.18C118.379 279.75 118.244 279.4 117.974 279.13C117.704 278.86 117.354 278.65 116.924 278.5C116.504 278.35 115.974 278.21 115.334 278.08C114.584 277.93 113.954 277.76 113.444 277.57C112.944 277.38 112.519 277.09 112.169 276.7C111.829 276.31 111.659 275.795 111.659 275.155C111.659 274.515 111.834 273.97 112.184 273.52C112.544 273.07 113.024 272.735 113.624 272.515C114.224 272.285 114.889 272.17 115.619 272.17C116.559 272.17 117.354 272.375 118.004 272.785C118.654 273.185 119.104 273.815 119.354 274.675L118.079 275.155C117.929 274.495 117.634 274.035 117.194 273.775C116.764 273.505 116.219 273.37 115.559 273.37C114.839 273.37 114.234 273.51 113.744 273.79C113.264 274.06 113.024 274.48 113.024 275.05C113.024 275.43 113.144 275.735 113.384 275.965C113.634 276.195 113.949 276.375 114.329 276.505C114.709 276.625 115.194 276.735 115.784 276.835C116.554 276.975 117.214 277.15 117.764 277.36C118.324 277.57 118.789 277.9 119.159 278.35C119.539 278.79 119.729 279.375 119.729 280.105C119.729 281.115 119.339 281.89 118.559 282.43C117.779 282.97 116.774 283.24 115.544 283.24Z" fill="white"/>
<path fill-rule="evenodd" clip-rule="evenodd" d="M669.999 168.124L665.507 163.747L666.413 162.817L672.08 168.341L672.558 168.807L672.082 169.272L666.438 174.771L665.528 173.838L670.058 169.424L659.651 169.403L659.649 168.103L669.999 168.124Z" fill="white"/>
<defs>
<clipPath id="clip0_5878_2">
<rect width="633.56" height="347.59" fill="white"/>
</clipPath>
<clipPath id="clip1_5878_2">
<rect width="20" height="23" fill="white" transform="translate(352 226)"/>
</clipPath>
</defs>
</svg>
