<svg width="211" height="127" viewBox="0 0 211 127" fill="none" xmlns="http://www.w3.org/2000/svg">
<path d="M203.3 40.3093L208.003 58.7794L189.508 63.4817L190.114 65.8329L210.935 60.5488L205.651 39.7034L203.3 40.3093Z" fill="black"/>
<path d="M146.92 59.8213L142 64.7175V97.028H144.424V65.7356L148.641 61.518L146.92 59.8213Z" fill="black"/>
<path d="M191.69 24.3116H145.636V97.0283H191.69V24.3116Z" fill="white"/>
<path d="M160.179 46.127H157.755V48.5508H160.179V46.127Z" fill="black"/>
<path d="M162.603 48.5504H160.179V50.9743H162.603V48.5504Z" fill="black"/>
<path d="M165.027 50.9744H162.603V53.3982H165.027V50.9744Z" fill="black"/>
<path d="M160.179 50.9744H157.755V53.3982H160.179V50.9744Z" fill="black"/>
<path d="M165.027 46.127H162.603V48.5508H165.027V46.127Z" fill="black"/>
<path d="M174.722 46.127H172.299V48.5508H174.722V46.127Z" fill="black"/>
<path d="M177.147 48.5504H174.723V50.9743H177.147V48.5504Z" fill="black"/>
<path d="M179.57 50.9744H177.146V53.3982H179.57V50.9744Z" fill="black"/>
<path d="M174.722 50.9744H172.299V53.3982H174.722V50.9744Z" fill="black"/>
<path d="M179.57 46.127H177.146V48.5508H179.57V46.127Z" fill="black"/>
<path d="M179.57 58.2463H157.755V60.6702H179.57V58.2463Z" fill="black"/>
<path d="M165.027 97.0284H162.603V126.115H165.027V97.0284Z" fill="black"/>
<path d="M174.722 97.0284H172.299V126.115H174.722V97.0284Z" fill="black"/>
<path d="M166.169 17.3641L165.24 19.603L167.479 20.5316L168.408 18.2927L166.169 17.3641Z" fill="black"/>
<path d="M197.504 30.3636L196.575 32.6025L198.814 33.5312L199.742 31.2922L197.504 30.3636Z" fill="black"/>
<path d="M201.385 8.36241L181.243 0L171.959 22.3967L167.475 20.5303L166.554 22.7603L171.014 24.6267L191.181 32.9891L195.641 34.8313L196.586 32.6013L192.102 30.7349L201.385 8.36241Z" fill="black"/>
<g clip-path="url(#clip0_5835_1264)">
<path d="M83.9078 59.4186L79 64.3022V96.5292H81.4176V65.3176L85.6243 61.1109L83.9078 59.4186Z" fill="black"/>
<path d="M128.489 24.0001H82.5541V96.5291H128.489V24.0001Z" fill="white"/>
<path d="M116.401 57.8474H94.6423V60.265H116.401V57.8474Z" fill="black"/>
<path d="M101.895 96.5291H99.4774V125.541H101.895V96.5291Z" fill="black"/>
<path d="M111.566 96.5291H109.148V125.541H111.566V96.5291Z" fill="black"/>
<path d="M125.419 61.1109L138.861 74.5771L125.419 88.0192L127.111 89.7357L142.27 74.5771L127.111 59.4186L125.419 61.1109Z" fill="black"/>
<path d="M128.464 57.8474H123.097V65.197H128.464V57.8474Z" fill="white"/>
<path d="M128.489 40.9233H126.071H109.148V41.6728V43.341H106.73H104.312H101.895V41.6728V40.9233H84.9713H82.5537H80.136V43.341H82.5537V50.5939H83.7625H84.9713V53.0115H86.1801H87.3889V55.4291H97.0595V53.0115H98.2683H99.4771V50.5939H101.895V48.1762H104.312V45.7586H106.73V48.1762H109.148V50.5939H111.565V53.0115H112.774H113.983V55.4291H123.653V53.0115H124.862H126.071V50.5939H128.489V45.7586H130.906V43.341V40.9233H128.489Z" fill="black"/>
<path d="M87.3902 43.3412H84.9726V45.7588H87.3902V43.3412Z" fill="white"/>
<path d="M89.8073 45.7589H87.3896V48.1765H89.8073V45.7589Z" fill="white"/>
<path d="M113.984 43.3412H111.566V45.7588H113.984V43.3412Z" fill="white"/>
<path d="M116.401 45.7589H113.983V48.1765H116.401V45.7589Z" fill="white"/>
</g>
<path d="M7.63526 39.9978L2.93292 58.4678L21.4272 63.1702L20.8212 65.5214L1.33514e-05 60.2373L5.28409 39.3918L7.63526 39.9978Z" fill="black"/>
<path d="M64.0149 59.5098L68.9354 64.406V96.7164H66.5115V65.4241L62.294 61.2065L64.0149 59.5098Z" fill="black"/>
<path d="M19.2454 24H65.2993V96.7166H19.2454V24Z" fill="white"/>
<path d="M50.756 45.8152H53.1799V48.2391H50.756V45.8152Z" fill="black"/>
<path d="M48.3325 48.2388H50.7564V50.6627H48.3325V48.2388Z" fill="black"/>
<path d="M45.9081 50.6627H48.332V53.0866H45.9081V50.6627Z" fill="black"/>
<path d="M50.756 50.6627H53.1799V53.0866H50.756V50.6627Z" fill="black"/>
<path d="M45.9081 45.8152H48.332V48.2391H45.9081V45.8152Z" fill="black"/>
<path d="M36.213 45.8152H38.6369V48.2391H36.213V45.8152Z" fill="black"/>
<path d="M33.7886 48.2388H36.2125V50.6627H33.7886V48.2388Z" fill="black"/>
<path d="M31.3651 50.6627H33.789V53.0866H31.3651V50.6627Z" fill="black"/>
<path d="M36.213 50.6627H38.6369V53.0866H36.213V50.6627Z" fill="black"/>
<path d="M31.3651 45.8152H33.789V48.2391H31.3651V45.8152Z" fill="black"/>
<path d="M31.3649 57.9346H53.1799V60.3585H31.3649V57.9346Z" fill="black"/>
<path d="M45.9081 96.7168H48.332V125.803H45.9081V96.7168Z" fill="black"/>
<path d="M36.213 96.7168H38.6369V125.803H36.213V96.7168Z" fill="black"/>
<defs>
<clipPath id="clip0_5835_1264">
<rect width="63.2694" height="101.541" fill="white" transform="translate(79 24)"/>
</clipPath>
</defs>
</svg>
