<svg width="1289" height="62" viewBox="0 0 1289 62" fill="none" xmlns="http://www.w3.org/2000/svg">
<path d="M77.5318 33.516V53.928H110.712V60.648H69.5518V1.344H109.956V8.064H77.5318V26.796H106.428V33.516H77.5318Z" fill="black"/>
<path d="M145.189 29.82L166.189 60.648H156.529L140.401 35.784L123.685 60.648H114.697L135.613 29.82L116.461 1.344H126.037L140.485 24.024L155.521 1.344H164.425L145.189 29.82Z" fill="black"/>
<path d="M198.389 1.344C202.869 1.344 206.537 2.212 209.393 3.948C212.305 5.684 214.405 7.924 215.693 10.668C217.037 13.356 217.709 16.268 217.709 19.404C217.709 24.444 216.141 28.7 213.005 32.172C209.869 35.644 204.913 37.38 198.137 37.38H181.505V60.648H173.525V1.344H198.389ZM195.953 30.66C201.161 30.66 204.745 29.624 206.705 27.552C208.721 25.424 209.729 22.68 209.729 19.32C209.729 15.96 208.665 13.244 206.537 11.172C204.465 9.1 201.021 8.064 196.205 8.064H181.505V30.66H195.953Z" fill="black"/>
<path d="M235.399 8.484V24.948H228.259V1.26H263.959V8.484H235.399ZM235.399 32.088V24.948H256.819V32.088H235.399ZM228.259 32.088H235.399V53.508H263.959V60.648H228.259V32.088Z" fill="black"/>
<path d="M318.037 54.012H323.077V60.648H313.081L297.625 36.96H283.345V60.648H275.365V1.344H301.741C305.437 1.344 308.769 2.128 311.737 3.696C314.705 5.264 317.029 7.42 318.709 10.164C320.389 12.852 321.229 15.876 321.229 19.236C321.229 23.548 319.913 27.244 317.281 30.324C314.649 33.348 311.009 35.364 306.361 36.372L318.037 54.012ZM283.345 30.24H301.237C304.933 30.24 307.845 29.26 309.973 27.3C312.157 25.34 313.249 22.68 313.249 19.32C313.249 16.072 312.157 13.384 309.973 11.256C307.789 9.128 304.961 8.064 301.489 8.064H283.345V30.24Z" fill="black"/>
<path d="M341.365 60.648H333.553V1.344H341.365V60.648Z" fill="black"/>
<path d="M363.359 60.648H355.799V1.344H366.299L385.451 50.568H385.619L404.771 1.344H415.271V60.648H407.711V12.264H407.543L388.727 60.648H382.343L363.527 12.264H363.359V60.648Z" fill="black"/>
<path d="M436.537 8.484V1.26H465.097V8.484H436.537ZM429.397 8.484H436.537V24.948H457.957V32.088H436.537V53.508H429.397V8.484ZM436.537 60.648V53.508H465.097V60.648H436.537Z" fill="black"/>
<path d="M516.822 49.728V1.344H524.382V60.648H515.646L484.062 12.348V60.648H476.502V1.344H485.322L516.822 49.728Z" fill="black"/>
<path d="M531.991 1.344H579.283V8.064H559.627V60.648H551.647V8.064H531.991V1.344Z" fill="black"/>
<path d="M642.995 8.484H621.575V1.26H642.995V8.484ZM614.435 8.484H621.575V15.624H614.435V8.484ZM650.135 8.484V15.624H642.995V8.484H650.135ZM614.435 46.368H607.295V15.624H614.435V46.368ZM650.135 15.624H657.275V46.368H650.135V15.624ZM614.435 53.508V46.368H621.575V53.508H614.435ZM650.135 53.508H642.995V46.368H650.135V53.508ZM621.575 53.508H642.995V60.648H621.575V53.508Z" fill="black"/>
<path d="M710.495 49.728V1.344H718.055V60.648H709.319L677.735 12.348V60.648H670.175V1.344H678.995L710.495 49.728Z" fill="black"/>
<path d="M795.579 1.344V8.064H764.163V27.048H791.547V33.768H764.163V60.648H756.183V1.344H795.579Z" fill="black"/>
<path d="M831.93 1.26V8.484H817.651V1.26H831.93ZM817.651 8.484V22.764H810.51V8.484H817.651ZM839.07 22.764H831.93V8.484H839.07V22.764ZM839.07 22.764H846.211V60.648H839.07V46.368H810.51V60.648H803.37V22.764H810.51V39.228H839.07V22.764Z" fill="black"/>
<path d="M868.304 60.648H860.492V1.344H868.304V60.648Z" fill="black"/>
<path d="M925.242 54.012H930.282V60.648H920.286L904.83 36.96H890.55V60.648H882.57V1.344H908.946C912.642 1.344 915.974 2.128 918.942 3.696C921.91 5.264 924.234 7.42 925.914 10.164C927.594 12.852 928.434 15.876 928.434 19.236C928.434 23.548 927.118 27.244 924.486 30.324C921.854 33.348 918.214 35.364 913.566 36.372L925.242 54.012ZM890.55 30.24H908.442C912.138 30.24 915.05 29.26 917.178 27.3C919.362 25.34 920.454 22.68 920.454 19.32C920.454 16.072 919.362 13.384 917.178 11.256C914.994 9.128 912.166 8.064 908.694 8.064H890.55V30.24Z" fill="black"/>
<path d="M965.968 28.308H990.832V52.5C987.864 55.412 984.308 57.736 980.164 59.472C976.02 61.152 971.512 61.992 966.64 61.992C960.928 61.992 955.776 60.648 951.184 57.96C946.648 55.272 943.092 51.576 940.516 46.872C937.94 42.112 936.652 36.792 936.652 30.912C936.652 25.2 937.856 19.992 940.264 15.288C942.728 10.584 946.2 6.86 950.68 4.116C955.216 1.372 960.452 0 966.388 0C971.764 0 976.468 1.064 980.5 3.192C984.532 5.32 987.78 8.932 990.244 14.028L983.104 16.716C981.592 13.244 979.464 10.724 976.72 9.156C973.976 7.532 970.616 6.72 966.64 6.72C962.048 6.72 958.072 7.784 954.712 9.912C951.408 11.984 948.888 14.868 947.152 18.564C945.472 22.204 944.632 26.32 944.632 30.912C944.632 35.672 945.528 39.9 947.32 43.596C949.168 47.236 951.8 50.092 955.216 52.164C958.632 54.236 962.664 55.272 967.312 55.272C970.448 55.272 973.416 54.768 976.216 53.76C979.016 52.696 981.48 51.296 983.608 49.56V35.028H965.968V28.308Z" fill="black"/>
<path d="M1039.31 32.088V39.228H1046.45V60.648H1039.31V46.368H1032.17V39.228H1010.75V60.648H1003.61V1.26H1039.31V8.484H1010.75V32.088H1039.31ZM1039.31 8.484H1046.45V32.088H1039.31V8.484Z" fill="black"/>
<path d="M1085.34 61.992C1079.91 61.992 1075.03 60.62 1070.72 57.876C1066.41 55.076 1063.05 51.324 1060.64 46.62C1058.23 41.86 1057.03 36.624 1057.03 30.912C1057.03 25.032 1058.23 19.74 1060.64 15.036C1063.05 10.332 1066.38 6.664 1070.64 4.032C1074.95 1.344 1079.85 0 1085.34 0C1090.83 0 1095.73 1.344 1100.04 4.032C1104.35 6.664 1107.68 10.332 1110.03 15.036C1112.44 19.684 1113.65 24.976 1113.65 30.912C1113.65 36.624 1112.44 41.86 1110.03 46.62C1107.63 51.324 1104.27 55.076 1099.95 57.876C1095.7 60.62 1090.83 61.992 1085.34 61.992ZM1085.34 55.272C1089.31 55.272 1092.84 54.18 1095.92 51.996C1099 49.812 1101.38 46.872 1103.06 43.176C1104.8 39.48 1105.67 35.392 1105.67 30.912C1105.67 26.264 1104.83 22.12 1103.15 18.48C1101.47 14.784 1099.09 11.9 1096.01 9.828C1092.93 7.756 1089.37 6.72 1085.34 6.72C1081.36 6.72 1077.83 7.756 1074.75 9.828C1071.67 11.9 1069.27 14.784 1067.53 18.48C1065.85 22.12 1065.01 26.264 1065.01 30.912C1065.01 35.336 1065.85 39.424 1067.53 43.176C1069.27 46.872 1071.67 49.812 1074.75 51.996C1077.83 54.18 1081.36 55.272 1085.34 55.272Z" fill="black"/>
<path d="M1147.25 61.992C1142.77 61.992 1138.76 61.18 1135.23 59.556C1131.71 57.876 1128.93 55.384 1126.92 52.08C1124.9 48.776 1123.89 44.772 1123.89 40.068V1.344H1131.87V39.732C1131.87 44.94 1133.25 48.832 1135.99 51.408C1138.73 53.984 1142.49 55.272 1147.25 55.272C1151.95 55.272 1155.65 53.984 1158.33 51.408C1161.08 48.832 1162.45 44.94 1162.45 39.732V1.344H1170.43V40.068C1170.43 44.772 1169.42 48.776 1167.41 52.08C1165.39 55.384 1162.62 57.876 1159.09 59.556C1155.62 61.18 1151.67 61.992 1147.25 61.992Z" fill="black"/>
<path d="M1224.37 49.728V1.344H1231.93V60.648H1223.2L1191.61 12.348V60.648H1184.05V1.344H1192.87L1224.37 49.728Z" fill="black"/>
<path d="M1252.98 53.508H1274.4V60.648H1245.84V1.344H1274.4V8.484H1252.98V53.508ZM1281.54 8.484V15.624H1274.4V8.484H1281.54ZM1281.54 15.624H1288.68V46.368H1281.54V15.624ZM1281.54 53.508H1274.4V46.368H1281.54V53.508Z" fill="black"/>
<g clip-path="url(#clip0_7156_5)">
<path d="M15.3845 9.26074H17.3076V13.0672H15.3845V9.26074Z" fill="black"/>
<path d="M17.3074 7.35767H19.2305V9.26089H17.3074V7.35767Z" fill="black"/>
<path d="M19.2302 5.45447H21.1533V7.35769H19.2302V5.45447Z" fill="black"/>
<path d="M17.3074 3.55127H19.2305V5.4545H17.3074V3.55127Z" fill="black"/>
<path d="M15.3845 1.64795H17.3076V3.55117H15.3845V1.64795Z" fill="black"/>
<path d="M13.4607 3.55127H15.3838V5.4545H13.4607V3.55127Z" fill="black"/>
<path d="M11.5379 5.45447H13.4609V7.35769H11.5379V5.45447Z" fill="black"/>
<path d="M13.4607 7.35767H15.3838V9.26089H13.4607V7.35767Z" fill="black"/>
<path d="M13.4612 13.0673H19.2305V14.9705H13.4612V13.0673Z" fill="black"/>
<path d="M19.2302 14.9705H21.1533V16.8737H19.2302V14.9705Z" fill="black"/>
<path d="M21.1538 16.8738H25V18.777H21.1538V16.8738Z" fill="black"/>
<path d="M25.0008 18.7771H26.9238V20.6803H25.0008V18.7771Z" fill="black"/>
<path d="M26.9236 20.6802H28.8467V24.4866H26.9236V20.6802Z" fill="black"/>
<path d="M28.8465 24.4868H30.7695V26.39H28.8465V24.4868Z" fill="black"/>
<path d="M26.9236 26.3899H28.8467V30.1963H26.9236V26.3899Z" fill="black"/>
<path d="M25.0008 30.1963H26.9238V32.0995H25.0008V30.1963Z" fill="black"/>
<path d="M23.0769 32.0995H25V34.0027H23.0769V32.0995Z" fill="black"/>
<path d="M23.0777 34.0029H26.9238V35.9062H23.0777V34.0029Z" fill="black"/>
<path d="M26.923 35.906H42.3076V37.8092H26.923V35.906Z" fill="black"/>
<path d="M42.3074 34.0029H44.2305V35.9062H42.3074V34.0029Z" fill="black"/>
<path d="M44.2302 32.0996H46.1533V34.0028H44.2302V32.0996Z" fill="black"/>
<path d="M46.1531 30.1963H48.0762V32.0995H46.1531V30.1963Z" fill="black"/>
<path d="M48.0769 32.0995H50V43.5188H48.0769V32.0995Z" fill="black"/>
<path d="M46.1531 41.6157H48.0762V49.2286H46.1531V41.6157Z" fill="black"/>
<path d="M44.2302 47.3252H46.1533V53.0349H44.2302V47.3252Z" fill="black"/>
<path d="M42.3074 51.1318H44.2305V54.9383H42.3074V51.1318Z" fill="black"/>
<path d="M40.3845 54.9382H42.3076V56.8415H40.3845V54.9382Z" fill="black"/>
<path d="M34.6146 56.8414H40.3838V58.7447H34.6146V56.8414Z" fill="black"/>
<path d="M7.69313 58.7448H34.6162V60.648H7.69313V58.7448Z" fill="black"/>
<path d="M5.77005 56.8414H9.61621V58.7447H5.77005V56.8414Z" fill="black"/>
<path d="M3.84645 54.9382H5.76953V56.8415H3.84645V54.9382Z" fill="black"/>
<path d="M1.9236 53.035H3.84668V54.9383H1.9236V53.035Z" fill="black"/>
<path d="M0.000747681 45.4221H1.92383V53.035H0.000747681V45.4221Z" fill="black"/>
<path d="M1.9236 41.6156H3.84668V45.422H1.9236V41.6156Z" fill="black"/>
<path d="M3.84645 37.8091H5.76953V41.6155H3.84645V37.8091Z" fill="black"/>
<path d="M5.76931 35.906H7.69238V37.8092H5.76931V35.906Z" fill="black"/>
<path d="M7.69312 34.0029H9.61621V35.9062H7.69312V34.0029Z" fill="black"/>
<path d="M9.61599 32.0995H11.5391V34.0027H9.61599V32.0995Z" fill="black"/>
<path d="M7.69312 30.1964H9.61621V32.0996H7.69312V30.1964Z" fill="black"/>
<path d="M3.84623 28.293H7.69238V30.1962H3.84623V28.293Z" fill="black"/>
<path d="M0.000518799 26.3899H3.84668V28.2931H0.000518799V26.3899Z" fill="black"/>
<path d="M1.9236 24.4868H3.84668V26.39H1.9236V24.4868Z" fill="black"/>
<path d="M0.000747681 20.6802H1.92383V24.4866H0.000747681V20.6802Z" fill="black"/>
<path d="M1.92338 20.6803H5.76953V22.5835H1.92338V20.6803Z" fill="black"/>
<path d="M5.76931 18.7771H7.69238V20.6803H5.76931V18.7771Z" fill="black"/>
<path d="M7.69291 16.8738H11.5391V18.777H7.69291V16.8738Z" fill="black"/>
<path d="M11.5379 14.9705H13.4609V16.8737H11.5379V14.9705Z" fill="black"/>
<path d="M9.61478 20.6803H13.4609V24.4868H9.61478V20.6803Z" fill="black"/>
<path d="M7.69312 47.3253H9.61621V51.1318H7.69312V47.3253Z" fill="black"/>
<path d="M9.61599 51.1318H11.5391V53.0351H9.61599V51.1318Z" fill="black"/>
<path d="M11.5379 53.035H13.4609V54.9383H11.5379V53.035Z" fill="black"/>
<path d="M15.3841 56.8414H21.1533V58.7447H15.3841V56.8414Z" fill="black"/>
<path d="M13.4607 54.9382H15.3838V56.8415H13.4607V54.9382Z" fill="black"/>
</g>
<defs>
<clipPath id="clip0_7156_5">
<rect width="50" height="59" fill="white" transform="matrix(-1 0 0 1 50 1.64795)"/>
</clipPath>
</defs>
</svg>
