<svg width="212" height="122" viewBox="0 0 212 122" fill="none" xmlns="http://www.w3.org/2000/svg">
<path d="M102 0V21H105V27H108V21H111V27H114V21H117V0H102ZM105 9.00001V6.00001H108V9.00001H105ZM114 9.00001H111V6.00001H114V9.00001Z" fill="black"/>
<path d="M33 95V116H36V122H39V116H42V122H45V116H48V95H33ZM36 104V101H39V104H36ZM45 104H42V101H45V104Z" fill="black"/>
<path d="M185 95V116H188V122H191V116H194V122H197V116H200V95H185ZM188 104V101H191V104H188ZM197 104H194V101H197V104Z" fill="black"/>
<path d="M54 29H170.2V27H54" fill="black"/>
<path d="M53 45H171.2V43H53" fill="black"/>
<path d="M54 122V29H52V122" fill="black"/>
<path d="M172 122V29H170V122" fill="black"/>
<path d="M60 35V33H58V35" fill="black"/>
<path d="M58 33V31H56V33" fill="black"/>
<path d="M64 39V37H62V39" fill="black"/>
<path d="M66 41V39H64V41" fill="black"/>
<path d="M60 37H58V39H60" fill="black"/>
<path d="M58 39H56V41H58" fill="black"/>
<path d="M64 33H62V35H64" fill="black"/>
<path d="M66 31H64V33H66" fill="black"/>
<path d="M62 37V35H60V37" fill="black"/>
<path d="M120 65H116V69H120V65Z" fill="black"/>
<path d="M120 61H116V65H120V61Z" fill="black"/>
<path d="M124 61H120V65H124V61Z" fill="black"/>
<path d="M128 61H124V65H128V61Z" fill="black"/>
<path d="M96 61H92V65H96V61Z" fill="black"/>
<path d="M100 61H96V65H100V61Z" fill="black"/>
<path d="M112 69.0352H108V105.035H112V69.0352Z" fill="black"/>
<path d="M108 69H104V73H108V69Z" fill="black"/>
<path d="M116 69H112V73H116V69Z" fill="black"/>
<path d="M88 85.0352L88 89.0352L92 89.0352L92 85.0352L88 85.0352Z" fill="black"/>
<path d="M88 89.0352L88 93.0352L92 93.0352L92 89.0352L88 89.0352Z" fill="black"/>
<path d="M88 81.0352L88 85.0352L92 85.0352L92 81.0352L88 81.0352Z" fill="black"/>
<path d="M128 85.0352L128 89.0352L132 89.0352L132 85.0352L128 85.0352Z" fill="black"/>
<path d="M128 89.0352L128 93.0352L132 93.0352L132 89.0352L128 89.0352Z" fill="black"/>
<path d="M128 81.0352L128 85.0352L132 85.0352L132 81.0352L128 81.0352Z" fill="black"/>
<path d="M120 69H116V73H120V69Z" fill="black"/>
<path d="M104 65H100V69H104V65Z" fill="black"/>
<path d="M104 61H100V65H104V61Z" fill="black"/>
<path d="M104 69H100V73H104V69Z" fill="black"/>
<path d="M112 101.035H108V105.035H112V101.035Z" fill="black"/>
<path d="M108 101.035H104V105.035H108V101.035Z" fill="black"/>
<path d="M116 101.035H112V105.035H116V101.035Z" fill="black"/>
<path d="M120 101.035H116V105.035H120V101.035Z" fill="black"/>
<path d="M104 101.035H100V105.035H104V101.035Z" fill="black"/>
<path d="M92 73.0352H88V77.0352H92V73.0352Z" fill="black"/>
<path d="M88 73.0352H84V77.0352H88V73.0352Z" fill="black"/>
<path d="M84 73.0352H80V77.0352H84V73.0352Z" fill="black"/>
<path d="M140 73.0352H136V77.0352H140V73.0352Z" fill="black"/>
<path d="M136 73.0352H132V77.0352H136V73.0352Z" fill="black"/>
<path d="M132 73.0352H128V77.0352H132V73.0352Z" fill="black"/>
<path d="M100 73H96V77H100V73Z" fill="black"/>
<path d="M124 73H120V77H124V73Z" fill="black"/>
<path d="M128 77H124V81H128V77Z" fill="black"/>
<path d="M96 77H92V81H96V77Z" fill="black"/>
<path d="M80 77H76V81H80V77Z" fill="black"/>
<path d="M92 97.0352H88V101.035H92V97.0352Z" fill="black"/>
<path d="M88 97.0352H84V101.035H88V97.0352Z" fill="black"/>
<path d="M84 97.0352H80V101.035H84V97.0352Z" fill="black"/>
<path d="M80 101H76V105H80V101Z" fill="black"/>
<path d="M144 77H140V81H144V77Z" fill="black"/>
<path d="M140 97.0352H136V101.035H140V97.0352Z" fill="black"/>
<path d="M136 97.0352H132V101.035H136V97.0352Z" fill="black"/>
<path d="M132 97.0352H128V101.035H132V97.0352Z" fill="black"/>
<path d="M144 101H140V105H144V101Z" fill="black"/>
<path d="M120 101.035L124 101.035L124 97.0352L120 97.0352L120 101.035Z" fill="black"/>
<path d="M96 101.035L100 101.035L100 97.0352L96 97.0352L96 101.035Z" fill="black"/>
<path d="M92 97.0352L96 97.0352L96 93.0352L92 93.0352L92 97.0352Z" fill="black"/>
<path d="M124 97.0352L128 97.0352L128 93.0352L124 93.0352L124 97.0352Z" fill="black"/>
<path d="M20 111V109H18V111" fill="black"/>
<path d="M28 111V109H26V111" fill="black"/>
<path d="M26 109V107H20V109" fill="black"/>
<path d="M26 119H28V117H26" fill="black"/>
<path d="M28 117H30V111H28" fill="black"/>
<path d="M18 117V119H20V117" fill="black"/>
<path d="M20 119V121H26V119" fill="black"/>
<path d="M20 109H18V111H20" fill="black"/>
<path d="M18 111H16V117H18" fill="black"/>
<path d="M4 111V109H2V111" fill="black"/>
<path d="M12 111V109H10V111" fill="black"/>
<path d="M10 109V107H4V109" fill="black"/>
<path d="M10 119H12V117H10" fill="black"/>
<path d="M12 117H14V111H12" fill="black"/>
<path d="M2 117V119H4V117" fill="black"/>
<path d="M4 119V121H10V119" fill="black"/>
<path d="M4 109H2V111H4" fill="black"/>
<path d="M2 111H0V117H2" fill="black"/>
<path d="M202 111V109H200V111" fill="black"/>
<path d="M210 111V109H208V111" fill="black"/>
<path d="M208 109V107H202V109" fill="black"/>
<path d="M208 119H210V117H208" fill="black"/>
<path d="M210 117H212V111H210" fill="black"/>
<path d="M200 117V119H202V117" fill="black"/>
<path d="M202 119V121H208V119" fill="black"/>
<path d="M202 109H200V111H202" fill="black"/>
<path d="M200 111H198V117H200" fill="black"/>
</svg>
