<svg width="20" height="18" fill="none">
  <g clip-path="url(#a)">
    <path fill="#fff" d="M20 9.07a2.19 2.19 0 0 0-3.71-1.57 10.702 10.702 0 0 0-5.85-1.86l1-4.69 3.25.69a1.57 1.57 0 1 0 .16-.76L11.22.1a.39.39 0 0 0-.3.06.35.35 0 0 0-.17.24L9.64 5.64c-2.12.017-4.187.66-5.94 1.85a2.19 2.19 0 1 0-2.41 3.58c-.032.219-.05.44-.05.66 0 3.37 3.92 6.1 8.75 6.1s8.76-2.73 8.76-6.1a4.88 4.88 0 0 0 0-.66 2.198 2.198 0 0 0 1.25-2ZM5 10.63a1.57 1.57 0 1 1 1.57 1.57 1.558 1.558 0 0 1-1.58-1.57H5Zm8.72 4.14c-1.07 1.06-3.11 1.14-3.71 1.14-.6 0-2.65-.08-3.71-1.14a.41.41 0 0 1 .285-.7.399.399 0 0 1 .285.12 5.869 5.869 0 0 0 6.28 0 .401.401 0 0 1 .57 0 .41.41 0 0 1-.04.58h.04Zm-.28-2.57a1.569 1.569 0 1 1 1.57-1.57 1.56 1.56 0 0 1-1.58 1.57h.01Z"/>
  </g>
  <defs>
    <clipPath id="a">
      <path fill="#fff" d="M0 0h20v17.82H0z"/>
    </clipPath>
  </defs>
</svg>
