<svg width="20" height="20" fill="none">
  <g clip-path="url(#a)">
    <path fill="#fff" fill-rule="evenodd" d="M10 0a9.998 9.998 0 0 0-8.56 15.18 10 10 0 0 0 5.4 4.309c.5.09.68-.22.68-.49v-1.7c-2.78.61-3.36-1.34-3.36-1.34a2.689 2.689 0 0 0-1.11-1.46c-.91-.62.06-.61.06-.61a2.112 2.112 0 0 1 1.54 1 2.12 2.12 0 0 0 2.91.83 2.16 2.16 0 0 1 .63-1.33c-2.22-.26-4.55-1.11-4.55-5a3.86 3.86 0 0 1 1-2.68 3.57 3.57 0 0 1 .09-2.65s.84-.26 2.75 1a9.4 9.4 0 0 1 5 0c1.91-1.29 2.75-1 2.75-1 .364.84.4 1.785.1 2.65a3.86 3.86 0 0 1 1 2.68c0 3.85-2.34 4.69-4.57 4.94a2.39 2.39 0 0 1 .68 1.85v2.74c0 .32.18.58.68.49A10 10 0 0 0 9.96-.08L10 0Z" clip-rule="evenodd"/>
  </g>
  <defs>
    <clipPath id="a">
      <path fill="#fff" d="M0 0h20v19.51H0z"/>
    </clipPath>
  </defs>
</svg>
