<svg width="39" height="39" fill="none">
  <g fill="#000" clip-path="url(#a)">
    <path d="M24.62 16.56v-2.05h-2.05v2.05h2.05Zm2.05 0v-2.05h-2.05v2.05h2.05Z"/>
    <path d="M28.72 16.56v-2.05h-2.05v2.05h2.05Zm-12.29-4.1v-2.05h-6.15v2.05h6.15Z"/>
    <path d="M14.38 12.46v-2.05h-2.05v2.05h2.05Z"/>
    <path d="M16.43 12.46v-2.05h-2.05v2.05h2.05Z"/>
    <path d="M16.43 12.46v-2.05h-2.05v2.05h2.05Zm8.19 8.2v-2.05h-2.05v2.05h2.05Zm-6.14 0v-2.05H8.23v2.05h10.25Zm8.19 0v-2.05h-2.05v2.05h2.05Zm-4.1 2.04h-2.05v2.05h2.05V22.7Z"/>
    <path d="M22.57 20.66h-2.05v2.05h2.05v-2.05Zm6.15 0v-2.05h-2.05v2.05h2.05Zm-4.1 6.15v-2.05h-2.05v2.05h2.05Zm2.05 0v-2.05h-2.05v2.05h2.05Zm2.05 0v-2.05h-2.05v2.05h2.05Zm2.05 0V16.56h-2.05v10.25h2.05Zm-12.3 0V12.46h-2.05v14.35h2.05Zm-8.19 0V12.46H8.23v14.35h2.05ZM2.05 2.05H0v34.9h2.05V2.05Zm36.95 0h-2.05v34.9H39V2.05ZM2.05 0v2.05h34.9V0H2.05Zm0 36.95V39h34.9v-2.05H2.05Z"/>
  </g>
  <defs>
    <clipPath id="a">
      <path fill="#000" d="M0 0h39v39H0z"/>
    </clipPath>
  </defs>
</svg>
