<svg width="25" height="25" fill="none" xmlns="http://www.w3.org/2000/svg"><g clip-path="url(#a)"><path d="M18.75 1.69A12.39 12.39 0 0 0 12.5 0a12.5 12.5 0 1 0 0 25c2.196 0 4.353-.583 6.25-1.69A12.46 12.46 0 0 0 25 12.5a12.46 12.46 0 0 0-6.25-10.81Zm-6.25 22a11.21 11.21 0 0 1-11.2-11.2 11.21 11.21 0 0 1 11.2-11.2c1.246 0 2.484.209 3.66.62a13.862 13.862 0 0 0-5 10.58 13.861 13.861 0 0 0 5 10.58 11.078 11.078 0 0 1-3.66.63v-.01Z" fill="#fff"/></g><defs><clipPath id="a"><path fill="#fff" d="M0 0h25v25H0z"/></clipPath></defs></svg>