<svg width="39" height="39" fill="none">
  <g fill="#000" clip-path="url(#a)">
    <path d="M15 10.72h-2.14v4.29H15v-4.29Zm10.72 0h-2.14v4.29h2.14v-4.29ZM4.28 6.43H2.14v10.72h2.14V6.43Zm2.15 10.72H4.29v2.14h2.14v-2.14Zm30-10.72h-2.14v10.72h2.14V6.43Zm-2.14 10.72h-2.14v2.14h2.14v-2.14Zm-12.86 2.14h-15v2.14h25.72v-2.14H21.43Zm-15 8.57v-6.43H4.29v4.29H2.14v-8.57H0v10.71h4.29v10.72H15v-2.15H6.43v-8.57Zm17.14-2.14H15v2.14h8.57v-2.14Zm0 8.57H15v2.14h8.57v-2.14Z"/>
    <path d="M15 27.86h-2.14v6.43H15v-6.43Zm10.72 0h-2.14v6.43h2.14v-6.43Z"/>
    <path d="M36.43 17.15v8.57h-2.14v-4.29h-2.14v15h-8.58v2.15h10.72V27.86h4.29V17.15h-2.15ZM21.44 15h-4.29v2.14h4.29V15Zm-8.58-8.57h21.43V4.29h-6.43V0h-2.14v4.29H12.86V0h-2.14v4.29H4.29v2.14h8.57Z"/>
  </g>
  <defs>
    <clipPath id="a">
      <path fill="#000" d="M0 0h38.58v38.58H0z"/>
    </clipPath>
  </defs>
</svg>
