<svg width="23" height="39" fill="none">
  <path fill="#000" d="M6.171 24.625H4.122v2.05h2.05v-2.05Zm10.254-2.05h-2.049v2.05h2.05v-2.05Zm2.046 2.05h-2.05v2.05h2.05v-2.05Zm.003-6.15h-4.098v2.05h4.098v-2.05Zm2.05 2.05h-2.05v2.05h2.05v-2.05Zm-16.398 0H2.077v2.05h2.05v-2.05ZM2.05 16.426H0v2.05h2.05v-2.05Zm18.474-2.05h-6.148v2.05h6.148v-2.05Zm2.046 2.05h-2.049v2.05h2.05v-2.05ZM10.272 6.15h-2.05V8.2h2.05V6.15Z"/>
  <path fill="#000" d="M16.422 34.9v-2.077h-2.05v-2.05h-2.049v-2.05h2.05v-2.049h-2.05V12.298H22.57V6.15h-2.05V4.1h-2.049V2.05h-2.049V0h-4.099v2.05h2.05V4.1h2.05v2.05h-2.05V4.1h-2.05v6.149H6.176v-6.15h6.147V2.05h-2.049V0H6.176v2.05h-2.05V4.1H2.077v2.05H0v6.149h10.274v2.077H2.077v2.05h8.197v2.05H4.126v2.049h6.148v2.05H6.176v2.05h4.098v2.049h-2.05v2.05h2.05v2.05h-2.05v2.05H6.177V34.9h-2.05V39h4.099v-2.05h2.05V34.9h2.048v2.05h2.05V39h4.098v-4.1h-2.049Z"/>
</svg>
