<svg width="18" height="15" fill="none">
  <g clip-path="url(#a)">
    <path fill="#fff" fill-rule="evenodd" d="M1.26 6.42c4.84-2.113 8.063-3.503 9.67-4.17C15.53.34 16.49.01 17.11 0a.999.999 0 0 1 .64.19.67.67 0 0 1 .24.45 3.07 3.07 0 0 1 0 .65c-.25 2.62-1.33 9-1.88 11.92-.23 1.24-.69 1.65-1.13 1.69-1 .09-1.7-.63-2.63-1.24-1.46-1-2.28-1.55-3.7-2.49-1.63-1.08-.57-1.67.36-2.64.24-.25 4.48-4.11 4.57-4.46a.33.33 0 0 0-.08-.29.35.35 0 0 0-.34 0c-.153 0-2.486 1.54-7 4.62a3.232 3.232 0 0 1-1.8.66 11.49 11.49 0 0 1-2.58-.61c-1-.34-1.86-.51-1.79-1.09.05-.33.46-.63 1.27-.94Z" clip-rule="evenodd"/>
  </g>
  <defs>
    <clipPath id="a">
      <path fill="#fff" d="M0 0h18v14.92H0z"/>
    </clipPath>
  </defs>
</svg>
