<svg width="19" height="15" fill="none">
  <path fill="#000" d="M5.681 14.69c6.827 0 10.552-5.654 10.552-10.55 0-.163 0-.325-.01-.479a7.636 7.636 0 0 0 1.85-1.92 7.373 7.373 0 0 1-2.13.586A3.713 3.713 0 0 0 17.577.27a7.505 7.505 0 0 1-2.354.901A3.706 3.706 0 0 0 8.91 4.554 10.577 10.577 0 0 1 1.255.676a3.606 3.606 0 0 0-.506 1.858c0 1.29.659 2.426 1.65 3.084a3.508 3.508 0 0 1-1.677-.46v.045a3.708 3.708 0 0 0 2.976 3.635c-.315.08-.64.126-.974.126-.234 0-.468-.027-.694-.063a3.723 3.723 0 0 0 3.463 2.579A7.463 7.463 0 0 1 0 13.013a10.354 10.354 0 0 0 5.681 1.677Z"/>
</svg>
