<svg width="52" height="35" fill="none">
  <g fill="#000" clip-path="url(#a)">
    <path d="M2.05 16.4H0v2.05h2.05V16.4Zm2.05-2.05H2.05v2.05H4.1v-2.05Zm2.05-2.05H4.1v2.05h2.05V12.3Zm2.05-2.05H6.15v2.05H8.2v-2.05Zm2.05-2.05H8.2v2.05h2.05V8.2Zm2.05-2.05h-2.05V8.2h2.05V6.15ZM26.81 16.4h-2.05v2.05h2.05V16.4Zm-8.2 14.35h-2.05v4.1h2.05v-4.1Zm2.05-4.1h-2.05v4.1h2.05v-4.1Zm2.05-4.1h-2.05v4.1h2.05v-4.1Z"/>
    <path d="M24.76 18.45h-2.05v4.1h2.05v-4.1Zm4.1-6.15h-2.05v4.1h2.05v-4.1Zm2.05-4.1h-2.05v4.1h2.05V8.2Zm2.05-4.1h-2.05v4.1h2.05V4.1ZM35.01 0h-2.05v4.1h2.05V0ZM10.25 26.65v2.05h2.05v-2.05h-2.05ZM8.2 24.6v2.05h2.05V24.6H8.2Zm-2.05-2.05v2.05H8.2v-2.05H6.15ZM4.1 20.5v2.05h2.05V20.5H4.1Zm0-2.05H2.05v2.05H4.1v-2.05Zm45.26 0h2.05V16.4h-2.05v2.05Zm-2.05 2.05h2.05v-2.05h-2.05v2.05Zm-2.05 2.05h2.05V20.5h-2.05v2.05Zm-2.05 2.05h2.05v-2.05h-2.05v2.05Zm-2.05 2.05h2.05V24.6h-2.05v2.05Zm-2.05 2.05h2.05v-2.05h-2.05v2.05Zm2.05-20.5V6.15h-2.05V8.2h2.05Zm2.05 2.05V8.2h-2.05v2.05h2.05Zm2.04 2.05v-2.05H43.2v2.05h2.05Zm2.05 2.05V12.3h-2.05v2.05h2.05Zm.01 2.05h2.05v-2.05h-2.05v2.05Z"/>
  </g>
  <defs>
    <clipPath id="a">
      <path fill="#000" d="M0 0h51.41v34.85H0z"/>
    </clipPath>
  </defs>
</svg>
