<svg xml:space="preserve" viewBox="0 0 811 547">
  <path d="M0 0v547h811V0H0zm418.5 546C277.9 546 164 432.1 164 291.5S277.9 37 418.5 37 673 150.9 673 291.5 559.1 546 418.5 546z"/>
  <path d="M296.2 527.7H293v3.2h3.2v-3.2zm3.2-3.2h-3.2v3.2h3.2v-3.2zm3.2-3.2h-3.2v3.2h3.2v-3.2zm3.2-3.2h-3.2v3.2h3.2v-3.2zm3.1-3.2h-3.2v3.2h3.2v-3.2zm3.2-3.2h-3.2v3.2h3.2v-3.2zm3.2-3.2h-3.2v3.2h3.2v-3.2zm3.2-3.1h-3.2v3.2h3.2v-3.2zm3.2-3.2h-3.2v3.2h3.2v-3.2zm3.2-3.2h-3.2v3.2h3.2V499zm3.2-3.2h-3.2v3.2h3.2v-3.2zm3.2-3.2h-3.2v3.2h3.2v-3.2zm3.1-3.2h-3.2v3.2h3.2v-3.2zm3.2-3.2h-3.2v3.2h3.2v-3.2zm3.2-3.2h-3.2v3.2h3.2V483zm3.2-3.2h-3.2v3.2h3.2v-3.2zm3.2-3.1H344v3.2h3.2v-3.2zm3.2-3.2h-3.2v3.2h3.2v-3.2zm3.2-3.2h-3.2v3.2h3.2v-3.2zm3.2-3.2h-3.2v3.2h3.2v-3.2zm4.4 21.6H358v3.2h3.2v-3.2zm3.2-3.2h-3.2v3.2h3.2v-3.2zm3.2-3.2h-3.2v3.2h3.2v-3.2zm3.2-3.2h-3.2v3.2h3.2v-3.2zm3.1-3.2h-3.2v3.2h3.2v-3.2zm3.2-3.2h-3.2v3.2h3.2v-3.2zm3.2-3.2h-3.2v3.2h3.2v-3.2zm3.2-3.1h-3.2v3.2h3.2v-3.2zm3.2-3.2h-3.2v3.2h3.2v-3.2zm3.2-3.2h-3.2v3.2h3.2V460zm3.2-3.2h-3.2v3.2h3.2v-3.2zm3.2-3.2h-3.2v3.2h3.2v-3.2zm3.1-3.2h-3.2v3.2h3.2v-3.2zm3.2-3.2h-3.2v3.2h3.2v-3.2zm3.2-3.2h-3.2v3.2h3.2V444zm3.2-3.2h-3.2v3.2h3.2v-3.2zm3.2-3.1H409v3.2h3.2v-3.2zm3.2-3.2h-3.2v3.2h3.2v-3.2zm3.2-3.2h-3.2v3.2h3.2v-3.2zm3.2-3.2h-3.2v3.2h3.2v-3.2zM578.2 57.7H575v3.2h3.2v-3.2zm3.2-3.2h-3.2v3.2h3.2v-3.2zm3.2-3.2h-3.2v3.2h3.2v-3.2z" class="st0"/>
  <path d="M587.8 48.1h-3.2v3.2h3.2v-3.2zm3.1-3.2h-3.2v3.2h3.2v-3.2zm3.2-3.2h-3.2v3.2h3.2v-3.2zm3.2-3.2h-3.2v3.2h3.2v-3.2zm3.2-3.1h-3.2v3.2h3.2v-3.2zm3.2-3.2h-3.2v3.2h3.2v-3.2zm3.2-3.2h-3.2v3.2h3.2V29zm3.2-3.2h-3.2V29h3.2v-3.2zm3.2-3.2h-3.2v3.2h3.2v-3.2zM321.2 219.8H318v3.2h3.2v-3.2zm3.2-3.2h-3.2v3.2h3.2v-3.2zm3.2-3.2h-3.2v3.2h3.2v-3.2zm3.2-3.2h-3.2v3.2h3.2v-3.2zm3.1-3.2h-3.2v3.2h3.2V207zm3.2-3.2h-3.2v3.2h3.2v-3.2zm3.2-3.1h-3.2v3.2h3.2v-3.2zm3.2-3.2h-3.2v3.2h3.2v-3.2zm3.2-3.2h-3.2v3.2h3.2v-3.2zm3.2-3.2h-3.2v3.2h3.2v-3.2zm3.2-3.2h-3.2v3.2h3.2v-3.2zm3.2-3.2h-3.2v3.2h3.2v-3.2zm3.1-3.2h-3.2v3.2h3.2v-3.2zm3.2-3.2h-3.2v3.2h3.2v-3.2zm3.2-3.1h-3.2v3.2h3.2v-3.2zm3.2-3.2h-3.2v3.2h3.2V172zm3.2-3.2H369v3.2h3.2v-3.2zm3.2-3.2h-3.2v3.2h3.2v-3.2zm3.2-3.2h-3.2v3.2h3.2v-3.2zm3.2-3.2h-3.2v3.2h3.2v-3.2zm3.4-3.4H382v3.2h3.2v-3.2zm3.2-3.2h-3.2v3.2h3.2v-3.2zm3.2-3.2h-3.2v3.2h3.2v-3.2zm3.2-3.2h-3.2v3.2h3.2v-3.2zm3.1-3.2h-3.2v3.2h3.2V143zm3.2-3.2h-3.2v3.2h3.2v-3.2zm3.2-3.1h-3.2v3.2h3.2v-3.2zm3.2-3.2h-3.2v3.2h3.2v-3.2zm3.2-3.2h-3.2v3.2h3.2v-3.2zm3.2-3.2h-3.2v3.2h3.2v-3.2zm71.7 16.4h-3.2v3.2h3.2v-3.2zm3.2-3.2v-3.2h-3.2v6.4h3.2v-3.2zm-6.4 6.4H476v3.2h6.4v-3.2zm3.2 3.2h-3.2v3.2h3.2v-3.2zm3.2 3.1h-3.2v6.4h3.2V153z" class="st0"/>
  <path d="M491.9 149.9h-3.2v3.2h3.2v-3.2zm6.4-3.2h-6.4v3.2h6.4v-3.2zm-6.4-3.2h-3.2v3.2h3.2v-3.2zm9.4-9.6h-3.2v3.2h3.2v-3.2zm3.2-3.2h-3.2v3.2h3.2v-3.2zm3.1-3.2h-3.2v3.2h3.2v-3.2zm3.2-3.1h-3.2v3.2h3.2v-3.2zm3.2-3.2h-3.2v3.2h3.2v-3.2zm3.2-3.2H514v3.2h3.2V118zm3.2-3.2h-3.2v3.2h3.2v-3.2zm3.2-3.2h-3.2v3.2h3.2v-3.2zm3.2-3.2h-3.2v3.2h3.2v-3.2zm3.2-3.2h-3.2v3.2h3.2v-3.2zm3.1-3.2H530v3.2h3.2V102z" class="st0"/>
  <path d="M536.3 98.9h-3.2v3.2h3.2v-3.2zm3.2-3.2h-3.2v3.2h3.2v-3.2zm3.2-3.2h-3.2v3.2h3.2v-3.2zm3.2-3.2h-3.2v3.2h3.2v-3.2zm3.2-3.2h-3.2v3.2h3.2v-3.2z" class="st0"/>
  <path d="M552.3 82.9h-3.2v3.2h3.2v-3.2zm3.2-3.2h-3.2v3.2h3.2v-3.2zm3.1-3.2h-3.2v3.2h3.2v-3.2z" class="st0"/>
  <path d="M561.8 73.4h-3.2v3.2h3.2v-3.2zm3.2-3.2h-3.2v3.2h3.2v-3.2zm3.2-3.2H565v3.2h3.2V67zm3.2-3.2h-3.2V67h3.2v-3.2zm3.2-3.2h-3.2v3.2h3.2v-3.2zM9.6 423H6.4v3.2h3.2V423zm3.2-3.2v-3.2H9.6v6.4h3.2v-3.2zm-6.4 6.4H0v3.2h6.4v-3.2zm3.2 3.2H6.4v3.2h3.2v-3.2z" class="st0"/>
  <path d="M12.8 432.5H9.6v6.4h3.2v-6.4z" class="st0"/>
  <path d="M15.9 429.4h-3.2v3.2h3.2v-3.2zm6.4-3.2h-6.4v3.2h6.4v-3.2zm-6.4-3.2h-3.2v3.2h3.2V423zm9.4-9.6h-3.2v3.2h3.2v-3.2zm3.2-3.2h-3.2v3.2h3.2v-3.2zm3.1-3.2h-3.2v3.2h3.2V407z" class="st0"/>
  <path d="M34.8 403.9h-3.2v3.2h3.2v-3.2zm3.2-3.2h-3.2v3.2H38v-3.2zm3.2-3.2H38v3.2h3.2v-3.2zm3.2-3.2h-3.2v3.2h3.2v-3.2zm3.2-3.2h-3.2v3.2h3.2v-3.2zm3.2-3.2h-3.2v3.2h3.2v-3.2zm3.2-3.2h-3.2v3.2H54v-3.2zm3.1-3.2H54v3.2h3.2v-3.2z" class="st0"/>
  <path d="M60.3 378.4h-3.2v3.2h3.2v-3.2zm3.2-3.2h-3.2v3.2h3.2v-3.2zm3.2-3.2h-3.2v3.2h3.2V372zm3.2-3.2h-3.2v3.2h3.2v-3.2zm3.2-3.2h-3.2v3.2h3.2v-3.2zm3.2-3.2h-3.2v3.2h3.2v-3.2zm3.2-3.2h-3.2v3.2h3.2v-3.2zm3.1-3.2h-3.2v3.2h3.2V356zm3.2-3.2h-3.2v3.2h3.2v-3.2zm3.2-3.1h-3.2v3.2H89v-3.2zm3.2-3.2H89v3.2h3.2v-3.2zm3.2-3.2h-3.2v3.2h3.2v-3.2zm3.2-3.2h-3.2v3.2h3.2v-3.2zm699 21.4h-3.2v3.2h3.2v-3.2zm3.2-3.2v-3.2h-3.2v6.4h3.2v-3.2zm-6.4 6.4H788v3.2h6.4v-3.2zm3.2 3.1h-3.2v3.2h3.2v-3.2zm3.2 3.2h-3.2v6.4h3.2V371zm3.1-3.2h-3.2v3.2h3.2v-3.2zm6.4-3.1h-6.4v3.2h6.4v-3.2zm-6.4-3.2h-3.2v3.2h3.2v-3.2zM280.2 540.3H277v3.2h3.2v-3.2zm3.2-3.2h-3.2v3.2h3.2v-3.2zm0 6.4h-3.2v3.2h3.2v-3.2zm3.2-3.2h-3.2v3.2h3.2v-3.2zm-111.4-414H172v3.2h3.2v-3.2zm3.2-3.2h-3.2v3.2h3.2v-3.2zm0 6.4h-3.2v3.2h3.2v-3.2zm3.2-3.2h-3.2v3.2h3.2v-3.2zm144.6-123H323v3.2h3.2V3.3zm3.2-3.2h-3.2v3.2h3.2V.1zm0 6.4h-3.2v3.2h3.2V6.5zm3.2-3.2h-3.2v3.2h3.2V3.3zm300.6 474H630v3.2h3.2v-3.2zm3.2-3.2h-3.2v3.2h3.2v-3.2zm0 6.4h-3.2v3.2h3.2v-3.2zm3.2-3.2h-3.2v3.2h3.2v-3.2zm54.6-317H691v3.2h3.2v-3.2zm3.2-3.2h-3.2v3.2h3.2v-3.2zm0 6.4h-3.2v3.2h3.2v-3.2zm3.2-3.2h-3.2v3.2h3.2v-3.2zm-384.4 271H313v3.2h3.2v-3.2zm3.2-3.2h-3.2v3.2h3.2v-3.2zm0 6.4h-3.2v3.2h3.2v-3.2zm3.2-3.2h-3.2v3.2h3.2v-3.2z" class="st0"/>
</svg>
