<svg width="580" height="183" viewBox="0 0 580 183" fill="none" xmlns="http://www.w3.org/2000/svg">
<path d="M231.441 34.441H230V35.8822H231.441V34.441Z" fill="currentColor"/>
<path d="M232.882 33H231.441V34.4412H232.882V33Z" fill="currentColor"/>
<path d="M232.883 35.8817H231.441V37.3229H232.883V35.8817Z" fill="currentColor"/>
<path d="M234.324 34.4407H232.883V35.8819H234.324V34.4407Z" fill="currentColor"/>
<path d="M157.67 168.299H156.229V169.74H157.67V168.299Z" fill="currentColor"/>
<path d="M159.111 166.858H157.669V168.299H159.111V166.858Z" fill="currentColor"/>
<path d="M159.111 169.74H157.67V171.181H159.111V169.74Z" fill="currentColor"/>
<path d="M160.552 168.299H159.111V169.74H160.552V168.299Z" fill="currentColor"/>
<path d="M448.679 26.2581H447.238V27.6993H448.679V26.2581Z" fill="currentColor"/>
<path d="M450.121 24.817H448.679V26.2582H450.121V24.817Z" fill="currentColor"/>
<path d="M450.121 27.6993H448.68V29.1406H450.121V27.6993Z" fill="currentColor"/>
<path d="M451.562 26.2583H450.121V27.6995H451.562V26.2583Z" fill="currentColor"/>
<path d="M398.363 176.702H396.921V178.143H398.363V176.702Z" fill="currentColor"/>
<path d="M399.804 175.26H398.363V176.702H399.804V175.26Z" fill="currentColor"/>
<path d="M399.803 178.142H398.362V179.583H399.803V178.142Z" fill="currentColor"/>
<path d="M401.244 176.701H399.803V178.142H401.244V176.701Z" fill="currentColor"/>
<path d="M188.509 151.234H186.865V152.879H188.509V151.234Z" fill="currentColor"/>
<path d="M190.154 149.59V147.945H188.509V149.59V151.235H190.154V149.59Z" fill="currentColor"/>
<path d="M186.865 152.879H183.575V154.524H186.865V152.879Z" fill="currentColor"/>
<path d="M188.509 154.524H186.865V156.169H188.509V154.524Z" fill="currentColor"/>
<path d="M190.154 156.169H188.509V159.458H190.154V156.169Z" fill="currentColor"/>
<path d="M191.799 154.524H190.155V156.169H191.799V154.524Z" fill="currentColor"/>
<path d="M195.089 152.879H191.799V154.524H195.089V152.879Z" fill="currentColor"/>
<path d="M191.799 151.234H190.155V152.879H191.799V151.234Z" fill="currentColor"/>
<path d="M28.934 30.2893H27.2893V31.934H28.934V30.2893Z" fill="currentColor"/>
<path d="M30.5791 28.6447V27H28.9343V28.6447V30.2894H30.5791V28.6447Z" fill="currentColor"/>
<path d="M27.2894 31.934H24V33.5787H27.2894V31.934Z" fill="currentColor"/>
<path d="M28.934 33.5787H27.2893V35.2235H28.934V33.5787Z" fill="currentColor"/>
<path d="M30.5791 35.2236H28.9343V38.5131H30.5791V35.2236Z" fill="currentColor"/>
<path d="M32.2238 33.5787H30.5791V35.2235H32.2238V33.5787Z" fill="currentColor"/>
<path d="M35.5131 31.934H32.2236V33.5787H35.5131V31.934Z" fill="currentColor"/>
<path d="M32.2238 30.2893H30.5791V31.934H32.2238V30.2893Z" fill="currentColor"/>
<path d="M432.934 16.2893H431.289V17.934H432.934V16.2893Z" fill="currentColor"/>
<path d="M434.579 14.6447V13H432.934V14.6447V16.2894H434.579V14.6447Z" fill="currentColor"/>
<path d="M431.289 17.9342H428V19.5789H431.289V17.9342Z" fill="currentColor"/>
<path d="M432.934 19.5787H431.289V21.2235H432.934V19.5787Z" fill="currentColor"/>
<path d="M434.579 21.2236H432.934V24.5131H434.579V21.2236Z" fill="currentColor"/>
<path d="M436.224 19.5787H434.579V21.2235H436.224V19.5787Z" fill="currentColor"/>
<path d="M439.513 17.9342H436.224V19.5789H439.513V17.9342Z" fill="currentColor"/>
<path d="M436.224 16.2893H434.579V17.934H436.224V16.2893Z" fill="currentColor"/>
<path d="M542.728 111.223H541.083V112.868H542.728V111.223Z" fill="currentColor"/>
<path d="M544.372 109.579H542.728V111.223H544.372V109.579Z" fill="currentColor"/>
<path d="M546.017 107.934H544.372V109.579H546.017V107.934Z" fill="currentColor"/>
<path d="M547.661 106.29H546.016V107.934H547.661V106.29Z" fill="currentColor"/>
<path d="M549.306 104.645H547.661V106.289H549.306V104.645Z" fill="currentColor"/>
<path d="M550.951 103H549.306V104.645H550.951V103Z" fill="currentColor"/>
<path d="M494.934 155.502H493.289V157.146H494.934V155.502Z" fill="currentColor"/>
<path d="M496.579 153.857V152.212H494.934V153.857V155.502H496.579V153.857Z" fill="currentColor"/>
<path d="M493.289 157.147H490V158.791H493.289V157.147Z" fill="currentColor"/>
<path d="M494.934 158.791H493.289V160.436H494.934V158.791Z" fill="currentColor"/>
<path d="M496.579 160.436H494.934V163.725H496.579V160.436Z" fill="currentColor"/>
<path d="M498.224 158.791H496.579V160.436H498.224V158.791Z" fill="currentColor"/>
<path d="M501.513 157.147H498.224V158.791H501.513V157.147Z" fill="currentColor"/>
<path d="M498.224 155.502H496.579V157.146H498.224V155.502Z" fill="currentColor"/>
<path d="M503.038 150.567H501.393V152.212H503.038V150.567Z" fill="currentColor"/>
<path d="M504.682 148.923H503.038V150.567H504.682V148.923Z" fill="currentColor"/>
<path d="M506.326 147.278H504.682V148.922H506.326V147.278Z" fill="currentColor"/>
<path d="M507.971 145.633H506.326V147.278H507.971V145.633Z" fill="currentColor"/>
<path d="M509.617 143.989H507.972V145.633H509.617V143.989Z" fill="currentColor"/>
<path d="M511.262 142.344H509.617V143.989H511.262V142.344Z" fill="currentColor"/>
<path d="M512.905 140.699H511.261V142.344H512.905V140.699Z" fill="currentColor"/>
<path d="M514.55 139.054H512.905V140.699H514.55V139.054Z" fill="currentColor"/>
<path d="M516.195 137.409H514.55V139.054H516.195V137.409Z" fill="currentColor"/>
<path d="M517.839 135.765H516.195V137.409H517.839V135.765Z" fill="currentColor"/>
<path d="M519.485 134.12H517.84V135.765H519.485V134.12Z" fill="currentColor"/>
<path d="M521.129 132.475H519.484V134.12H521.129V132.475Z" fill="currentColor"/>
<path d="M522.774 130.83H521.129V132.475H522.774V130.83Z" fill="currentColor"/>
<path d="M524.418 129.186H522.774V130.831H524.418V129.186Z" fill="currentColor"/>
<path d="M526.064 127.541H524.419V129.186H526.064V127.541Z" fill="currentColor"/>
<path d="M527.708 125.897H526.063V127.541H527.708V125.897Z" fill="currentColor"/>
<path d="M529.353 124.252H527.708V125.896H529.353V124.252Z" fill="currentColor"/>
<path d="M530.997 122.607H529.353V124.252H530.997V122.607Z" fill="currentColor"/>
<path d="M532.642 120.962H530.998V122.607H532.642V120.962Z" fill="currentColor"/>
<path d="M534.287 119.318H532.642V120.962H534.287V119.318Z" fill="currentColor"/>
<path d="M535.932 117.673H534.287V119.318H535.932V117.673Z" fill="currentColor"/>
<path d="M537.577 116.028H535.932V117.673H537.577V116.028Z" fill="currentColor"/>
<path d="M539.221 114.383H537.577V116.028H539.221V114.383Z" fill="currentColor"/>
<path d="M540.866 112.739H539.221V114.383H540.866V112.739Z" fill="currentColor"/>
<g clip-path="url(#clip0_794_30252)">
<path d="M56.7491 57.7051H55.3079V59.1463H56.7491V57.7051Z" fill="currentColor"/>
<path d="M58.19 56.264H56.7488V57.7052H58.19V56.264Z" fill="currentColor"/>
<path d="M58.1893 59.1464H56.748V60.5876H58.1893V59.1464Z" fill="currentColor"/>
<path d="M59.6302 57.7053H58.189V59.1465H59.6302V57.7053Z" fill="currentColor"/>
</g>
<path d="M62.6264 52.9434H60.9817V54.5881H62.6264V52.9434Z" fill="currentColor"/>
<path d="M64.2709 51.2987H62.6262V52.9434H64.2709V51.2987Z" fill="currentColor"/>
<path d="M65.9157 49.6539H64.271V51.2987H65.9157V49.6539Z" fill="currentColor"/>
<path d="M67.5605 48.0093H65.9158V49.654H67.5605V48.0093Z" fill="currentColor"/>
<path d="M69.2055 46.3644H67.5608V48.0091H69.2055V46.3644Z" fill="currentColor"/>
<path d="M70.85 44.7197H69.2053V46.3645H70.85V44.7197Z" fill="currentColor"/>
<path d="M72.4948 43.0748H70.8501V44.7196H72.4948V43.0748Z" fill="currentColor"/>
<path d="M74.1396 41.4302H72.4949V43.0749H74.1396V41.4302Z" fill="currentColor"/>
<path d="M75.7846 39.786H74.1399V41.4307H75.7846V39.786Z" fill="currentColor"/>
<path d="M77.4291 38.1414H75.7844V39.7861H77.4291V38.1414Z" fill="currentColor"/>
<path d="M79.0739 36.4961H77.4292V38.1408H79.0739V36.4961Z" fill="currentColor"/>
<path d="M80.7185 34.8514H79.0737V36.4962H80.7185V34.8514Z" fill="currentColor"/>
<path d="M82.3632 33.2068H80.7185V34.8515H82.3632V33.2068Z" fill="currentColor"/>
<path d="M84.008 31.5621H82.3633V33.2069H84.008V31.5621Z" fill="currentColor"/>
<path d="M85.653 29.9175H84.0083V31.5622H85.653V29.9175Z" fill="currentColor"/>
<path d="M87.2976 28.2728H85.6528V29.9176H87.2976V28.2728Z" fill="currentColor"/>
<path d="M88.9423 26.6277H87.2976V28.2724H88.9423V26.6277Z" fill="currentColor"/>
<path d="M90.5871 24.983H88.9424V26.6278H90.5871V24.983Z" fill="currentColor"/>
<path d="M92.2321 23.3384H90.5874V24.9831H92.2321V23.3384Z" fill="currentColor"/>
<path d="M93.8767 21.6937H92.2319V23.3384H93.8767V21.6937Z" fill="currentColor"/>
<defs>
<clipPath id="clip0_794_30252">
<rect width="4.32363" height="4.32363" fill="currentColor" transform="translate(55.3066 56.2644)"/>
</clipPath>
</defs>
</svg>
