<svg xml:space="preserve" viewBox="0 0 490 652.6">
  <path d="M0 0v652.6h490V0H0zm298.1 629.3c-20.6 9.1-53.1 15.2-65.3 15.2v-.1c-121.5 0-145.4-71.5-170.8-200.1-11-56-51.8-103.7-51.8-198.8C10.2-8.8 232.8 8.4 232.8 8.4c149.2 0 121.2 180.9 118.3 202-2.7 19.7-5.5 41-1 72.4 4.3 29.9 18.1 53 31.8 76 16.1 26.9 32.1 53.8 32.9 91.6 1.5 71.8-48.3 148.3-116.7 178.9zM466.7 396c-11.6 1-17.2-7.6-23.9-17.9-5.6-8.6-12-18.3-23.3-24.8-24.8-14.2-33.9-45.4-17.3-59.2 16.5-13.8 43.6-12.5 61.1 8.7 17.6 21.2 24.6 91.4 3.4 93.2z"/>
</svg>
