<svg width="111" height="24" viewBox="0 0 111 24" fill="none" xmlns="http://www.w3.org/2000/svg">
<g clip-path="url(#clip0_5179_2109)">
<path d="M10.3711 20.7941L17.1825 0.0192871H20.603L12.167 23.9844H8.47084L0 0.0192871H3.47933L10.3711 20.7941Z" fill="white"/>
<path d="M34.9939 13.0188V21.2681H48.376V23.9839H31.7822V0.0187988H48.0816V2.73462H34.9939V10.311H46.6524V13.0188H34.9939Z" fill="white"/>
<path d="M61.2495 2.91957H64.1293V21.1153H61.2495V2.91957ZM75.6539 0V2.91957H64.1293V0H75.6539ZM64.1293 24V21.1153H75.6539V24H64.1293ZM78.5338 21.1153H75.6539V15.3458H69.8916V12.4558H78.5338V21.1153ZM78.5338 2.91957V5.80429H75.6539V2.91957H78.5338Z" fill="white"/>
<path d="M110.71 23.9839H107.356L105.593 19.1582H93.5621L91.8011 23.9839H88.5225L97.8069 0.0187988H101.433L110.71 23.9839ZM99.5279 2.90352L94.5792 16.4478H104.581L99.5974 2.90352H99.5279Z" fill="white"/>
</g>
<defs>
<clipPath id="clip0_5179_2109">
<rect width="110.71" height="24" fill="white"/>
</clipPath>
</defs>
</svg>
