<svg width="21" height="21" viewBox="0 0 21 21" fill="none" xmlns="http://www.w3.org/2000/svg">
<path d="M19.4449 0H1.54832C0.693827 0 0 0.677774 0 1.51326V19.4859C0 20.3235 0.693827 21 1.54832 21H19.4449C20.3007 21 21 20.3231 21 19.4859V1.51326C21 0.677774 20.3007 0 19.4449 0ZM6.22964 17.8953H3.11144V7.87368H6.22964V17.8953ZM4.67118 6.50291C3.67081 6.50291 2.8641 5.69406 2.8641 4.69664C2.8641 3.70091 3.67081 2.89122 4.67118 2.89122C5.66689 2.89122 6.47699 3.70091 6.47699 4.69664C6.47699 5.69406 5.66689 6.50291 4.67118 6.50291ZM17.8932 17.8953H14.7818V13.0223C14.7818 11.8591 14.7589 10.3649 13.1628 10.3649C11.5414 10.3649 11.2945 11.63 11.2945 12.9369V17.8953H8.18301V7.87368H11.1693V9.24276H11.2116C11.6276 8.45505 12.6436 7.62422 14.159 7.62422C17.3114 7.62422 17.8936 9.6994 17.8936 12.3991V17.8953H17.8932Z" fill="white"/>
</svg>
