<svg width="21" height="21" viewBox="0 0 21 21" fill="none" xmlns="http://www.w3.org/2000/svg">
<path d="M0 0V21H21V0H0ZM17.4462 4.97538L16.3197 6.05554C16.2228 6.12985 16.1743 6.25154 16.1948 6.37108V14.3048C16.1743 14.4254 16.2228 14.5471 16.3197 14.6214L17.4192 15.7015V15.9385H11.8871V15.7015L13.0265 14.5955C13.1385 14.4835 13.1385 14.4502 13.1385 14.2789V7.86585L9.97015 15.9115H9.54154L5.85415 7.86585V13.258C5.82292 13.4842 5.89831 13.7125 6.05877 13.8772L7.54062 15.6746V15.9115H3.33846V15.6746L4.82031 13.8772C4.97862 13.7135 5.04969 13.4831 5.01092 13.258V7.02262C5.02815 6.84923 4.96246 6.678 4.83323 6.56169L3.51615 4.97538V4.73846H7.60631L10.7682 11.6717L13.5466 4.73846H17.4462V4.97538Z" fill="white"/>
</svg>
