<svg width="27" height="21" viewBox="0 0 27 21" fill="none" xmlns="http://www.w3.org/2000/svg">
<path d="M8.51321 21C18.6859 21 24.2618 12.9243 24.2618 5.9137C24.2618 5.69114 24.2618 5.45269 24.2452 5.23013C25.3239 4.48297 26.2698 3.54504 27 2.47994C26.0043 2.90916 24.9422 3.17941 23.8304 3.30659C24.9754 2.65481 25.8549 1.6056 26.2698 0.381529C25.2077 0.985617 24.0129 1.43073 22.7517 1.66919C21.7394 0.635882 20.3122 0 18.7191 0C15.6656 0 13.193 2.36866 13.193 5.29372C13.193 5.70704 13.2428 6.12036 13.3423 6.50189C8.71235 6.29523 4.62999 4.19682 1.90842 0.985617C1.42717 1.76457 1.16165 2.6866 1.16165 3.65632C1.16165 5.50038 2.14075 7.12188 3.6177 8.0598C2.70498 8.02801 1.85864 7.78955 1.11186 7.39213C1.11186 7.40802 1.11186 7.43982 1.11186 7.45571C1.11186 10.0151 3.02028 12.1612 5.54272 12.654C5.07806 12.7812 4.5968 12.8448 4.08236 12.8448C3.73387 12.8448 3.38537 12.813 3.03688 12.7494C3.73387 14.8478 5.79164 16.3899 8.19791 16.4375C6.30608 17.8524 3.91641 18.7108 1.3276 18.7108C0.879533 18.7108 0.448064 18.679 0 18.6313C2.47265 20.1257 5.39336 21 8.51321 21Z" fill="#F6F6F6"/>
</svg>
