<svg width="30" height="30" viewBox="0 0 30 30" fill="none" xmlns="http://www.w3.org/2000/svg">
<rect x="28" y="2" width="2" height="26" fill="#8B8B8B"/>
<rect y="2" width="2" height="26" fill="#8B8B8B"/>
<rect x="28" width="2" height="26" transform="rotate(90 28 0)" fill="#8B8B8B"/>
<rect x="28" y="28" width="2" height="26" transform="rotate(90 28 28)" fill="#8B8B8B"/>
<path d="M21.0611 9.20001C19.8301 8.62999 18.5286 8.22643 17.191 8H17.1314C16.9531 8.3242 16.7923 8.65804 16.651 9C15.2127 8.77997 13.7494 8.77997 12.3111 9C12.1811 8.69 11.9809 8.31 11.8209 8H11.7516C10.4176 8.22798 9.11931 8.6315 7.89121 9.20001C5.69135 12.3511 4.69477 16.1865 5.08164 20.01C6.51504 21.0715 8.1169 21.883 9.82089 22.41H9.89121C10.2682 21.9123 10.6027 21.3837 10.8912 20.83V20.74C10.3787 20.5495 9.8841 20.3153 9.41171 20.04V19.94L9.70175 19.7H9.77109C11.2634 20.4017 12.8926 20.7655 14.5416 20.7655C16.1906 20.7655 17.8188 20.4017 19.3111 19.7H19.3814L19.6715 19.94V20.04C19.1946 20.3134 18.6961 20.5475 18.1812 20.74V20.83C18.475 21.3775 18.8093 21.9023 19.1812 22.4H19.2516C20.9588 21.8733 22.5647 21.0618 24.0016 20C24.4045 16.1722 23.4056 12.328 21.191 9.17999L21.0611 9.20001ZM11.3209 17.88C10.8543 17.8215 10.425 17.5946 10.1139 17.242C9.8027 16.8894 9.63144 16.4353 9.63144 15.965C9.63144 15.4948 9.8027 15.0407 10.1139 14.688C10.425 14.3354 10.8543 14.1085 11.3209 14.05C11.7875 14.1085 12.2168 14.3354 12.5279 14.688C12.8391 15.0407 13.0113 15.4948 13.0113 15.965C13.0113 16.4353 12.8391 16.8894 12.5279 17.242C12.2168 17.5946 11.7875 17.8215 11.3209 17.88ZM17.6412 17.88C17.1746 17.8215 16.7453 17.5946 16.4342 17.242C16.123 16.8894 15.9518 16.4353 15.9518 15.965C15.9518 15.4948 16.123 15.0407 16.4342 14.688C16.7453 14.3354 17.1746 14.1085 17.6412 14.05C18.1078 14.1085 18.5371 14.3354 18.8482 14.688C19.1594 15.0407 19.3307 15.4948 19.3307 15.965C19.3307 16.4353 19.1594 16.8894 18.8482 17.242C18.5371 17.5946 18.1078 17.8215 17.6412 17.88Z" fill="#8B8B8B"/>
</svg>
