<svg width="30" height="30" viewBox="0 0 30 30" fill="none" xmlns="http://www.w3.org/2000/svg">
<g clip-path="url(#clip0_1981_1404)">
<path d="M22 7H18V9H22V7Z" fill="#8B8B8B"/>
<path d="M22 13H18V15H22V13Z" fill="#8B8B8B"/>
<path d="M24 17H16V19H24V17Z" fill="#8B8B8B"/>
<path d="M24 9H22V13H24V9Z" fill="#8B8B8B"/>
<path d="M18 9H16V13H18V9Z" fill="#8B8B8B"/>
<path d="M6 19H4V23H6V19Z" fill="#8B8B8B"/>
<path d="M16 19H14V23H16V19Z" fill="#8B8B8B"/>
<path d="M26 19H24V23H26V19Z" fill="#8B8B8B"/>
<path d="M12 7H8V9H12V7Z" fill="#8B8B8B"/>
<path d="M12 13H8V15H12V13Z" fill="#8B8B8B"/>
<path d="M14 17H6V19H14V17Z" fill="#8B8B8B"/>
<path d="M14 9H12V13H14V9Z" fill="#8B8B8B"/>
<path d="M8 9H6V13H8V9Z" fill="#8B8B8B"/>
<path d="M30 2H28V28H30V2Z" fill="#8B8B8B"/>
<path d="M2 2H0V28H2V2Z" fill="#8B8B8B"/>
<path d="M28 0H2V2H28V0Z" fill="#8B8B8B"/>
<path d="M28 28H2V30H28V28Z" fill="#8B8B8B"/>
</g>
<defs>
<clipPath id="clip0_1981_1404">
<rect width="30" height="30" fill="white"/>
</clipPath>
</defs>
</svg>
