<svg width="30" height="30" viewBox="0 0 30 30" fill="none" xmlns="http://www.w3.org/2000/svg">
<g clip-path="url(#clip0_1981_1533)">
<path d="M30 2H28V28H30V2Z" fill="#8B8B8B"/>
<path d="M2 2H0V28H2V2Z" fill="#8B8B8B"/>
<path d="M28 0H2V2H28V0Z" fill="#8B8B8B"/>
<path d="M28 28H2V30H28V28Z" fill="#8B8B8B"/>
<path d="M22 10H20V12H22V10Z" fill="#8B8B8B"/>
<path d="M24 8H22V10H24V8Z" fill="#8B8B8B"/>
<path d="M20 12H18V14H20V12Z" fill="#8B8B8B"/>
<path d="M18 14H16V16H18V14Z" fill="#8B8B8B"/>
<path d="M16 16H14V18H16V16Z" fill="#8B8B8B"/>
<path d="M14 18H12V20H14V18Z" fill="#8B8B8B"/>
<path d="M12 20H10V22H12V20Z" fill="#8B8B8B"/>
<path d="M10 18H8V20H10V18Z" fill="#8B8B8B"/>
<path d="M8 16H6V18H8V16Z" fill="#8B8B8B"/>
</g>
<defs>
<clipPath id="clip0_1981_1533">
<rect width="30" height="30" fill="white"/>
</clipPath>
</defs>
</svg>
