<svg width="30" height="30" viewBox="0 0 30 30" fill="none" xmlns="http://www.w3.org/2000/svg">
<rect x="20" y="8" width="2" height="2" fill="#999999"/>
<rect x="20" y="4" width="2" height="2" fill="#999999"/>
<rect x="20" y="12" width="2" height="2" fill="#999999"/>
<rect x="20" y="16" width="2" height="2" fill="#999999"/>
<rect x="20" y="20" width="2" height="2" fill="#999999"/>
<rect x="20" y="24" width="2" height="2" fill="#999999"/>
<rect x="28" y="2" width="2" height="26" fill="#999999"/>
<rect y="2" width="2" height="26" fill="#999999"/>
<rect x="28" width="2" height="26" transform="rotate(90 28 0)" fill="#999999"/>
<rect x="28" y="28" width="2" height="26" transform="rotate(90 28 28)" fill="#999999"/>
<rect x="14" y="14" width="2" height="6" transform="rotate(90 14 14)" fill="#999999"/>
<rect x="14" y="18" width="2" height="6" transform="rotate(90 14 18)" fill="#999999"/>
<rect x="14" y="10" width="2" height="6" transform="rotate(90 14 10)" fill="#999999"/>
</svg>
