<svg width="30" height="30" viewBox="0 0 30 30" fill="none" xmlns="http://www.w3.org/2000/svg">
<rect x="24" y="22" width="2" height="14" transform="rotate(-180 24 22)" fill="#999999"/>
<rect x="8" y="22" width="2" height="14" transform="rotate(-180 8 22)" fill="#999999"/>
<rect x="12" y="16" width="2" height="2" transform="rotate(-180 12 16)" fill="#999999"/>
<rect x="16" y="16" width="2" height="2" transform="rotate(-180 16 16)" fill="#999999"/>
<rect x="20" y="16" width="2" height="2" transform="rotate(-180 20 16)" fill="#999999"/>
<rect x="8" y="16" width="2" height="2" transform="rotate(-180 8 16)" fill="#999999"/>
<rect x="28" y="2" width="2" height="26" fill="#999999"/>
<rect y="2" width="2" height="26" fill="#999999"/>
<rect x="28" width="2" height="26" transform="rotate(90 28 0)" fill="#999999"/>
<rect x="28" y="28" width="2" height="26" transform="rotate(90 28 28)" fill="#999999"/>
</svg>
