<svg width="30" height="30" viewBox="0 0 30 30" fill="none" xmlns="http://www.w3.org/2000/svg">
<rect x="6" y="16" width="2" height="4" transform="rotate(-90 6 16)" fill="#999999"/>
<rect x="20" y="16" width="2" height="4" transform="rotate(-90 20 16)" fill="#999999"/>
<rect x="20" y="12" width="2" height="4" transform="rotate(-90 20 12)" fill="#999999"/>
<rect x="20" y="8" width="2" height="4" transform="rotate(-90 20 8)" fill="#999999"/>
<rect x="28" y="2" width="2" height="26" fill="#999999"/>
<rect y="2" width="2" height="26" fill="#999999"/>
<rect x="28" width="2" height="26" transform="rotate(90 28 0)" fill="#999999"/>
<rect x="28" y="28" width="2" height="26" transform="rotate(90 28 28)" fill="#999999"/>
<rect x="12" y="22" width="2" height="2" fill="#999999"/>
<rect x="16" y="22" width="2" height="2" fill="#999999"/>
<rect x="14" y="20" width="2" height="2" fill="#999999"/>
<rect x="24" y="18" width="2" height="18" transform="rotate(90 24 18)" fill="#999999"/>
</svg>
