<svg width="30" height="30" viewBox="0 0 30 30" fill="none" xmlns="http://www.w3.org/2000/svg">
<rect x="6" y="16" width="4" height="2" fill="#999999"/>
<rect x="10" y="14" width="2" height="2" fill="#999999"/>
<rect x="12" y="24" width="4" height="2" transform="rotate(-90 12 24)" fill="#999999"/>
<rect x="10" y="20" width="2" height="2" transform="rotate(-90 10 20)" fill="#999999"/>
<rect x="20" y="18" width="4" height="2" transform="rotate(-180 20 18)" fill="#999999"/>
<rect x="16" y="20" width="2" height="2" transform="rotate(-180 16 20)" fill="#999999"/>
<rect x="16" y="14" width="2" height="2" transform="rotate(90 16 14)" fill="#999999"/>
<rect x="22" y="10" width="2" height="2" transform="rotate(90 22 10)" fill="#999999"/>
<rect x="20" y="8" width="2" height="2" transform="rotate(90 20 8)" fill="#999999"/>
<rect x="24" y="8" width="2" height="2" transform="rotate(90 24 8)" fill="#999999"/>
<rect x="22" y="6" width="2" height="2" transform="rotate(90 22 6)" fill="#999999"/>
<rect x="12" y="10" width="2" height="4" fill="#999999"/>
<rect x="28" y="2" width="2" height="26" fill="#999999"/>
<rect y="2" width="2" height="26" fill="#999999"/>
<rect x="28" width="2" height="26" transform="rotate(90 28 0)" fill="#999999"/>
<rect x="28" y="28" width="2" height="26" transform="rotate(90 28 28)" fill="#999999"/>
</svg>
