<svg width="30" height="30" viewBox="0 0 30 30" fill="none" xmlns="http://www.w3.org/2000/svg">
<g clip-path="url(#clip0_2405_15459)">
<path d="M10 6H8V19H10V6Z" fill="#8B8B8B"/>
<path d="M16 6H14V24H16V6Z" fill="#8B8B8B"/>
<path d="M22 6H20V15H22V6Z" fill="#8B8B8B"/>
<path d="M11 10H7V15H11V10Z" fill="#8B8B8B"/>
<path d="M23 8H19V13H23V8Z" fill="#8B8B8B"/>
<path d="M17 10H13V20H17V10Z" fill="#8B8B8B"/>
<path d="M30 2H28V28H30V2Z" fill="#8B8B8B"/>
<path d="M2 2H0V28H2V2Z" fill="#8B8B8B"/>
<path d="M28 0H2V2H28V0Z" fill="#8B8B8B"/>
<path d="M28 28H2V30H28V28Z" fill="#8B8B8B"/>
</g>
<defs>
<clipPath id="clip0_2405_15459">
<rect width="30" height="30" fill="white"/>
</clipPath>
</defs>
</svg>
