<svg width="140" height="26" viewBox="0 0 140 26" fill="none" xmlns="http://www.w3.org/2000/svg">
<path d="M25.9566 10.902C25.9007 10.7746 25.8139 10.6438 25.7065 10.5368C25.5108 10.3424 25.318 10.2279 25.0454 10.1377C24.8983 10.0893 24.6673 10.128 24.5593 10.1935C24.4444 10.2634 24.3689 10.355 24.335 10.4772C24.2951 10.6221 24.3255 10.758 24.4042 10.8803C24.4088 10.9118 24.4137 10.9433 24.4198 10.973C24.425 10.9965 24.4346 11.0197 24.441 11.0432C23.1201 11.3168 21.7202 11.4053 20.2981 11.3386C21.7156 10.8826 22.9803 10.2004 23.9761 9.2795C24.2696 9.35936 24.6201 9.31957 24.8587 9.24658C25.0112 9.19992 25.1997 9.12234 25.3551 9.02215C25.4399 9.10402 25.5548 9.16156 25.6808 9.15955C25.8319 9.15698 25.9401 9.06967 25.9636 8.95172C25.9911 8.9085 26.0052 8.85812 26.0021 8.80287C25.9902 8.58216 25.7178 8.40096 25.4787 8.45592C25.3082 8.49514 25.2153 8.63082 25.2315 8.78684C25.202 8.79915 25.1722 8.81117 25.1412 8.8209C24.9964 8.86585 24.8427 8.8876 24.6876 8.90907C24.573 8.9251 24.4485 8.92968 24.3234 8.93455C24.5026 8.7459 24.6711 8.54838 24.8286 8.3417C24.8419 8.34685 24.8543 8.35344 24.8679 8.35802C25.4579 8.55611 25.9314 8.13015 25.8342 7.64551C25.7268 7.10962 24.9391 6.6851 24.3883 6.8434C24.1486 6.91239 23.9706 7.11993 24.0328 7.36354C24.0701 7.51011 24.1775 7.66411 24.3252 7.76746C24.348 7.93635 24.4467 8.09465 24.5987 8.21288C24.333 8.4854 24.0574 8.74934 23.7665 8.99953C23.7656 8.99982 23.765 8.99982 23.7642 9.0001C23.7286 9.01098 23.7112 9.03274 23.7019 9.05707C23.6695 9.08455 23.6345 9.10974 23.6018 9.13694C23.3795 8.76966 23.0787 8.40783 22.769 8.07147C22.8266 7.99876 22.8683 7.91631 22.8767 7.82299C22.8952 7.61431 22.7687 7.44627 22.5947 7.28711C22.3999 7.10877 22.0557 7.13882 21.9162 7.2811C21.9133 7.28424 21.9127 7.2851 21.911 7.28711C21.8844 7.30629 21.856 7.32489 21.8349 7.34579C21.8337 7.34694 21.8326 7.34837 21.8314 7.34951C21.6817 7.39446 21.5503 7.47633 21.4635 7.58224C21.2939 7.78893 21.3662 8.13788 21.7052 8.28216C22.0514 8.42958 22.3849 8.38836 22.6306 8.20601C22.7175 8.34485 22.8005 8.48483 22.8781 8.62624C23.0214 8.88674 23.1132 9.15726 23.2478 9.41919C22.221 10.2119 21.0472 10.8585 19.7076 11.2994C18.4154 11.188 17.1307 10.9255 15.8379 10.7726C17.2138 8.40153 18.4701 5.97058 18.961 3.26225C19.1602 3.23105 19.3295 3.13114 19.4303 2.98572C19.5156 2.86234 19.5475 2.72809 19.5266 2.5715C19.4934 2.32073 19.2421 2.10375 18.9578 2.03934C18.7888 2.00098 18.5943 2.0422 18.4825 2.14354C18.4131 2.16071 18.3476 2.18533 18.2941 2.22169C18.1343 2.33047 18.0353 2.47675 18.0457 2.67083C18.0608 2.94965 18.3239 3.18754 18.6452 3.25452C18.6799 3.26168 18.7144 3.26597 18.7486 3.26912C18.4573 4.61771 17.982 5.89988 17.3982 7.13997C17.0989 6.72489 16.671 6.3516 16.3248 5.95885C16.2255 5.84635 16.1329 5.73041 16.0371 5.61619C16.0258 5.53432 15.9679 5.45044 15.8715 5.41896C15.6443 5.14099 15.4217 4.86074 15.2052 4.57706C15.169 4.52954 15.1351 4.48087 15.0992 4.43335C15.1001 4.43221 15.1012 4.43192 15.1018 4.43078C15.5106 3.82504 15.8261 3.16292 16.2551 2.56635C16.3567 2.61988 16.4644 2.66167 16.5752 2.67828C16.7683 2.70719 16.9434 2.68142 17.0604 2.56148C17.1834 2.43495 17.173 2.2818 17.1119 2.11291C17.0592 1.96691 16.9405 1.82149 16.8045 1.71328C16.6736 1.60908 16.533 1.55698 16.3876 1.53952C16.3665 1.52864 16.3471 1.51433 16.3257 1.50488C16.1645 1.43475 15.9193 1.43475 15.8281 1.55985C15.7453 1.67349 15.6877 1.77855 15.7184 1.93342C15.7418 2.05165 15.811 2.18247 15.8973 2.28524C15.9288 2.32274 15.9668 2.35795 16.0047 2.39259C15.4723 2.84574 15.0112 3.36702 14.7837 4.00568C14.3064 3.34384 13.8672 2.66597 13.4666 1.97636C13.4785 1.97378 13.4912 1.97407 13.5031 1.97063C13.7332 1.90394 13.8942 1.74134 13.9298 1.53036C13.9726 1.27759 13.7876 0.993906 13.5014 0.854496C13.2625 0.737987 13.0396 0.746575 12.8066 0.776346C12.8017 0.776919 12.793 0.778064 12.7838 0.779209C12.7829 0.779209 12.782 0.779495 12.7812 0.779495C12.7797 0.779495 12.7788 0.779781 12.7777 0.780067C12.7435 0.784648 12.7042 0.790087 12.7479 0.784648C12.6903 0.791518 12.6382 0.802969 12.5884 0.818999C12.591 0.816995 12.5904 0.81585 12.5791 0.816709C12.5455 0.819572 12.4732 0.851061 12.4465 0.86566C12.3698 0.907454 12.2957 0.980165 12.2653 1.05459C12.1767 1.27158 12.3122 1.50975 12.5392 1.64773C12.738 1.85441 13.0417 1.99926 13.3222 1.99439C13.708 2.91645 14.1761 3.81302 14.7608 4.68641C14.9108 4.91055 15.0735 5.15245 15.248 5.40035C13.6111 5.31819 12.1478 4.54127 10.9323 3.44918C10.9925 3.41197 11.0467 3.36931 11.0881 3.31893C11.2064 3.17466 11.2612 3.00891 11.2371 2.81568C11.2064 2.56606 10.9578 2.29096 10.6556 2.23886C10.4521 2.20365 10.2865 2.24831 10.1722 2.35451C10.1238 2.36997 10.0761 2.386 10.0355 2.41177C9.79412 2.56377 9.69889 2.79221 9.72957 3.06931C9.74839 3.23992 9.91425 3.39164 10.0853 3.47981C10.3239 3.6029 10.5983 3.59603 10.8148 3.50872C11.9162 4.82124 13.7905 5.59529 15.5161 5.7702C15.9841 6.39941 16.5251 7.0246 17.1296 7.44541C17.1643 7.46974 17.1984 7.48406 17.2317 7.4935C16.0579 9.89038 14.5139 12.1413 13.1853 14.4348C13.1685 14.4125 13.1494 14.3901 13.1224 14.3695C12.5357 13.9241 11.889 13.5434 11.2745 13.1237C11.4412 12.577 11.5645 12.0159 11.7758 11.4823C11.9515 11.0386 12.1883 10.6304 12.4147 10.2159C12.4378 10.2333 12.4587 10.2539 12.4833 10.2691C12.5982 10.3412 12.7042 10.3919 12.8396 10.4068C12.9598 10.42 13.081 10.4057 13.1745 10.3518C13.515 10.1549 13.528 9.73809 13.2513 9.40946C13.1456 9.28379 13.0017 9.17415 12.8422 9.10488C12.5476 8.9772 12.1967 9.00411 12.0306 9.21108C11.922 9.34591 11.885 9.50793 11.9756 9.68713C12.0025 9.74009 12.0427 9.78933 12.0882 9.83542C12.1177 9.88895 12.1498 9.94133 12.1848 9.98971C12.1921 9.99973 12.2025 10.0086 12.21 10.0183C11.5312 10.7704 10.9966 11.8018 10.7957 12.7771C10.7641 12.7533 10.7306 12.7318 10.6996 12.7075C9.8882 12.0746 9.13327 11.3878 8.44781 10.6564C8.23621 10.4306 8.03416 10.2001 7.83645 9.96738C7.84398 9.95364 7.85469 9.94305 7.85903 9.92674C8.00926 9.36738 8.08018 8.8023 8.31262 8.26956C8.4232 8.01593 8.55723 7.77461 8.69414 7.53501C8.87969 7.65324 9.10027 7.72509 9.31737 7.71392C9.5446 7.70247 9.72899 7.57967 9.74868 7.37957C9.76807 7.18205 9.69542 6.96621 9.54287 6.78758C9.45689 6.68681 9.33184 6.5663 9.20187 6.51248C9.06235 6.45437 8.91848 6.42889 8.77433 6.42832C8.68459 6.42803 8.6128 6.45036 8.5497 6.48099C8.42233 6.48958 8.31233 6.54597 8.26805 6.66191C8.17455 6.90638 8.29063 7.18033 8.50599 7.38759C8.00318 7.97643 7.60227 8.70726 7.39009 9.42263C6.73647 8.59476 6.16158 7.73081 5.64807 6.84655C5.96764 6.74578 6.22237 6.52193 6.25508 6.21333C6.28721 5.90732 6.09211 5.58155 5.78614 5.37001C5.44833 5.13613 5.03236 5.05998 4.66966 5.14815C4.49308 5.19109 4.34575 5.2681 4.21462 5.36686C4.03833 5.4994 3.96828 5.64882 3.91646 5.8535C3.87073 6.03356 4.01228 6.26887 4.18277 6.40971C4.45806 6.75952 4.98779 6.95705 5.45354 6.89092C5.92393 7.95496 6.56018 8.97978 7.32351 9.94992C7.33538 9.96939 7.34812 9.98742 7.36577 10.0032C7.59503 10.2923 7.83153 10.578 8.08192 10.8565C8.53349 11.3592 9.01922 11.843 9.53013 12.3064C9.05887 12.1765 8.57807 12.0823 8.11202 11.9062C7.5603 11.6978 7.02275 11.4534 6.50721 11.1711C6.5376 11.0978 6.5541 11.0163 6.54918 10.9255C6.53644 10.6873 6.38853 10.4529 6.15956 10.2831C5.8313 10.0398 5.30997 10.002 5.09518 10.2788C4.98489 10.4208 4.95363 10.5866 5.02918 10.7626C5.00747 10.7941 4.9901 10.8247 4.97823 10.8525C4.88763 11.0635 5.02108 11.3002 5.27147 11.4316C5.69004 11.6512 6.1775 11.5848 6.4111 11.324C7.44827 12.0422 8.83077 12.7484 10.0138 12.7307C10.1053 12.8085 10.195 12.8884 10.288 12.9648C10.4275 13.0796 10.5722 13.1979 10.7193 13.3167C10.719 13.3204 10.7184 13.3241 10.7181 13.3278C10.7077 13.4758 10.9011 13.5915 11.0394 13.5709C11.6108 14.0177 12.2265 14.4517 12.8651 14.74C12.9108 14.7606 12.9534 14.7674 12.9939 14.7689C12.9493 14.847 12.9036 14.9249 12.8596 15.0033C11.6192 17.219 10.3864 19.435 8.85364 21.4571C8.3572 20.9839 7.78579 20.5431 7.28009 20.0928C7.26504 20.0793 7.25056 20.0656 7.23551 20.0524C7.47809 19.2171 7.57622 18.336 7.84224 17.505C8.0851 16.7458 8.38383 16.0198 8.68257 15.2867C8.8849 15.419 9.11879 15.5077 9.36368 15.5664C9.85636 15.6846 10.1696 15.2097 9.85636 14.8487C9.44097 14.3701 8.73727 14.1296 8.14184 14.2275C7.86424 14.2731 7.73745 14.5553 7.82458 14.7906C7.90621 15.0108 8.13547 15.1931 8.39512 15.2306C7.95224 15.8607 7.59301 16.5629 7.33914 17.2748C7.07688 18.0097 6.80681 18.8126 6.76223 19.6236C6.20761 19.1115 5.67383 18.5845 5.18202 18.0294C4.63232 17.4091 4.13501 16.7658 3.71441 16.0988C3.73149 16.084 3.7477 16.0676 3.75812 16.0436C4.07162 15.309 4.54085 14.6707 5.07405 14.067C5.34441 14.2284 5.67412 14.2991 5.93406 14.1792C6.02785 14.1359 6.07301 14.0266 6.05101 13.9295C6.04551 13.9049 6.04058 13.8803 6.0348 13.856C6.03277 13.8488 6.03074 13.8417 6.02872 13.8345C5.98443 13.712 5.97951 13.6965 6.01366 13.7881C6.03248 13.7735 5.98182 13.6215 5.97835 13.5972C5.95085 13.4 5.76762 13.2165 5.56209 13.1166C5.5537 13.1126 5.5453 13.1083 5.53662 13.1043C5.35368 13.0152 5.15076 13.0135 4.98837 13.0753C4.80426 13.1452 4.73884 13.2657 4.6934 13.4317C4.69108 13.44 4.68877 13.4483 4.68674 13.4566C4.64158 13.6221 4.77908 13.8454 4.93713 13.9728C4.29682 14.4148 3.81573 14.9813 3.42987 15.6196C3.13606 15.0958 2.89551 14.5568 2.71951 14.0017C2.72704 13.9914 2.73398 13.9808 2.74035 13.9693C2.79882 13.9284 2.85469 13.886 2.90477 13.8465C2.94558 13.8142 2.98929 13.7847 3.03069 13.7526C3.11666 13.7217 3.17455 13.6513 3.18729 13.5694C3.22232 13.5153 3.20755 13.4481 3.14532 13.4011C3.13692 13.3891 3.1294 13.3765 3.1184 13.365C2.93893 13.1775 2.65554 13.0149 2.38952 13.0393C2.06039 13.0693 1.81318 13.2047 1.69016 13.4601C1.58508 13.6782 1.73561 14.0023 2.02594 14.1231C2.20686 14.1983 2.39704 14.2026 2.54351 14.1411C2.79969 15.1476 3.27384 16.1369 3.90836 17.067C3.16182 16.7026 2.22423 16.5162 1.39027 16.3854C1.39345 16.3782 1.39519 16.3708 1.39837 16.3636C1.51648 16.1097 1.37145 15.7857 1.07301 15.6085C0.799464 15.4462 0.362655 15.4215 0.195053 15.6483C0.16408 15.6904 0.136291 15.7319 0.111396 15.7739C0.110528 15.7737 0.10966 15.7731 0.108791 15.7728C0.106765 15.7785 0.105028 15.7848 0.103002 15.7905C0.0451081 15.8933 0.00979293 16.0018 0.0126876 16.1326C-0.00612785 16.2529 -0.00699631 16.3774 0.0306346 16.4976C0.0908441 16.6891 0.213 16.8775 0.442259 16.9728C0.60523 17.0407 0.776885 17.0673 0.935225 17.0292C1.08546 16.9931 1.21283 16.8955 1.27014 16.7736C1.28577 16.7349 1.29503 16.6948 1.30574 16.6553C1.30719 16.6516 1.31038 16.6488 1.31153 16.645C1.31414 16.637 1.31588 16.629 1.31819 16.621C1.78337 16.7613 2.24681 16.9087 2.70619 17.0704C3.22608 17.2536 3.74799 17.5124 4.28525 17.588C4.38424 17.7174 4.48353 17.8465 4.58803 17.973C5.19128 18.7015 5.87356 19.3871 6.58363 20.047C7.20338 20.6229 7.87958 21.2696 8.60238 21.7866C7.59648 23.0716 6.45945 24.2719 5.10763 25.3351C4.894 25.5032 5.29144 25.877 5.51838 25.7193C6.98338 24.701 8.17455 23.4687 9.20245 22.1221C9.29479 22.1127 9.36224 22.0474 9.32345 21.9604C9.71221 21.4414 10.079 20.9072 10.4266 20.3607C11.13 20.7801 12.083 20.819 12.8469 20.8889C13.9031 20.9856 14.9493 20.9765 15.963 20.8694C16.5017 20.8125 17.0219 20.7266 17.5253 20.6144C18.5824 21.5702 20.3791 22.1713 21.7188 21.9028C21.7318 21.9478 21.748 21.9904 21.768 22.0279C21.9142 22.301 22.2615 22.3983 22.5203 22.2841C22.9071 22.1132 23.0405 21.709 23.1467 21.3838C23.2536 21.0569 23.042 20.7678 22.639 20.6367C22.3119 20.5302 22.0123 20.6204 21.8117 20.8004C21.6499 20.9456 21.6574 21.1414 21.7558 21.3168C21.7159 21.3976 21.6936 21.4918 21.6867 21.5885C21.0935 21.5965 20.4828 21.5791 19.8856 21.4511C19.0985 21.2825 18.5054 20.9596 17.8645 20.5316C18.9382 20.2611 19.9264 19.8569 20.8217 19.3058C21.2145 19.6084 21.7984 19.607 21.9796 19.21C22.0751 19.001 21.9761 18.7187 21.7914 18.5221C21.555 18.2699 21.2183 18.1625 20.884 18.1433C20.6666 18.1307 20.4671 18.2928 20.4582 18.4731C20.4558 18.5223 20.466 18.5767 20.4836 18.6314C20.4839 18.7651 20.521 18.9079 20.5847 19.0319C19.2519 19.6525 17.7615 20.1105 16.2073 20.3304C15.3334 20.4541 14.4279 20.4961 13.5115 20.4618C13.4437 20.4592 13.367 20.4566 13.2929 20.4543C13.823 19.3196 14.5023 18.277 15.2874 17.2857C15.3913 17.3435 15.4987 17.3948 15.6087 17.4337C15.9613 17.5594 16.3199 17.4944 16.4062 17.1818C16.4785 16.9198 16.2962 16.6734 16.0163 16.5403C15.9844 16.4876 15.9488 16.4378 15.9115 16.3957C15.6889 16.1432 15.2694 15.9414 14.9348 15.9351C14.7356 15.9314 14.564 16.033 14.4951 16.1799C14.4181 16.3442 14.4777 16.5039 14.5906 16.6699C14.716 16.8546 14.8937 17.022 15.0946 17.1623C14.1254 18.1305 13.3193 19.2183 12.6263 20.365C12.6141 20.3851 12.6072 20.4051 12.6028 20.4249C11.9292 20.3874 11.1787 20.3046 10.611 20.0667C11.5741 18.5143 12.4072 16.8832 13.2408 15.2939C13.9683 13.9072 14.7985 12.5483 15.6038 11.1746C16.2287 11.3151 16.8719 11.425 17.5186 11.5121C17.7224 12.1896 18.3789 12.8847 18.8394 13.4724C19.3176 14.0824 19.8633 14.4906 20.5291 14.8834C20.5048 14.9 20.4793 14.9146 20.4564 14.9338C20.4046 14.9776 20.3719 15.0271 20.3531 15.0789C20.2746 15.1625 20.2072 15.2547 20.1606 15.3594C20.0677 15.5678 20.2477 15.9291 20.5722 15.9654C21.1812 16.0336 21.6774 15.7777 21.865 15.3148C21.9327 15.1482 21.8881 14.9481 21.7214 14.7964C21.5729 14.6612 21.3043 14.5522 21.1164 14.6217C21.0026 14.6638 20.8892 14.7019 20.7818 14.7465C20.2141 14.2479 19.6575 13.7045 19.126 13.1867C18.6151 12.6886 18.3476 12.0963 17.9357 11.565C18.8117 11.6689 19.6885 11.7331 20.5308 11.7706C21.1129 11.7963 21.6832 11.792 22.2369 11.7474C22.3469 11.9606 22.5692 12.1413 22.7722 12.3036C22.8361 12.3548 22.9021 12.4029 22.9699 12.4473C22.8526 12.5446 22.7681 12.6654 22.7432 12.8186C22.7039 13.0596 22.912 13.2981 23.1725 13.4051C23.4197 13.6041 23.7729 13.6891 24.0597 13.6118C24.4708 13.501 24.623 13.1395 24.621 12.7771C24.6198 12.5858 24.551 12.4038 24.359 12.2595C24.1793 12.1244 23.9248 12.0608 23.7239 12.1149C23.5786 12.1541 23.4249 12.2022 23.2822 12.2644C23.2096 12.2037 23.1375 12.1433 23.0645 12.0817C22.9233 11.9624 22.8049 11.8258 22.6737 11.7007C23.3178 11.6214 23.9364 11.4797 24.5223 11.2604C24.6005 11.4282 24.7084 11.5896 24.843 11.7368C25.1064 12.0248 25.6046 12.1141 25.8417 11.8561C26.0802 11.5945 26.1115 11.255 25.9566 10.902ZM25.3311 7.68673C25.3308 7.68873 25.3311 7.69475 25.3311 7.6999C25.3308 7.69475 25.3305 7.68931 25.3302 7.68415C25.3305 7.68501 25.3308 7.68587 25.3311 7.68673ZM24.8931 7.87395C24.8919 7.87309 24.8888 7.87137 24.8885 7.87108C24.8867 7.86708 24.885 7.86307 24.8833 7.85935C24.8864 7.8645 24.8899 7.86908 24.8931 7.87395ZM10.063 2.77389C10.07 2.81311 10.0622 2.8632 10.063 2.77389V2.77389ZM10.7517 2.99288C10.7583 2.98343 10.7647 2.97399 10.7714 2.96454C10.7714 2.96511 10.7714 2.96568 10.7714 2.96626C10.7647 2.97513 10.7583 2.984 10.7517 2.99288ZM12.7099 10.085C12.6639 10.0799 12.6179 10.075 12.5722 10.0702C12.5658 10.0681 12.5594 10.0659 12.5533 10.0639C12.6026 10.0727 12.6526 10.0796 12.7099 10.085ZM9.10664 6.85657C9.10693 6.85714 9.10722 6.858 9.10751 6.85886C9.10693 6.858 9.10664 6.85743 9.10664 6.85657ZM9.10635 6.85571H9.10606C9.10548 6.85428 9.10461 6.85285 9.10403 6.85141C9.10432 6.85113 9.10519 6.85285 9.10635 6.85571ZM24.7408 11.237C24.7411 11.2367 24.7414 11.2355 24.7417 11.235C24.7429 11.2404 24.744 11.2455 24.7449 11.2458C24.7429 11.245 24.7417 11.2413 24.7408 11.237ZM24.7854 11.2118C24.773 11.2058 24.7649 11.202 24.7582 11.1995C24.7576 11.1989 24.7568 11.1977 24.7562 11.1972C24.7568 11.1972 24.7573 11.1972 24.7579 11.1969C24.7657 11.2012 24.7779 11.2075 24.7909 11.2141C24.7886 11.2135 24.7877 11.2129 24.7854 11.2118Z" fill="white"/>
<path d="M44.8818 18.2633C43.1694 19.7865 41.3986 20.2815 39.764 20.2815H39.044V13.5794H39.2386C41.3402 13.5794 42.8191 14.0364 43.1694 14.6456H43.2083V12.3227H43.1694C42.8191 12.8939 41.3402 13.2367 39.2386 13.2367H39.044V7.10574H39.6278C41.2624 7.10574 43.0527 7.67694 44.5316 8.93359H44.5705L44.298 6.76301H35.1133V20.6243H44.4537L44.9207 18.2633H44.8818Z" fill="white"/>
<path d="M57.3409 20.015L56.9128 18.7583V5.20172H56.835L53.2545 6.17277V10.7234C52.6318 10.3045 51.8534 10.0379 50.8999 10.0379C47.9032 10.0379 45.5097 12.3989 45.5097 15.6929C45.5097 18.7393 47.5335 20.8527 50.0437 20.8527C51.4253 20.8527 52.4372 20.2054 53.2934 19.2534L53.8382 20.8527L57.3409 20.015ZM51.3475 19.8626C50.0632 19.8626 49.3626 18.9868 49.3626 15.4453C49.3626 12.2275 49.9464 10.3616 51.4058 10.3616C52.3593 10.3616 53.021 11.1994 53.2545 12.3418V18.8154C52.5539 19.6151 52.0091 19.8626 51.3475 19.8626Z" fill="white"/>
<path d="M68.7652 17.9206C67.7533 19.063 66.6246 19.4818 65.5155 19.4818C63.5306 19.4818 62.2269 18.13 62.1879 14.817H68.9598C69.1154 12.4179 67.8895 10.0379 64.309 10.0379C60.9036 10.0379 58.4128 12.2085 58.4128 15.7119C58.4128 18.9106 60.709 20.8527 63.7836 20.8527C65.6906 20.8527 67.5392 20.1673 68.9987 18.0538L68.7652 17.9206ZM64.1339 10.3426C65.3014 10.3426 66.1576 11.98 65.8074 14.5124H62.1879C62.2269 12.2275 62.869 10.3426 64.1339 10.3426Z" fill="white"/>
<path d="M77.4007 10.0379C75.8439 10.0379 74.8904 10.6853 74.0926 11.5421V9.92368H74.0148L70.4343 10.7043V20.6243H74.0926V11.9229C74.7153 11.2755 75.2407 11.0661 75.805 11.0661C77.245 11.0661 77.2645 12.6274 77.2645 13.2938V20.6243H80.9228V13.7127C80.9228 11.1994 79.5996 10.0379 77.4007 10.0379Z" fill="white"/>
<path d="M94.1942 13.2748V13.2367C96.6071 12.932 98.5336 11.7896 98.5336 9.82848C98.5336 7.77214 96.5293 6.76301 93.2796 6.76301H86.8969V20.6243H93.2796C97.0547 20.6243 99.2341 19.1772 99.2341 16.7781C99.2341 14.4172 97.152 13.4271 94.1942 13.2748ZM94.4471 10.2093C94.4471 11.961 93.7271 13.3319 92.3261 13.3319H90.8277V7.06766H92.1315C93.7855 7.06766 94.4471 8.49567 94.4471 10.2093ZM91.9953 20.3196C91.6839 20.3196 91.0807 20.2815 90.8277 20.1863V13.6365H92.5596C94.0969 13.6365 94.9531 15.0264 94.9531 17.0828C94.9531 19.1201 94.0969 20.3196 91.9953 20.3196Z" fill="white"/>
<path d="M100.65 20.6243H104.309V5.20172H104.231L100.65 6.17277V20.6243Z" fill="white"/>
<path d="M111.624 20.8527C115.01 20.8527 117.579 18.6822 117.579 15.3882C117.579 12.0752 115.127 10.0379 111.799 10.0379C108.413 10.0379 105.845 12.2085 105.845 15.5025C105.845 18.8154 108.297 20.8527 111.624 20.8527ZM111.741 20.5862C110.32 20.5862 109.698 18.4918 109.698 15.4073C109.698 12.3608 110.145 10.3045 111.683 10.3045C113.103 10.3045 113.726 12.4179 113.726 15.5215C113.726 18.5679 113.259 20.5862 111.741 20.5862Z" fill="white"/>
<path d="M123.753 20.8527C125.893 20.8527 127.372 19.7484 128.559 18.0158L128.326 17.8825C127.391 19.063 126.419 19.4818 125.426 19.4818C123.597 19.4818 122.507 18.0729 122.507 14.7408C122.507 11.9419 123.266 10.3426 124.706 10.3426C125.874 10.3426 126.516 11.3707 127.294 12.6655L128.423 11.6754C127.606 10.8567 126.302 10.0379 124.375 10.0379C121.203 10.0379 118.615 12.1704 118.615 15.6357C118.615 18.8726 120.892 20.8527 123.753 20.8527Z" fill="white"/>
<path d="M129.706 6.17277V20.6243H133.364V5.20172H133.287L129.706 6.17277ZM140 10.2664H138.288C137.665 11.1803 136.945 11.8848 135.427 13.1796L133.695 14.6647L139.844 21.4239H139.961V16.5877L136.478 12.7797C137.645 11.8087 138.677 11.1042 140 10.3045V10.2664Z" fill="white"/>
</svg>
