<svg id="Vrstva_1" xmlns="http://www.w3.org/2000/svg" viewBox="0 0 267.3 49.6"><style>.st0{fill:#73787b}.st1{fill:#1d71b8}</style><path class="st0" d="M0 47.6h127.2V47H.6V2.6h127.3V2H0z"/><path class="st1" d="M127.2 49.6h140.1V0H127.2v4.7h135.4V45H127.2z"/><path class="st0" d="M19.5 20.8h.7v1.6c0 .4-.1.7-.1.7.4-1.3 1.4-2.4 2.8-2.4.3 0 .5.1.5.1v.7H23c-1.4 0-2.2 1.1-2.6 2.4-.2.6-.3 1.3-.3 1.8v3.7h-.7v-8.6z"/><path class="st0" d="M32.5 20.6c2.5 0 4.5 2 4.5 4.5 0 2.6-2 4.6-4.5 4.6s-4.5-2-4.5-4.6c0-2.6 2-4.5 4.5-4.5zm0 8.3c2.1 0 3.7-1.7 3.7-3.9 0-2.1-1.7-3.8-3.7-3.8-2.1 0-3.7 1.6-3.7 3.8-.1 2.3 1.6 3.9 3.7 3.9z"/><path class="st0" d="M46.7 20.6c2.1 0 3.1 1.2 3.1 1.2l-.4.6s-1-1.1-2.6-1.1c-2 0-3.7 1.5-3.7 3.8s1.7 3.8 3.7 3.8c1.9 0 2.9-1.3 2.9-1.3l.4.6s-1.1 1.3-3.3 1.3c-2.4 0-4.5-1.8-4.5-4.5-.1-2.6 2-4.4 4.4-4.4z"/><path class="st0" d="M55.8 17.3h.7v6.9H58l2.8-3.4h1l-3.1 3.7 3.4 4.9h-.9l-3.1-4.6h-1.5v4.6h-.7l-.1-12.1z"/><path class="st0" d="M72.3 24.2h.6v-.3c0-1.9-1-2.6-2.4-2.6-1.5 0-2.5.8-2.5.8l-.4-.6s1-1 2.9-1c2 0 3.1 1.1 3.1 3.3v5.6h-.7v-1.1c0-.5.1-.8.1-.8s-.8 2.1-3 2.1c-1.4 0-2.9-.8-2.9-2.5-.2-2.9 3.6-2.9 5.2-2.9zM69.9 29c1.9 0 3-2 3-3.7v-.5h-.6c-1.5 0-4.6 0-4.6 2.2 0 1 .7 2 2.2 2z"/><path class="st0" d="M78.8 20.8h.8l2.4 6.8c.1.4.3.9.3.9s.2-.5.3-.9l2.4-6.8h.8l2.4 6.8c.1.4.3.9.3.9s.1-.5.3-.9l2.4-6.8h.8l-3 8.7h-.8l-2.4-6.7c-.2-.4-.3-.9-.3-.9s-.1.5-.3.9l-2.4 6.7H82l-3.2-8.7z"/><path class="st0" d="M101.9 24.2h.6v-.3c0-1.9-1-2.6-2.4-2.6-1.5 0-2.5.8-2.5.8l-.4-.6s1-1 2.9-1c2 0 3.1 1.1 3.1 3.3v5.6h-.7v-1.1c0-.5.1-.8.1-.8s-.8 2.1-3 2.1c-1.4 0-2.9-.8-2.9-2.5-.2-2.9 3.7-2.9 5.2-2.9zM99.5 29c1.9 0 3-2 3-3.7v-.5h-.6c-1.5 0-4.6 0-4.6 2.2 0 1 .8 2 2.2 2z"/><path class="st0" d="M108.6 32s.5.4 1.1.4c.8 0 1.4-.7 1.7-1.6l.6-1.4-3.6-8.6h.8l2.9 6.9c.2.4.3.8.3.8s.1-.4.3-.8l2.9-6.9h.8l-4.5 10.7c-.4.9-1.1 1.6-2.2 1.6-.8 0-1.4-.5-1.4-.5l.3-.6z"/><g><path class="st1" d="M127.3 20.4h3.7c2 0 3.4.9 3.4 2.6 0 .8-.4 1.7-1.2 2.1 1.1.4 1.6 1.4 1.6 2.3 0 2.2-1.8 3-3.8 3h-3.7v-10zm3.7 3.8c.6 0 .9-.4.9-.9s-.3-.9-.9-.9h-1.2v1.8h1.2zm.2 4.1c.7 0 1.1-.5 1.1-1.1 0-.6-.3-1-1.1-1h-1.5v2.1h1.5z"/><path class="st1" d="M139.3 20.4h2.5v7.9h4.1v2.1h-6.5v-10z"/><path class="st1" d="M154.5 20.2c3 0 5.2 2.2 5.2 5.1 0 2.9-2.2 5.2-5.2 5.2s-5.2-2.3-5.2-5.2c0-2.9 2.2-5.1 5.2-5.1zm0 8.1c1.5 0 2.7-1.3 2.7-3 0-1.6-1.2-2.9-2.7-2.9-1.5 0-2.7 1.2-2.7 2.9s1.2 3 2.7 3z"/><path class="st1" d="M168.8 20.2c2.5 0 3.8 1.4 3.8 1.4l-1.1 1.8s-1.1-1-2.5-1c-1.9 0-2.8 1.4-2.8 2.9s1 3 2.8 3c1.5 0 2.7-1.2 2.7-1.2l1.3 1.8s-1.4 1.7-4 1.7c-3.1 0-5.3-2.2-5.3-5.2-.2-3 2.1-5.2 5.1-5.2z"/><path class="st1" d="M177.1 20.4h2.5v3.9h1l2.1-3.9h2.6l-2.7 4.8 2.9 5.2h-2.7l-2.1-4.1h-1v4.1h-2.5v-10z"/><path class="st1" d="M194 20.2c2.5 0 3.8 1.4 3.8 1.4l-1.1 1.8s-1.1-1-2.5-1c-1.9 0-2.8 1.4-2.8 2.9s1 3 2.8 3c1.5 0 2.7-1.2 2.7-1.2l1.3 1.8s-1.4 1.7-4 1.7c-3.1 0-5.3-2.2-5.3-5.2-.2-3 2.1-5.2 5.1-5.2z"/><path class="st1" d="M202.3 20.4h2.5v4h3.6v-4h2.5v10h-2.5v-3.9h-3.6v3.9h-2.5v-10z"/><path class="st1" d="M221 28.3h-3.1l-.6 2.1h-2.5l3.4-10h2.6l3.4 10h-2.5l-.7-2.1zm-1.6-5.7s-.2 1.1-.4 1.7l-.6 1.9h2l-.6-1.9c-.1-.6-.3-1.7-.4-1.7z"/><path class="st1" d="M228.1 20.4h2.5v10h-2.5v-10z"/><path class="st1" d="M235.7 20.4h2.5l2.8 4.7c.4.7.8 1.7.8 1.7s-.1-1.1-.1-1.7v-4.7h2.5v10h-2.5l-2.8-4.7c-.4-.7-.9-1.7-.9-1.7s.1 1.1.1 1.7v4.7h-2.5l.1-10z"/></g></svg>