<?xml version="1.0" encoding="utf-8"?>
<!-- Generator: Adobe Illustrator 22.0.0, SVG Export Plug-In . SVG Version: 6.00 Build 0)  -->
<svg version="1.1" id="Capa_1" xmlns="http://www.w3.org/2000/svg" xmlns:xlink="http://www.w3.org/1999/xlink" x="0px" y="0px"
	 viewBox="0 0 303 167.8" style="enable-background:new 0 0 303 167.8;" xml:space="preserve">
<style type="text/css">
	.st0{fill:#FFFFFF;}
</style>
<g>
	<g>
		<g>
			<g>
				<path class="st0" d="M124.1,135.5l0-59.3l12.2-1.5l1.9,9.3c4-6.4,9.8-9.6,17.3-9.6c1.6,0,2.9,0.1,3.9,0.2l-0.2,12.1
					c-1.5-0.2-3-0.3-4.6-0.3c-5.4,0-9.3,1.4-12,4.3c-2.6,2.8-4,6.8-4,11.8v33H124.1z"/>
				<path class="st0" d="M187.1,136.6c-9,0-16.1-1.5-21.5-4.6l1.5-10.9c2.4,1.3,5.5,2.5,9.3,3.6s7.2,1.6,10.3,1.6
					c3.2,0,5.7-0.6,7.5-1.8c1.8-1.2,2.7-3,2.7-5.3c0-2.1-0.8-3.8-2.5-5c-1.7-1.2-4.9-2.7-9.6-4.5c-1.6-0.6-2.7-1-3.2-1.2
					c-5.6-2.2-9.6-4.6-12.1-7.3c-2.5-2.7-3.7-6.3-3.7-10.9c0-5.5,2-9.8,6-12.7c4-3,9.6-4.4,16.7-4.4c7.7,0,14.6,1.5,20.4,4.4
					l-3.6,10c-5.8-2.7-11.3-4-16.5-4c-2.9,0-5.2,0.5-6.8,1.5c-1.6,1-2.5,2.5-2.5,4.5c0,1.9,0.8,3.3,2.4,4.4c1.6,1.1,4.7,2.4,9.3,4.1
					c0.1,0,0.6,0.2,1.4,0.5c0.8,0.3,1.4,0.5,1.9,0.7c5.6,2,9.7,4.5,12.3,7.3c2.6,2.8,3.9,6.5,3.9,11c0,6.1-2.1,10.8-6.2,14.1
					C200.4,135,194.6,136.6,187.1,136.6z"/>
				<polygon class="st0" points="251.1,100.9 275.9,74.7 258.6,74.7 233.9,100.2 233.9,54.9 219.4,57.6 219.4,135.5 233.9,135.5 
					233.9,135.5 233.9,119.1 241.9,110.6 260,135.5 277.5,135.5 				"/>
			</g>
			<g>
				<path class="st0" d="M110.3,76c-0.4-0.2-11-5.8-20-0.7c-7.2,4.1-8.6,12.4-8.9,15.9l-3.3,1.9c-1.6-1.6-3.9-2.6-6.4-2.6
					c-2.5,0-4.7,1-6.3,2.6l-15.2-8.8c0.2-0.7,0.3-1.4,0.3-2.2c0-4.2-2.8-7.7-6.6-8.8V68c4.4-2.8,18.4-13.1,18.4-29.6
					c0-19-18.8-30.9-19.6-31.4l-1.3-0.8L40,7c-0.8,0.5-19.7,12.4-19.7,31.4c0,16.4,14,26.7,18.4,29.6v5.4c-3.8,1.1-6.6,4.6-6.6,8.8
					c0,0.8,0.1,1.5,0.3,2.2l-15.2,8.8c-1.6-1.6-3.9-2.6-6.3-2.6c-5,0-9.2,4.1-9.2,9.2c0,4.2,2.8,7.7,6.6,8.8v18.2
					c-3.8,1.1-6.6,4.6-6.6,8.8c0,5,4.1,9.2,9.2,9.2c2.7,0,5.1-1.2,6.8-3l14.7,8.5c-0.2,0.7-0.3,1.4-0.3,2.2c0,5,4.1,9.1,9.2,9.1
					c5,0,9.2-4.1,9.2-9.1c0-0.8-0.1-1.5-0.3-2.2l14.7-8.5c1.7,1.9,4.1,3,6.8,3c5,0,9.2-4.1,9.2-9.2c0-4.2-2.8-7.7-6.6-8.8v-18.2
					c3.8-1.1,6.6-4.6,6.6-8.8c0-0.7-0.1-1.5-0.2-2.1l3.3-1.9c1.9,0.9,5.7,2.4,10.1,2.4c2.6,0,5.5-0.6,8.2-2.1
					c8.9-5.2,9.4-17.1,9.4-17.6l0-1.6L110.3,76z M74.3,99.2c-0.7,0.4-1.6,0.6-2.5,0.6c-0.5,0-1-0.1-1.4-0.2
					c-0.4-0.1-0.8-0.2-1.1-0.4c-0.8-0.4-1.4-1-1.5-1.7c0-0.1,0-0.3,0-0.4c0-0.1,0-0.2,0-0.3c0.2-1,1.2-1.8,2.6-2.2
					c0.5-0.1,1-0.2,1.5-0.2c0.6,0,1.1,0.1,1.6,0.2c1.5,0.4,2.5,1.4,2.5,2.5c0,0.2,0,0.3-0.1,0.4C75.6,98.1,75.1,98.7,74.3,99.2z
					 M75.8,135.5c0,2.3-1.8,4.1-4.1,4.1c-0.8,0-1.5-0.2-2.1-0.6c-1.2-0.7-2-2-2-3.5c0,0,0-0.1,0-0.1v0c0-0.4,0.1-0.9,0.2-1.3
					c0.3-0.7,0.7-1.4,1.3-1.8c0.5-0.4,1.1-0.7,1.8-0.8c0.2,0,0.5-0.1,0.7-0.1c1,0,1.8,0.3,2.5,0.9C75.2,133,75.8,134.2,75.8,135.5z
					 M69.2,126.7c-1.2,0.4-2.4,1-3.3,1.8l-15.5-9v0c0.1-0.6,0.2-1.2,0.2-1.8c0-0.9-0.1-1.7-0.4-2.6l15.3-8.8c1.1,1,2.3,1.8,3.8,2.2
					V126.7z M41.4,156.4c-2,0-3.7-1.5-4-3.5c0-0.2,0-0.4,0-0.6c0-1.7,1.1-3.2,2.6-3.8c0.5-0.2,1-0.3,1.5-0.3c0.5,0,1.1,0.1,1.5,0.3
					c1.5,0.6,2.6,2.1,2.6,3.8c0,0.2,0,0.4,0,0.6C45.1,154.9,43.4,156.4,41.4,156.4z M32.4,119.5l-15.5,8.9c-1-0.8-2.1-1.4-3.4-1.8
					v-18.2c1.5-0.4,2.8-1.2,3.8-2.2l15.3,8.8c-0.2,0.8-0.4,1.7-0.4,2.6C32.2,118.3,32.3,118.9,32.4,119.5L32.4,119.5z M15.1,135.5
					c0,1.5-0.8,2.8-2,3.5c-0.6,0.4-1.4,0.6-2.1,0.6c-2.3,0-4.1-1.8-4.1-4.1c0-1.3,0.6-2.5,1.5-3.2c0.7-0.6,1.6-0.9,2.5-0.9
					c0.2,0,0.5,0,0.7,0.1c0.7,0.1,1.3,0.4,1.8,0.8c0.6,0.5,1.1,1.1,1.3,1.8c0.1,0.4,0.2,0.8,0.2,1.3
					C15.1,135.4,15.1,135.5,15.1,135.5z M6.9,99.7c0-2.3,1.8-4.1,4.1-4.1c0.5,0,1,0.1,1.5,0.3c1.3,0.5,2.3,1.7,2.5,3.2
					c0,0.2,0,0.4,0,0.6c0,0.2,0,0.4,0,0.6c-0.1,1.1-0.7,2-1.5,2.6c-0.3,0.2-0.6,0.4-1,0.6c-0.5,0.2-1,0.3-1.5,0.3
					c-1,0-1.8-0.3-2.5-0.9C7.5,102.2,6.9,101,6.9,99.7z M38.8,78.9c0.7-0.5,1.6-0.9,2.5-0.9c0.9,0,1.8,0.3,2.5,0.9
					c0.8,0.6,1.4,1.6,1.5,2.6c0,0.2,0,0.4,0,0.6c0,1.3-0.6,2.5-1.6,3.2c-0.3,0.2-0.7,0.4-1,0.6c-0.5,0.2-1,0.3-1.5,0.3
					c-0.5,0-1-0.1-1.5-0.3c-0.4-0.1-0.7-0.3-1-0.6c-0.9-0.7-1.6-1.9-1.6-3.2c0-0.2,0-0.4,0-0.6C37.5,80.5,38,79.6,38.8,78.9z
					 M45.4,117.9c0,1.2-0.6,2.3-1.5,3c-0.2,0.1-0.4,0.3-0.6,0.4c-0.6,0.3-1.2,0.5-1.9,0.5c-0.7,0-1.3-0.2-1.9-0.5
					c-0.2-0.1-0.4-0.2-0.6-0.4c-0.9-0.7-1.5-1.8-1.5-3.1c0,0,0-0.1,0-0.1c0-0.4,0-0.7,0.1-1.1c0.2-0.9,0.7-1.6,1.4-2.2
					c0.4-0.3,1-0.6,1.5-0.7c0.3-0.1,0.7-0.1,1-0.1c0.4,0,0.7,0,1.1,0.1c0.5,0.1,1,0.4,1.5,0.7c0.7,0.5,1.2,1.3,1.4,2.1
					c0.1,0.4,0.2,0.7,0.2,1.1C45.5,117.8,45.5,117.8,45.4,117.9L45.4,117.9z M62.9,97.5c-0.2,0.7-0.3,1.4-0.3,2.2
					c0,0.8,0.1,1.5,0.3,2.3l-15.4,8.9c-1-0.9-2.2-1.6-3.5-2V91c1.5-0.4,2.8-1.2,3.8-2.2L62.9,97.5z M25.5,38.4
					c0-13.5,11.9-23.2,15.9-26.1c4.1,2.9,15.9,12.6,15.9,26.1c0,11.3-8.3,19.4-13.4,23.3V40.5c0-1.4-1.1-2.5-2.5-2.5
					c-1.4,0-2.5,1.1-2.5,2.5v21.3C33.8,57.9,25.5,49.7,25.5,38.4z M35,88.7c1.1,1,2.4,1.8,3.8,2.2v17.9c-1.3,0.4-2.5,1-3.5,1.9
					l-15.5-8.9c0.2-0.7,0.3-1.4,0.3-2.2s-0.1-1.5-0.3-2.2L35,88.7z M20,137.1c0.1-0.5,0.1-1.1,0.1-1.6c0-1-0.2-1.9-0.4-2.8l15.1-8.7
					c1.1,1.2,2.5,2,4.1,2.5v17c-1.5,0.4-2.8,1.2-3.8,2.2L20,137.1z M47.7,145.8c-1.1-1-2.4-1.8-3.8-2.2v-17c1.6-0.5,3-1.3,4.1-2.5
					l15,8.7c-0.3,0.9-0.4,1.8-0.4,2.8c0,0.5,0,1.1,0.1,1.6L47.7,145.8z M99.7,91.6c-3.4,1.9-7.2,1.6-10,0.8l5.1-2.9
					c1.2-0.7,1.6-2.2,0.9-3.5c-0.7-1.2-2.2-1.6-3.5-0.9l-5,2.9c0.8-2.9,2.4-6.3,5.7-8.2c4.8-2.8,10.8-1,13.5,0.1
					C106,82.7,104.6,88.7,99.7,91.6z"/>
			</g>
		</g>
		<g>
			<g>
				<g>
					<path class="st0" d="M134,154.9h-7.4v5.3h8.4v1.5h-10.1v-14.5h9.9v1.5h-8.2v4.7h7.4V154.9z"/>
					<path class="st0" d="M145.7,154.9c-0.4-1.5-1.8-2.6-3.5-2.6c-2.2,0-3.8,1.8-3.8,4.2c0,2.4,1.6,4.2,3.8,4.2
						c1.7,0,3.1-1.1,3.5-2.6l1.5,0.2c-0.5,2.2-2.6,3.7-5,3.7c-3.1,0-5.4-2.3-5.4-5.6c0-3.2,2.3-5.6,5.4-5.6c2.5,0,4.6,1.6,5,3.8
						L145.7,154.9z"/>
					<path class="st0" d="M154.4,162c-3.2,0-5.5-2.3-5.5-5.6c0-3.3,2.3-5.6,5.5-5.6s5.5,2.3,5.5,5.6C160,159.7,157.7,162,154.4,162z
						 M154.4,152.3c-2.3,0-4,1.7-4,4.2c0,2.4,1.7,4.2,4,4.2c2.3,0,4-1.8,4-4.2C158.4,154,156.7,152.3,154.4,152.3z"/>
					<path class="st0" d="M161.7,158.2h1.5c0,1.4,1.3,2.5,3.1,2.5c1.6,0,2.7-0.8,2.7-1.8c0-2.6-7.1-0.7-7.1-4.8c0-1.8,1.7-3.1,4-3.1
						c2.5,0,4.4,1.5,4.4,3.5l-1.5,0c0-1.2-1.2-2.1-2.9-2.1c-1.3,0-2.4,0.7-2.4,1.7c0,2.5,7.1,0.8,7.1,4.7c0,1.9-1.8,3.3-4.3,3.3
						C163.6,162,161.7,160.4,161.7,158.2z"/>
					<path class="st0" d="M171.8,164.5c0.5,0.2,1,0.3,1.4,0.3c1.5,0,2-1.6,2.6-3.2l-4.7-10.3h1.7l3.7,8.4l3.2-8.4h1.7l-4.1,10.5
						c-0.9,2.4-1.8,4.4-4,4.4c-0.5,0-1.1-0.1-1.6-0.3V164.5z"/>
					<path class="st0" d="M182.3,158.2h1.5c0,1.4,1.3,2.5,3.1,2.5c1.6,0,2.7-0.8,2.7-1.8c0-2.6-7.1-0.7-7.1-4.8c0-1.8,1.7-3.1,4-3.1
						c2.5,0,4.4,1.5,4.4,3.5l-1.5,0c0-1.2-1.2-2.1-2.9-2.1c-1.3,0-2.4,0.7-2.4,1.7c0,2.5,7.1,0.8,7.1,4.7c0,1.9-1.8,3.3-4.3,3.3
						C184.2,162,182.3,160.4,182.3,158.2z"/>
					<path class="st0" d="M193.7,152.6H192v-1.3h1.8l0.2-2.4h1.3v2.4h2.7v1.3h-2.7v6.4c0,1,0.6,1.7,1.6,1.7c0.3,0,0.9-0.1,1.3-0.2
						v1.3c-0.5,0.1-1.1,0.2-1.6,0.2c-1.7,0-2.8-1.2-2.8-3V152.6z"/>
					<path class="st0" d="M208.9,158.6l1.4,0.5c-0.7,1.7-2.7,3-4.9,3c-3.2,0-5.6-2.4-5.6-5.7c0-3.2,2.3-5.5,5.5-5.5
						c3.2,0,5.4,2.3,5.4,5.5c0,0.2,0,0.4,0,0.6l-9.3,0c0.2,2.2,1.8,3.7,3.9,3.7C206.9,160.6,208.4,159.7,208.9,158.6z M209.1,155.6
						c-0.3-2-1.8-3.3-3.9-3.3c-2,0-3.5,1.4-3.8,3.3L209.1,155.6z"/>
					<path class="st0" d="M214.6,161.6H213v-10.4h1.5v1.3c0.7-1.1,1.7-1.7,3.1-1.7c1.7,0,3.1,0.9,3.7,2.2c0.7-1.3,1.9-2.2,3.6-2.2
						c2.4,0,4.1,1.9,4.1,4.6v6.2h-1.6v-6.2c0-1.8-1.1-3.1-2.8-3.1c-1.7,0-2.9,1.3-2.9,3.1v6.2h-1.6v-6.2c0-1.9-1.1-3.1-2.8-3.1
						c-1.7,0-2.9,1.3-2.9,3.1V161.6z"/>
					<path class="st0" d="M239.6,154.3h6.2v1.4h-6.2v5.9h-1.7v-14.5h9.1v1.5h-7.4V154.3z"/>
					<path class="st0" d="M248.9,157.5v-6.2h1.6v6.2c0,1.8,1,3.2,2.9,3.2c1.8,0,3.4-1.4,3.4-3.3v-6.1h1.6v10.4h-1.6v-1.5
						c-0.7,1.1-2.1,1.9-3.5,1.9C250.5,162,248.9,160.1,248.9,157.5z"/>
					<path class="st0" d="M270.5,155.4v6.2h-1.6v-6.2c0-1.8-1-3.1-2.9-3.1c-1.8,0-3.4,1.4-3.4,3.3v6.1h-1.6v-10.4h1.6v1.5
						c0.7-1.1,2.1-1.9,3.6-1.9C268.8,150.9,270.5,152.8,270.5,155.4z"/>
					<path class="st0" d="M281.9,146.6h1.6v15.1H282v-1.8c-0.9,1.4-2.4,2.2-4.1,2.2c-3.1,0-5.4-2.4-5.4-5.6c0-3.2,2.3-5.6,5.4-5.6
						c1.7,0,3.2,0.8,4.1,2.2V146.6z M278,160.5c2.3,0,4-1.7,4-4.1c0-2.4-1.7-4.1-4-4.1c-2.3,0-4,1.7-4,4.1
						C274.1,158.8,275.7,160.5,278,160.5z"/>
				</g>
			</g>
		</g>
	</g>
</g>
</svg>
