<svg width="93" height="17" viewBox="0 0 93 17" fill="none" xmlns="http://www.w3.org/2000/svg">
<path d="M92.3041 7.00418V13.348C92.3019 13.6046 92.2067 13.8518 92.0362 14.0436L92.027 14.0548L92.0158 14.0654C90.5436 15.4475 88.5547 16.122 86.0801 16.122C84.9118 16.1397 83.7494 15.9545 82.6446 15.5745C81.6839 15.2344 80.8083 14.6904 80.0778 13.9798C79.3599 13.2652 78.8074 12.4019 78.4595 11.4506C77.7179 9.26149 77.7179 6.88914 78.4595 4.70005C78.8042 3.74083 79.3571 2.86988 80.0785 2.14976C80.8089 1.43918 81.6846 0.895161 82.6452 0.555083C83.7499 0.174546 84.9124 -0.0109667 86.0807 0.00684782C87.9653 -0.0681768 89.8228 0.474954 91.3702 1.55348L91.7565 1.81673L90.3942 3.25673L90.1875 3.10471C88.9797 2.28495 87.5388 1.87854 86.0807 1.94638C84.0194 1.94638 82.4873 2.48013 81.4421 3.50946C80.4095 4.54011 79.8745 6.04396 79.8745 8.06247C79.8745 10.0955 80.4095 11.6059 81.4421 12.6359C82.4873 13.6659 84.0194 14.199 86.0807 14.199C87.6037 14.2812 89.1077 13.8297 90.3336 12.9222V8.94636L92.3041 7.00418Z" fill="white"/>
<path d="M29.6444 0.147217H29.6477C30.2836 0.157172 30.9107 0.297156 31.4905 0.558554C32.062 0.795322 32.5824 1.14013 33.0233 1.57406C33.4664 2.01193 33.8175 2.53396 34.0559 3.10949C34.3058 3.6989 34.4327 4.33311 34.429 4.97328C34.4252 5.61345 34.2909 6.24613 34.0342 6.83259C33.7864 7.40723 33.4287 7.92793 32.9812 8.36541C32.5321 8.80475 32.0049 9.15629 31.4266 9.40196C30.828 9.64983 30.1857 9.77515 29.5378 9.77052H23.9344V15.9978H21.96V0.147217H29.6444ZM29.5378 7.84744C29.9241 7.84911 30.3067 7.77256 30.6626 7.62237C31.0119 7.47664 31.3302 7.26554 31.6004 7.00042C31.868 6.73666 32.0823 6.42384 32.2315 6.07903C32.3849 5.72242 32.4627 5.33786 32.4599 4.94966C32.4614 4.56839 32.3836 4.19097 32.2315 3.84134C32.0824 3.49644 31.8681 3.18359 31.6004 2.91995C31.3304 2.6546 31.012 2.44347 30.6626 2.298C30.3067 2.14781 29.9241 2.07126 29.5378 2.07293H23.9344V7.84744H29.5378Z" fill="white"/>
<path d="M62.1914 15.9998H64.1658V4.05657L72.3544 15.1791C72.525 15.4097 72.7504 15.5941 73.0102 15.7157C73.2701 15.8373 73.5561 15.8922 73.8425 15.8754L74.6868 15.828V0.147217H72.7361V12.0911L64.4166 0.794169C64.28 0.609825 64.0996 0.462382 63.8917 0.365177C63.6839 0.267973 63.4551 0.224059 63.226 0.237378L62.194 0.295282L62.1914 15.9998Z" fill="white"/>
<path d="M42.4432 9.81324C42.9294 9.81257 43.4097 9.91991 43.8494 10.1275C44.2891 10.3351 44.6771 10.6378 44.9856 11.0137L49.0568 15.9998H51.5913L46.0215 9.08929C45.7131 8.70865 45.3235 8.40181 44.8812 8.19125C44.4389 7.98069 43.9551 7.87174 43.4652 7.87239H39.6059V2.11302H45.21C45.5962 2.11168 45.9788 2.18822 46.3347 2.33809C46.6841 2.48384 47.0022 2.69519 47.2719 2.9607L47.2765 2.96464C47.5454 3.21812 47.7589 3.52442 47.9038 3.86432C48.0543 4.22124 48.1318 4.60468 48.1318 4.99204C48.1318 5.3794 48.0543 5.76284 47.9038 6.11977C47.8128 6.32175 47.6996 6.51292 47.5661 6.68971L48.8495 8.20345L48.8969 8.14948C49.2733 7.72315 49.5703 7.23274 49.7735 6.70156C49.9943 6.15825 50.1061 5.57684 50.1026 4.9904C50.1062 4.35695 49.9789 3.72959 49.7288 3.14761C49.4902 2.57216 49.1392 2.05014 48.6962 1.61217C48.2531 1.17718 47.7346 0.826394 47.166 0.576917C46.5847 0.314998 45.956 0.174786 45.3186 0.164917H38.6207C38.4895 0.165393 38.3598 0.192218 38.2391 0.24377C38.1185 0.295322 38.0095 0.370566 37.9185 0.465045C37.8278 0.55158 37.7558 0.655789 37.707 0.771258C37.6582 0.886726 37.6336 1.01099 37.6348 1.13634V15.9965H39.6059V9.80995L42.4432 9.81324Z" fill="white"/>
<path d="M54.8555 0.147217H56.8299V15.9992H54.8555V0.147217Z" fill="white"/>
<path d="M16.2037 0.108398H18.9494L13.2368 5.79407C12.2413 6.78271 10.8953 7.33755 9.4923 7.33755C8.08932 7.33755 6.74327 6.78271 5.7478 5.79407L0.0351562 0.108398H2.78091L7.12068 4.42778C7.75127 5.05374 8.60377 5.40501 9.4923 5.40501C10.3808 5.40501 11.2333 5.05374 11.8639 4.42778L16.2037 0.108398Z" fill="white"/>
<path d="M0 15.9187H2.74576L7.12041 11.5644C7.751 10.9385 8.60351 10.5872 9.49203 10.5872C10.3806 10.5872 11.233 10.9385 11.8636 11.5644L16.2383 15.9187H18.984L13.2365 10.1981C12.241 9.20949 10.895 8.65466 9.49203 8.65466C8.08905 8.65466 6.743 9.20949 5.74753 10.1981L0 15.9187Z" fill="white"/>
</svg>
